<mxfile host="app.diagrams.net" modified="2023-11-05T16:43:15.826Z" agent="Mozilla/5.0 (X11; Linux x86_64) AppleWebKit/537.36 (KHTML, like Gecko) Chrome/117.0.0.0 Safari/537.36" etag="twlj39CCeivoymCqZN_y" version="22.0.8" type="github" pages="2">
  <diagram name="Page-1" id="jGMqgqKl-Ol7-z4PGKaz">
    <mxGraphModel dx="1364" dy="803" grid="1" gridSize="10" guides="1" tooltips="1" connect="1" arrows="1" fold="1" page="1" pageScale="1" pageWidth="850" pageHeight="1100" math="0" shadow="0">
      <root>
        <mxCell id="0" />
        <mxCell id="1" parent="0" />
        <mxCell id="iuYqXoAJeuHE35NQU8kb-3" style="edgeStyle=orthogonalEdgeStyle;shape=arrow;rounded=0;orthogonalLoop=1;jettySize=auto;html=1;" parent="1" source="iuYqXoAJeuHE35NQU8kb-1" target="iuYqXoAJeuHE35NQU8kb-2" edge="1">
          <mxGeometry relative="1" as="geometry" />
        </mxCell>
        <mxCell id="iuYqXoAJeuHE35NQU8kb-1" value="" style="shape=image;verticalLabelPosition=bottom;verticalAlign=top;imageAspect=0;aspect=fixed;image=data:image/png,iVBORw0KGgoAAAANSUhEUgAAARgAAAEYCAYAAACHjumMAAAydklEQVR4nOydDYgdV3bnT82IpRIEWwKz8wxGLtUYRmaGdos4WGJadDWuME9kBrUYZ2WPO0hiJm2JJFgGx6omztZ9xLNd9jpIZj1Y7jhYYtuxRBzUghn0ZrdCV6c1SCYe1O51kMKa55IwzAsYpnZXJJVFUMvtvs9qtfrj3Vv31sd75wdNHM2rW7f7X+/Uueeee84W6AFMPzUAYDf7+QYA1Og/s5+1SADgKvvvGwDwzwDQjFztao7TRpCeRyt6AjwYjrcTAB7TLXtQt2z634+wH13ibT4HgE8BIEpa4adJK/wEAD6Og0Yk8R4I0heU3sBQo2I45AQA2Bt4JHmwAACnIlc7W+AcEKRSlM7A6NbwVt2yn9Qt26Y/APAtACjTUi6my6qkFQZJK/xZ0go/Slpzd4qeFIKUkVIZGNNPDwPAJIuhVAXq2bwQuVpY9EQQpGwUamB0a3iLbtlDhkMOAcDTkmMpeXM1Dsg5AJiLg8ZC0ZNBkDJQmIFhOz/vA0C9qDko5EzkakeKngSCFM1Xirip4Xi7AeCzHjUulMOmn84ajldkUBpBCic3D4Yth75vOKTeA8uhbvkCAN5pT9k/SVpznxc9GQTJm9wMjOmn7zPD0o+0AWBf5GoYm0H6CuVLpNr47PdNP/2sj40LsF2xa2zZ9O2iJ4MgeaHUgzH99CQAHFd5jw1YeRxgNTsL3Aqn83omcrWZgu6PILmhxMAYjmcaDnlLcRA3BoBP6E8ckPaKM0VRt2n9huMZzNDQn68bDnmEGZ9B1VnDSSt8M2mFfxIHjUTlfRCkSKQbGJYs967scVewAACNPDwA00+fZx6YKmMTxQHZEweNtqLxEaRQpBoYw/G+YzikKXPMFVDDMhG5mqrx18X000MAQBQZmtORqx1TMC6CFI4UA7NiC/qUxNgGXTo0k1b406QV/m0cNGJJ4wpjON6w4ZBRVhbicYlnpGbigDQwAxjpNaQYGLaUOCVjLAZdOhwo8xfO9NM6y0Q2ZI0ZB2RXmX9nBOHlq1kupp7LQyeiPwaAVwDg32WcC/VYgjggL7anRo4lrblSxyXioPEpALxBjeGWbeZ2GZ4bOz3+i7L/7gjSLZk8GMPxDhrO0gG/rNC39kjkaoUvg0Qx/XQSAFwZY6Eng/QKwh4MC+ieBoCtGe7/OQD85/aU/cdf/M2RyhoXWPZo/g4A5nTLTthWt7BHxzyZv01ac7flzhJB8kXIg5G0FR2zLdobGccpHZJ20+jf51HcwkaqDPdRAXZCOKtxoV+aHb1oXGDZm/k5ABxgcSVRDMMhByVOC0FyR8DALGXoZmGmPWXbVY63dEPkajNJK6yzDGNRXjYcz5Y4LQTJFa4lUsazRX17Bsf002vs+IEoI1iSE6kiXXswtfHZ72cxLkkrHOtH40JpT9nfo55bhiEuGY73mMQpIUgudO3BsJILIqny1HPZg7VQMgfHZyJXOyB5SgiilE09GN0a3mL66QVR48I8l743LrAclzmTtELRXJnvmn76nOQpIYhSujAwNl0ajQqO/0x7auRvBa/tSdpTI68CwBmBS7cAwGnW3RJBKsGmSyTTT6lLf1hgbOkuPTv/89yKei0xywKeiwNypkrtXTMsOd3I1V5VMCUEkc6GHgyr/i9S6rLdnrKlpM0bjvckXaKZfvorALjEvKnOF9NgLWU9wyH/y/TT2dr47CEZ91VN0gp/JJgnc5QVykKQ0rOuB8P6Fn0mcFqYehU7ZOS5mH5KqPEQuHSBncYutUeTIeiLfZeQSrCmB6Nbw1sESxF8HgdkjwzjUhufPSloXCiDhkPmTT89UeaYReRqZwBgWuDSw1g8HKkC6xgYe0iwnu6bMtL/TT89qVt21mLhDwGAbzjkepl3X+KA/JnIdYZDfiR/NggilzUNDOsVzctCe8p+O+uEDMf7joJOBG+afnrJcLxhyeNmhi3jRgXiMXWMxSBlZ80YjOmn/8rZeZF+OR6UFHe5kGFbvBsacUD8slXzF4zHYCwGKTX3eTDsQedt6xpKPLyo+nCfZzhkUvE9uGHxGN6g9CgLxiNIKbnHwOjW8FYA4P7yxcFS4anMmH76tMwatxtw3PTT66afero1/FAO9+uKpBW+w3kJ/VtlPd2OIMpYZWDsJwVqy0Zx0LgoaT55BmN3AgCpjYfzpp8qbbLWLUkr/InAZU+zGj0IUjpWGxje5UkSB0Rmtu5uiWN1C/1yflYbn32r6C8qa81yVODSJxVMB0Eyc0+QV6BuidTjAKafprLGysDTkaudL3ICAscIzkWu9ozCKSGIEF96MCwh7Vs8Fyet8KdKZtUdYdIKxzJWjFuLadNP3zcc75BuDfMGu6WQtMIPOC8ZUjQVBMnECgNDTvB2KkxaYaEnpdtTI+9FrvYoAIywIwoy2LIc1yBnauPhBUljcpG0wp9xXvKQ6acqt/YRRIiVMRje+MtCGdq5wvIWbyh44nsz6nTZaDierHa43SJSP6d0SYQIsmRg2PKIN8A5oWZKYkSudjEOyINJKzyVsZr/agYNh/yD6acndGv4AYnjrgsz3Lw1Yw4XtaRDkPXoeDC89V4XIlfL2vdHOnHQaLenRl4AgEclx2aWzjXlvKXd4Py8oVt2aQ92Iv3JkoHRLZu34j3vw58rkatF7Sl7LwAQALgqcWj6Bb7OzjUpPc1MfwcA+ITzsm8qmg6CCNExMDxvvrgK3QGS1twXkas1IlfbQ70PiUPrywcNyWXTT4nheCqXJR9xfv4RRfNAECE6SySeB5P3rVo4katNxAEZAQDZ2+qe4ZBZw/EOsho6UokDwhXsNRzClWaAIKrpCwMDy/GZMHK17wHAEclB4N2GQ87VxsP/JnHMDh9zfr4056oQhPIVdhq3azc/Dkilm7GzU8sqtrSfZrWDZR7W5P1b572djiAb8hWB8z+Vb1gfudr5OCA74oAcFyiRsBGjAHC9Nj4rJQCctELeuaGBQUqFiIH5Z0VzyZU4aERx0HgjDsgeAJDZ97mmW/abMgZKWnMJ59x000+z9MBGEKlQA/MNzmtKXamflzhotCNXG5F8rmnQ9NO3JAV+eeeEXgxSGr7C+0CWvRWIKCvONZ2SNORR3bIflzDOP3F+voiSFwiyJl/hPCJQqjq2KmhP2X8SB6QOAKcB4HaWsXTL/l0JU8K+3khl4TUwMrNiS0nSmrsTB42fR652LA7I72Q5pc3av+TNwwXcE0HWZNPm9/1MHDSoQd2VIe4k49wSrweD5TOR0oAGZhPYuabfZueaPue8PHPAVWK3BgTJHTQwXdA518SWTDxg+QSkr5F+fqYX0a3hrbplf99wyIucl95RNCUEqQRoYDaBpf5fEGwIx7ukWuv+GFNBKssWtvXcrSvfNwWNDMczdMv+QwB4MUMzOBmJe7wGpud3+pDqsIU9kN2+nfsiS9T00+MA4GXtMhkHRMYRBN45/JuEeyKIFLiDvPTNrmYq5cD0U2pYTkpqYSsjSQ7PFiGV5St41mWZ2vjsftNPr7DtaBk0k1Y4J2Ec3sQ5mQc3ESQTWwROR9d6oWRDB+qRGQ4RDeKuRztytX2SxuL1YPBoAVIaqIFpsnhDt3y9F96SrA/1d9jWs8xatknSCkX6S9+Hbg1v5TQwtzExDykTWyJXu2r63beENhzySByUuqnApph+ehAAzikYmnoPR9pTI1K8CN2yeQ3fFzLuiyCy6AR5efI1KrtVbTjeE6af0uXQtOSh20krfDEOyJ7I1WQuUXhr9fTM0hXpDTqJdp9yFIyu5K6G6aeEcynYLU2J8ZZ7MBzC+7fuyVo9SHXpGBieB7NymaWmn54EgOMKhg7jgDyjYNwOXH/rqhdkR3qPpSVS0go/5bnI9NPnlc1IEro1/JDpp57pp9cVGJerSSscjVxthPWRVgVvdTrcQUJKxZIHk7TCT3SLa5eWfmHfUDarjLDC1xcUeFvUQ9gnOc6yJux34J0/bx8lBFFKJ8j7S87rTNNPDymYTyYMx9tp+um7AHBNsnH5AgBIe8r+7TyMC2OS8/NRr9ZLRqrLkgcTB43PDWepTSlPUJEAwFl1U+PD9NPnWB1d2URxQEby/PKyHJ0652Wl9SiR/mXlWSTeavqm4XjDkufDhW4NG4bjPWf66SUAkNKLaAVR0gr/KA7Io3l7BgLFwpM4ICryehAkE9rK/8f0019zHvI7FbnaC7ImY/pp9xl/ywHNREGbDjrmMdZithCYweTxYK5GrrZH4ZQQRIjVBaducH5hi+zBoyof53DkaucVjd0tuHuE9AT3lGtIWmHAef3jpp/yxgo2orBzNEkrPB0HZEfRxoUFqblKRUiqO4Mg0lltYH7GeT31gN43HE9WcesivigRAOxoT40cK3oXxnA86pUdFrj05wqmgyCZWW1gPhJwtw3dsp+VNJ+3JY3TDVdXbD2XYntXt2yRrX9fcbIfggijrf4H009tAJjlHGchcrVdMiZk+ulnORxH8CNXm1B8Dy5YcfFfcbY6iSJX26FwWgiSiftKZkauFgoUjh40/ZQ3MWxNklaocrt1hp14LpVxMRyvxjKPeYzLHQA4onBaCJKZr67z71t1y+YN3g4BwFzSmsu03NiyzfxH3bJ5+w9tBl1CPBO5WiNpzWVuJSKb2ng4L7Bz9Pf091E0JQSRwnpFv4VqyRoOOZhtOktZxW0Fb+bDkavNSB5TCobj2YJb7rhzhJSeNQ1MHDQWAEAk0WzMcLzvZJ1U5GpnklboZxzmRhyQw3FAHoxc7WLWOanAcDzdcIhIjZokDsh7CqaEIFK5L8i7EtNPZwWLYR+Q4TGYfjoKAO8L9HieiQPyTBw0kqxzUAnLeRHZlm5Eriar+wGCKGO9GEyHOd2yxwDgNznHHdUt+/LtX569mWFu1JO6QY2Fbtn/jxmZBzZY1n0BAP89Dsjx9tTIj5PWXKn7QtfGZ3+4ZZv5nwQu/ShyNVlpAQiilA09GFh+y04CgCsw9o3I1R4Vm9baGI5nGg6hb/zHWLYr9VA+BICFOCDNsnssHVi/6esCnhksL/sapTnFjiAbsamB0a3hh2rj4T8INlxbaE/Z3yvjzk1R1MZnv61b9geCf8+wPWXvS1pzlTCkCLKpgYG71dWuCd5jJnK1A4LX9hwZEgnbkas9qGBKCKKMrnpTsypuotuio6afigQyew4W1BXNUi7lNjuCbMRmQd6VfKpb9g/WKPHQDaO6ZSe3f3n2FwLXVh66LHrg9878fYb2tFF7yj5y59c3/4/kqSGIUrpaInVg28YXMtzvTORqfZXezgK6VwRjLsCykHdgS1ikinS1ROoQudpM0gqzlKY8bPrpZ7Xx2SczjFEZauOzP2S7RaLG5dM4ILvQuCBVhcvAwPJhxD/J2EHQ1C37p70clzEcTzf99F3dst8R2YruEAfkxaJr1CBIFnhiMEuwBLbzumVvBYDHBe+7BQBGDYc8AgDXktZcz7yhDcezDYf8Jf39MgxzGwBeak+NYL4LUmm4YjCrYY3ks3yROoyW9bxQtxiOVzMccklSreDS1atBEBG4l0griQMiq1zAuSovmUw/NQyHvC/JuMRxQLDHEdITcC+RVpK05toAcFG3bJudExKls2Q6rFu2vmWb+Y9VyFY1HG/QcMiJLdvMcwDwiIQhL8cBGWYlKxCk8mRaInVgXzTRTN/1OBq5Wp41ernIcBJ6PWLW5A2NC9IzSDEwcNfI0GXCTlljsu6KH7BuBwtFFrc2HM/ULft3dcv+Lqs+x9VaZANuA8CbdFmExgXpNaQZGLgb6Lwu8cu3mjOsFkpuW7fsHNakQK/objkeuRrGXJCeRKqBgbtG5iAAvJwxLrMRnwDAR3Gw1LD/YwBoJ60wyhK30a3hrbplPwIA3zAcMsjODO1W2OHgU5bnUundMwTZCOkGpgPLB+Ftf5KVkLW//acV/Z0WVmbCstR9k3lZ1JA8zP6vqla0axHHAdmFSXRIr6PMwMDdHkuXsmSz9iDUqJQi/Z/pY68o4LV7Ha2osW6z4l4Ra7Z/o4Ap9x1V10ipgYFlT+YxwyEEAL4reBK7V6Diz7Sn7B/nXYCL9V36tuGQx5mntlPC0i9mS9VP4oBcpQ82K3GKCNCrGik3MB1MP30OAE7ndb+SEUauNpL3Tdly8KSkbOtuoA80waB19/S6RrkZGFi20jsNh+wHgKM5tIctAx/FAXkzaYXn80ocNBxvULfsZ3XLfqrAvzF9iD+IA/JB0grnqpA0mSf9pFGuBqaD4XiG4ZCTkhPVygQV69W8W4soSP6TAXXN95Uh5lQG+k2jQgxMB8Px6JrzRyzHRLRmSlm4AwCX6XIoDsh7cdD4NI+bUmOtW/bzumUfV5h/lBVqcK8mrfD19tTIz4qeTN70s0aFGpgOKzya0RILsBERAByJXC3Xdq6mn9IH1qvY36wSTfFk0e8alcLAdDD9lIrwFgA8XfRcOCiktILpp88DwKm87yuJviidihqVzMB0MBzPBIAnDYc4ADAEAA8VPSdGwvINFuKAUG/l53mfj9Kt4a/XxsNXAOCpim/7X40DcjwOGh8WPRHZoEZ3KaWBWQ0rNj7MgmNFuJp0CfRGHJBzRR5IZB7etR7agaMGew9ri9MToEb3UgkD00G3hnXdsncCwDeZdyMzGn+b9be+QQ1KHJA281Y+LkNKf218dr9u2ad7IBi+GvoAN9tT9jFWX6iyoEb3UykDsxKWQs171ulqJ1oOAP/G/i1cfV6pbLAT3VdyOHIRrVHQvSa5BMd6VLoDKGq0Nn1lYOKA1OOg8XN1s5KLbg1vrY2Hf84SE2U9uJ04UsTSx5dOo2+WQs5S2elD/DXdsgfpD4uPbZU0L2BHKSrlyaBGG9NvBsaNg8ar6mYlF9NPTwCAL2k4+tCeiwPSkLXkY+kFxwHgeYmxsUp5MqjRxvSVgQGA05GrHVM0JamwYGGWpm0rocu/ZyJXa0oY6z7YEZC3MrTGXUllAr+o0eYaZeoqUEGcoifQDbo1nLXdbIerSSs8HAfkQVUPLix5ho0bkauNxAHZkbRCnz2AotBlxhXD8Z6QOEXpoEbdadRvHgxlJO+MW14knFdps7MlhXgB7M1+idUuEeVq5Gp7JE5LKqjREptq1G8eDOWkbg2XtgCW6aeHAGBM8PI7AHCmPWUXusSIXC1uT9nfAwDCtv9F2E2/xIbjlU4r1OhLNtWoHw3MoG7Z3yl6EmtB18mssLlo9ufLkasdSVpzheftJK25LyJXa8QBEf0iUg6zThWlATW6jw016kcDA4ZDynZcfgnDIX8qeOkXAHC8PWX/heQpZSYOGhfjgFA3ekZwiNHa+Ox+ydMSBjVak3U16scYTIddZdqpYJXNPhO5Ng7I4TholL5RfoZe5oVUBFwNarQha2rUlx4M42TRE1jFu4LXUSN5XvJclBAHRDQHaTcLShYNarQ+a2rUzwbGptZat4ZlZjkKYfqpJ5CfcAcAfOraVqW2Shw0rsYBGRUIKurUWy0yOI8abcqaGvWzgYHltWP4wyInwEpTiJTW/GnkahNVeXA7sEZzrwtcOqhb9rCCKW0KatQ192nU7waG4hqOlyUXIBO6ZYsEMOM4IC8rmE4utKfsn7ADp1wYDnlKzYw2BjXqntUaoYEBqBkOuWI4Xp6dHb9Et2yRgNqROGj8o4Lp5ELSmvsCAPYJZJMWZWBQo+65R6N+3kVazQ1WhzS3nSV2PuQa5yncZuRq+xROq2tW1Od5mP3T/05a4UdJa66r9XttfHZSt2yX87bH8+y7hBpl06jK5fxk03mQduVlZAyHnOA94h8HpBTN69iOwewaPb0jADjQTQpA0grfFnh4CQDkaGBQoywa4RJpFYZDRLciRRBxvecUzIMLVnfk2hoPLrBSkbPdLDlZSQLec2EGy6bNC9Qog0ZoYO5n0PTTX5l+6unW8AOqbsJOovLmdhzPu8j4auiDazjkbzapOWsYDnmrm3NEcUCOsVIFPORy0ho1WiaLRmhg1oZaf1IbD+cVJnjxBpXbRfd8Nv100HDIdVYlbTN2Gw7ZtP0Mq9LG9XsZDslr1w81yqgRGpiNoW7er2rjs2/J3mUyHMI7XiDz/rzUxme/z+qf8Bhcr5sPxQE5xZnY9S2OzwqDGt1FVCM0MJuj65Z91HDINdNPL0j0aLjiCHFALku6Lzf0rahb9rRAzdmuWnewJQXP75eLgUGN7iKqERoYPkYB4Nemn16vjc/+V8PxDmYIOPJ+SQppULbirSiSpt918e6kFfLs3Bmmn+YR6EWNViCiEW5Ti7FTt2z680ew7EoDO+r+MTvY1k1AjCuAnGd+TgfWikPkrdjhXLcfpA+vbnEd9amzHlYqQY1WIKJRPxmYBgDsFwjcdcuo4JZmN+T+4LJtztmMrTh4AoP/zDn2SdNPy3QiHjW6H6OfDAy0p+yna+PhOYVGRhVd5yEYjrdbt+z9rCeOzrypG3FAprtNXV+xzSkcb0pa4en21AhP1TbV3ohqUKP7eaKfjgo0IlcjkK2oTlEciFxt02pjpp8+DwCn1vmfu2o1wVzu2Yw9dBZEShSYfppmuGfRoEZr3KMvg7ztKfv3WTpz4XVRu2TTmI7pp3UAeGWDjyy1mmABwTUR3OZczQcZ6p9U2YtBje5nsC8NTNKaux25GvVodmSoQ5obm7VZYdmYl7poEarrlj3N3oD3kGGbcyX0rfj7GeqfVKZl7GpQo7XpSwOzkvaU/UwcLBUB/6TouWTg2xyfXXpLmn56slPNL+M2J7AErONVqtxWAH2pUV8Fedciac0lSWvuLACcNxwySUUoek4CPMT5efqQHq+NL710z2bc5gTWiqPQFPkK0Jca9b0H04Fa9cjVXsjYrU8JCs9DHZWwzUld7rclzqmSoEZrgwZmFZGrnY0Dso0VPn5H4BSpCjbbVv9UcFy9wGDhWnSVtl5SUKM1QAOzBnHQiOOgcTFytT+IXG0b82qKNDSbifrLAuaXNVi4FlU2MKjR/YRoYLqAejXU0MQBGYwDQl1WHwB+yra57+QwhQ3rn9AHKA7Ivhx3YWS/FSHnIlIqQI3uJ+77IC8PcdD4GAA+joPGl/9mOJ7Oal8MMlf2sS5dWp5DHfUu5naVrtcNh6jedlfxVgRWg4eHKIc8JtToXng1+hgNTEaW30yNkLesoOmn/7eLnIgvP244Xi0OGhu+/Vg/m1HDWaoJy/swbMZtAHg5DsjbirY5H+P8/JHNck+yghrdB69GIRqY4vics94IdcEvbvYh9gCDgrek0m1O3ip1qo0LAzVagYhGGIMpDt61eNfBNfYAn+Gf0rrksc3JEzzM64gHanQv3BqhgSkIzuI99O3BVYgjcrUjbKs9a1BRerBwNaw1K88J91zOLKFGdxHVCA1MQfA+vN0EEVdD35Js10sUVcHCezAc4nEmkuVSewU1uouoRmhgioO3vKJu+ulbvDdhD7DIW1L5WxHunjDetLL9SuKAfKRuRveAGmXUCA1MQbBWELyxhKPMVeW9F+9b8kzkar+n/q24dML4fYE0+F8omtI9oEbZNUIDUyy8LTlBt+wfityoy7dkm34mcrUjIvfgRbfsgwJp8DObbQVLBjXKoBEamAKJXO08r1vcKTQuAnuAR9Z5K8dxQA50tlDzQLdskdjDCwqmsi6oUTaN0MAUz1XOzxumnxLRm1G3nxXaOgAAp1nBrWPLRyEavHMRhhVU4u3QGEWuVkQVQtSoe+7RCBPtCiZphTO6ZfPWB/Zq47Pz7amRvxO9L6sfW0g1P90aNll1Ny6SVviBmhltel/UqEtWa4QeTMEkrfC8yHW6Zb8ufzb5UBsPPZE0+aQVvqdmRpveFzXqktUaoYEpGLYLcJhVlOdh0PTTC6w3TiXQreEtpp+eAIAxgcvPFNHYDFAjHu7TCA1MCYhc7SwAvCpw6ajhkOtVeYBr4+EfslIXvEvzOK9dk/VAjTZlTY3QwJSEOCC+YOFxw3DI35T5AV4uaeEdEtnyhWW3e70+QrmCGq3PehphkLckMDf8dcMhIgfghuhbEgAezTlHZFNYvZwrGbppxkkrLEVBcdRoXdbVCD2YcnExQ1lF+pbkTlNXDTvDkqVVbyMOGmWoi9wBNbqfdTVCA1MilmsBL5VVFH2AR00/vVYbn31S8tS4MRzvm6xF74uCQ9wBgOORq5ViedQBNbqHTTVCA1MyWCJVli/VoG7ZQZZEr6yYfjpqOOQy6/8tugz/oKy9llCjL9lUIzQwJaQ9Zf+FhAQrz/TTX9fGZ/9c5PAdL4bjGYbj7Tf99BIAXMjYaiNqT9kvS5yedFCj7jTSMtygUEw/tVlDqm5pRK5W2BtDBOpKZ1wbr+R05GrHJI11D6afPp/xjb6SNgA8GrlameIu64IabQwamBKjW8PfqI2HocTi0AkANOOAhOww3YciOxqG49Ev1BOGQ4YAwJE5v6QVPt2eGsntMF9WUKONQQNTclhL0lmJb8nV0Ie4yYor0f9eWPlmMv10N3s4h1kbD1XzoF+sPZGrFZKtmwXUaH3QwFQA9gBfV9DmokycYr3BKwlqtDYY5K0A9G3VnrLtvGrR5gx1/0l7yv6zoieSBdRobdDAVISkNfdPkavtKur4viJusGBhI2nN3S56MllBje4HDUzFaE/Zv0/fJgU348/KHQA4056y91Vlt4gH1OguaGAqBn2L0LdJxmzSovlR5GpHktZcEdXplIMa3QUPO1YUlk26AwD2Gw55EQC+VfScumA6DsiPWbX+ngc1QgNTadgBs7MAcN5wiAsAJwTaS+RByJrV96THshH9rhFuU/cQpp8ektzvWAaELheKnkRZ6DeNMAbTQ0SudjYOyG8krfAw28koou5IAgBXk1b4YhyQHWhc7qXfNEIPpscx/fQgK4Go+jBdvNxwi7zaLzEWWfSyRhiD6XFY47DzhuPtBIAndMsepD8s4/QhANgqMOwXrHTkjTggC8sN2Bu8fZwRRi9rhB5Mn8Oaa+1kP/9+jXMsEQDcZP83ilwtLGiqfUuVNUIPps9hB9d6Mb29Z6iyRhjkRRBEGWhgEARRBhoYBEGUgQYGQRBloIFBEEQZaGAQBFEGGhgEQZSBBgZBEGWggUEQRBloYBAEUQYeFehzqnzOpV+YaPJpNFkvj0ZoYPoEWSd1TT+FspzU7TWGxpY12j5gDz48IK7RRPNejeanlzW6PI2nqbsGT1N3Ry/XGukVJpr5ajQ/TV69PJ2PRv1kYJQ1Fi8ThuPpumUf1C17FAB2F9BpsFMtbSZphRfjoNF3dXg3Y2jM07cP2AcfHihWo5uL4cytxfDi5Wl1GlXZwBgA8GuOS8LI1UYUTqlw+q3eaxWZaJZTo8m6Go0qa2Bg+QuVcnw8jlxtm8LpFAb1WvqxYn2VoF7L3rHyazRZl6vRV2UOljeGQ45yBMCoqD9JWnP/onhauWE4nkGXQ4ZD6BvxP5Y4aG8CwHHDIY8AwPWkNfdF0RPKi6Exz6DLob1j1dBo79iyRrcW5WhUdQ/m2hpbdusSB2QPa4ZVeQzH22045BL9z6LnIsDhyNXOFj0J1QyNebv3jlVXo8l6do2qnmjH6849pmgeuaFbw1tNP/UqbFwo75h++q5uDaveNSmE7QPDWyeaqVdh40J5Z6KZvrt9IJtGVfdgJgHA5bik8jtJpp9eAIDRouchiRsAsKfXGuBPNHtPo8m6mEaV9mDigPDu5e9WNBXl6NbwN9iSsFceXGCZqddNPz1BPbOiJ5OV7QPD35ho9qZGE830BPXMeC+utAdjON6g4ZBrnJftqNpuBtuSv15AvkSenIpc7YWiJyHKRLM/NJqs82lUaQ9GIAYDVXu7MOMyq/DBpX/D0wBwBABGAGBb5Gpa54f92wH6cClunXGUnYuqHMy45KrRZF3TOj95asTORXVNpT0YWP4CXgKAOsclcXvK3pG05kq/7qfLotp4GEp8cBMAaMYBCdlD+2EcNLh7I1PPEQCeMBwyBACOzPklrfDp9tTIRUnjKYcui559Tb5G89N3Nbo8za/R0NiyRnvH5Gt0czF8+q9f6k6jXjAw1CO5wHNNHJDDcdAo/TYp7zb8JigLcJt++jx7e8qAfpkerUrgl8VcpGk0WVej0URTvkbdBH6rvkSCyNVmAIArt8VwSKmXSWwr+oKEBzdOWuErcUB2qNw9i1ztjTgg2+Jg6e/azDgcfdNe063hr0uanhLYVrQUjW4uhq/MT5MdqowLZbKuvTE/TbbNT8vTaPvA5hpV3oOBuzVNeIO9u1hLztJh+qkHAFlPfhd2epx5le9mzAE5F7naMxKnJZWJphyNJuvFaDTRlKPRZH1jjSrvwcDd3r2fcF52wXC80iV6GY63GwCOZxhiIWmFTpGlKahXGQdLa3/qXd4RHOYptvQqHUNj2TW6uRg6RRkXWPZoZuans2vEll7r0hMeDIi/9aM4II/GQSNRNC0uDMczDId8luGtMhO52gHJ08qEQDLkal6IXE1W7CAzQ2OesXcsm0aT9XJpNNHMrtFkfW2NesKDgeXArchyh3owwwqmI8r+DA9uHAekdFnKcUAaGbdOPWp4JU4pK5k0mp8un0bz09k1ooZ3rf+h0qepV3Fz628d/i7vdpxu2Y8AwHtJa07UTZQCK7lwBgD+g8Dll+OADItsOauG/V3PJq3wU92yqUv+m5xD6HSY2788O6doil3DSi4IazQ/TYZFtpxVc2txWaNbi+GnDw+Ia/Q//8f9GvXMEgmW3XHqkXwmcGnhSwvTT+nyzhO4NGbLvNI9uKvJsJ1dilo+E01xjeanyaNlNC6rybCdHU/W79eoZ5ZIsBxcjFjQipfR2vhsYQFFVonuhMClM1UxLpT2lP0Tttbn9RYN00/fVTStrmCV6IQ0qopxobz3krhGE837NeopDwaWlxq24RCeWr0dEnayN9eta7Y0+leBSxciV9ulYErKYcbiMO91cUB2xUEj99QCtjQS0miyXk2NmLHg1mh+muy6PH1Xo57yYGBpzR9eZuc2eKHryCu18dnvK5jW+je17IMi1yWt8EX5s8mH9pTdYNmgXOiW/ayaGW3M9gExjW4uVlej914S02j7wL0a9aCBmbvDslZF2jLoumVP53nojlX/56XRnhr5OwXTyYWkNUeXsvt4r9Mt+yk1M9oYVv2fl8Zfv1RdjW4timn08MC9GvWcgVnBOcHrqCczm6OR4a1RE/dCfye2FOUtX2qyQH7ecGtUZBKdLCbrYhpNNO9q1LMGhgUURdfrBgBcq43P/qnkad0Da4rGta2etMI31c0oX5JWKLKUPalgKuvCmqJxaXRzsXc0urmYTaOeNTCscv1IlgQi3bJfMf10VmGil897QdIK/0rNVPInaYXnWbdBHkYNx8uzqBO3RrcWe0ejW4tiGg2NLWvUswYGlt3wOA7IvoxZiku7UobjHdStYWn9bFivaF53/3QvdUpkRzSeYTt4PHxb0ZTugfWK5tZIZafEvLk8nU2jnjYwsPwQtyWk0A8aDjlXGw+56s5swhOcn0+qXrB8LSJXa/LGywyHPK5uRvfArZHKkgtFMVnn12jv2LJGPW9gYNnIXGW1SrImO9VNP/216acXDMfbn2Ug3bJ5g8hZa3iUFnZeiecNmUsAfvsAatSBnVfi1qgvDAwsG5mLcUBkRPaN5TgAmTH99DNW+4QbXgPDylz2JGzZx7OM3alwOl/yMKeBYWUuexK27OPWqG8MDOOs5KLIdH1+gXo0pp/ybmXyBip7Zl2/Djy/X15b1ajRvXBr1FcGJg4aSRyQPYLboxtBvZgrpp9eN/30Um18dtJwvEOG4z2+QVGrhzjv8aGEeZaWOCBc+Ramn9rqZvMlqNEK5qf5NJpopnZZG3ErY3nnonHM9FNd5KzFJlC3cKdu2XXduvv8G87Syixa9QbgaWIViR5onGimdQB4ji3tYgB4mwXtMjM05g3uHSPPr/Ao5uanyWnBg30fc36e/oGFlyTsfNFuptlqT+Vr7N+5NKrKgcYMcGvUdwamQ+RqRwzHe8NwyF8CQB67EmYG157LIGwfGN6yfcD+4d4xcniNLNTRiWZ6dX6anLm1GP4VqwXCxfaB4a8/+1r4CvPcVm7d29Tg7B0jp997yf7xrcW52xzD8n45hfqMM6NIDe5TAPCAyBjr0LMB3hVwa9RXS6TVxEFjIQ7I7yhuViUDLtd7+4D9LP2Sb5Divpv+76sPpnXLs6+FrwPA06uMSwfqKbnPvhZyZUHHQYP37Bh38iMzLtcA4Khk4wK9vjyC5UAvt0Z9bWBg+cGOI1fblbTC4wIZi3nBFTzcO0a6Kkjd7edWwlLnv9vFR492sjk54Pk9uWMwe8fIf+G9hoNeD/B24NKo7w1Mh/bUyBsAsEPgcFcedO1hsdae3W6vDvK2AmWp890srY29Y+Qo59jKvqTsAJ6javwKeMGy4NIIDcwK2NGCA1mChyrg7HLI+2bn/TxPHKlMBdWVJud10+WwH0EDs4o4aLQjVxuJA7ILAN4ROINRNLyxia4/PzTmSTuLVQCVbKxfddDArEMcNBYiV/sDAHiwYjsEvN5X159nB9943tRlikv0yxKmVKCB2QS6PIlcbR/1aJJW6LMHNVevhiepjCVDfd7lxz/nTZ7iKF+QzE+TNzjHVlaGgaXxK1vGTDRzSfwrA1waoYHpEurRtKdGJlih7QdF6oRkoOtlDPMy3uny4++wz3fNZF17tctypDMriz93Cc8ZI66xL0834gxVDruhTM3hVMKlERoYAZhXMxEH5DfigAzFwdJ27xn20KvI5uQKlr73kv0XrLfNem9s+u+n2Oe4ubkY/mgDI3OHGpf3XrJf5hlToIgU99+ZFbIWaWvTDWUKaCtBIO2g3beZvDJgBZN+QX/ioPHlv9Mvi+EspaE/wZLdjIxBRi73+9bi3O3JuvYCALww0UzfYollHU5nrVny1y+N0N/50YlmeoL10Om8vSP6/0/WtfMCw/KekOZObLu1ONeerGsH2Nb8+5JPZffDEolbIzQwClguctWY2ehtafppyjGksHFixkRJESS2XHpV0nBf4/y8cDxlsq4tDI15u9hZJH2tmNpkXQsnmvloVCG4NUIDUxxf8KSrG443WETTsbzIuwDX5elGcnm6sdkOGpdGQ2PeoEDcqTKIFODCGExxfML5ed7yjZWC08DEkauJ9L3iBTVaAWcBrniyrt1AA1McXF8QwyFD6qZSLKxrA8/vx/vFF4VLo71jvavR0JiYRmhgCiIOCK8rrfIcTaEYztIuHE/tlVwMzPw0atSBHYzl1ggNTHHwPrw100+fVzSXwmDtW7h+L97qdxng1mii2XsasfYtXL9XJ4ETDUxBxEHjQ4GdkFMKm8AVguGQtwSS1HKpvXJ5WkwjtpzoGfaOiWuEBqZYRJK+eiahi9Ur5s0fiQWKU2WhrzUaGhPTqFOcCg1MgcQBeZX3XJPhcNdYKS26ZT8ncFmuTeXnp/k1EqiDU1q2D2TTSJM7HYQX00+vbFDacj0ORK6mKuU9F0w/pS73r9Ypu7keceRq2xROa00mmmIaTdarrdFEU0yjyfpdjdCDKZikFYocwHvXcLxvKphOLujW8AMAcInzwaV8oGhKG3JzUUyjobHqarR9QI5GaGAKJmmFFwUuMwyHvKJgOrlQGw//UMAjoEvKQgzMrUUxjfaOVVejZ18T02h+mqCBKROsbapIXOG7pp9OGk61qsyxnt4vCly6kLTCOQVT2hTWNlVIo4lmOlm1SoBDY+Ia3Vq8VyOMwZQE009nBU/kLsQB2cNOdpcaw/F2Gw65InAp/d0e5KxNLJ2JprhG89NkD2/tnSIYGvN27x0T12h1bWL0YMrDEcHrBgHgoOS5KMFwyAnBS68WbVwYPa/R3jFxjdYqfI4GpiRErkbd8GmRaw2HvG766fO6NVzK0/HUczH99ALrBMlN0gpPyZ8VP5N1cY32jpHXJ5rp89sHyqkR9VwmmuIa3VxcW6OvZp4ZIpPrumX/kcB1vwkA9a2/dfhf4qDxCwXzEsZwvP2GQ4IMxZ1mPn91R0PytLJw/eEBcY0Gfufwv1yeLpdGQ2Pe/r1j2TR669DaGqEHUyJYhuphVnZShFdMP31Xt4ZFe2BLQ7eGHzD91DMcIvTGZ5yJA/KMxGllhmWoZtJoopm+u32geI22Dww/MNFMvb1j2TSan15fIwzylhBqJNhDLEobAPZFrlZI8SOWRHdJZJtzBVcjV9sjcVpSoUZChkaT9WI0Ykl0mTWarG+sEXowJaQ9tVScOst5mxoAXDP99EptfPZQXlvZhuOZtfHZSZb9meXBTVgh9dLCCohn1miimV75wWuzh/Layh4a88wfvCZHo/npzTVCD6akMC/guqReQTEAPBO5mpIGcobj7WSnomUUvk4AYE9R3hcPzAuQqtFkXY1GQ2PeTnYqWppG3Xhf6MGUFLYtK2v3hH4RLtClFzvBLGdQxzNMPyUst0VWVf1mFYwL3O1HLVUjuvRiJ5ilMDTmGRPNlLDcFmkadbu0Qw+mxOjW8NbaePjnrO2ILBc6YYWUIla46WO6KtusBALrW7QTAL6mW/Ygq6E7xFnlbDNm2lP2saQ1p6K3lBK2DwxvffY1dRqxwk1LGnVKIKwH61u0pNH2AXuQ1dCVrtF7L9nHbi12pxEamApg+kt9fK5IfIDXI1qjn3RNcv+g9ZiJXO1ADvdRAuu11PMaTdb5NEIDUxFq47P7dcs+rbJ/c0HQt3Wzap7LWvzgtdn9Dw/0rkY8nksHNDAVggV+r9H/LHoukqhMQLdbWOC35zQS3U7HIG+FiFwtbk/ZDmviLproVRauxgGxe8m4AAv8vvdS72g0P03sLLk66MFUFNZhoBRndAQ4E7ma6MHBysA6DFRWo8l6do3Qg6kokau9AQAvZOnRXBAzcUCU9MouG5P16mo0Py1HIzzsWGHioHEVAN6m6+Qt28zBHHYwRKHr+MtJKzz++as7GklrrupLh665PH1XI+Nr5dfo5mJ4/K1DOxq3FuVohEukHkLCGSYV0PX7SEnquRSOhDNMKljSaK16LllBA9NjGI43qFv2s7plP1XgTgZ9UD+IA/JB0grnktZc6Su55cnQmDe4fcB+9uGB4jWanyYf3FoM524tqtEIDUwPY/opfXhPihYREoA+tITFh5AumGgWoxGLDykHDUwfwNL8v2045HFWvnGnhDdnzBqcf8KOHHyYc8fFnoKl+X9775gajdiRgw83O24gGzQwfYzppzY7APcYO2y33mG4BVa/pNOruRm5GhqTHJhoims0WS9eo/8fAAD//7BDnqfZ2hPbAAAAAElFTkSuQmCC" parent="1" vertex="1">
          <mxGeometry x="50" y="190" width="280" height="280" as="geometry" />
        </mxCell>
        <mxCell id="iuYqXoAJeuHE35NQU8kb-2" value="" style="shape=image;verticalLabelPosition=bottom;verticalAlign=top;imageAspect=0;aspect=fixed;image=data:image/png,iVBORw0KGgoAAAANSUhEUgAAAMoAAAD5CAMAAABRVVqZAAAA81BMVEX////1hTbzdQ77v5OdUCX7vY/zbgD1gCrzcgD95tjybADzcAD7u4zyaAD1hDP//Pr5v6P0ehX6wqD+8ef5xKr92sH8yaX0fB37wpn+69794s/92L/1fyb1gi/807b72sv+9e30h0KXQQCZRxOpWCfugTX4rHycTSDGaS33oWr7zLH2j0j++fP2lFP5uJH3nmXYdDDyYAD2mFv3p3P4sobm1c2yXSnKay7lezPMqZn1jk/5uJLyz73bxbyyel/BlYDt4NqjWzS0fGLQr6DpjVPakWfgcR7IhmPJYha5WBCpTQfWu6+oaEeiSxCtdl6QOQDGnouxZmWkAAAV90lEQVR4nO1da1fayhomNpIAm6GANgUSDaAgEMAiVbutSu2513P2/v+/5sw1mVwmmYQB3Gv5fOiyITOZZ97rvJNLqbRjNCA6EC76Y9cX2wm8dmXaWk/mM81qNi2EZtMA8+Xo4aQHaR16eJLwKmfr5cy2bMNwAABaAAAcx7BtC8xvPp+3Dz3OLHRby75tQw5aGgBkBH4f9d4sHXc6MTJZ8Hxse/bQPfSo42hPV03bkWQR0DEssO6+JdPxehM7Pw8mHGu26ByaAUVn3S/Kg8nGXvXegGi6S8OQNQ8xHFtreYcl0ptZWwkkADCa6wN6tN7c2l4gAQx7fSCjOZUjAmOIZcFYI3OuYazd/ROpLGVsHdjWpNXrVk6nC01KFQ3Q2jMRby0zMGDPpoFn6qzlyGun+2TSA4bEDDvaNNysPbElmoHmjbsvIu5EykiMVdwjTW2plmCacNkdYAqk/K+xSop65zJygVq2dHdPxLuRmljNmSfH79OmTGvo93q7ZtKVshI4r5or6OFBSi4asNa7zWU+ycZEW6ztc9ku5juM/o2R3Iwi9RL3cm7JduLszC27cznlQjMa0vRGOFNcyaZtwN5RvKzkSOVtrh1MOW175AYHTmRlq2nWaBdMTuU8F4ZzE7RbN1E7w6n4R9rSwoVzMlFv/HLBjQ0gMPoptQxn5mtZY5ajK2Oleh3TysNEs4Lqg8bacfSWedY4xsxVy0TW61Aqvhtt+xHRCdR+lGu55ijlkpMJR6Xrt+TsZ53DWBRzacm7HErFXw16vlSMtd/fTc5FNGdnW2Kal4lmB7FtzoZtBcdy2QrmIkjo8kI6OnNUTvzW3Saxe2PlH8rlwbRo6y1QkUtlQ3CWQfspKr46FjevndxShpNzkzC0nGiDIkUVi1Pu9no1n/DZZSuf1dMeH7Zl4s0L1bk4DUMIaXoB/cJctl1ZjorMIEwE+2I7ze9FCOyKsEsZ5A0owXWF+uAV0lgtbTUng24Bk2dcRDsnk8KVWWMp6FICnla8jgq05DXg54LqhbDF8uWmmKEQOP0kLrkThxCsouZS1D4ZFxBfz0qvqJMBtGJM2tvumwDrJiwYuaJmGrhELg9yZ0pROJpjjbosWLrTuQXkqoEpsM8LMJkW9cMMAJXIHWs2WbdardHKgIs3u583KY51OsufWHpbb8s1G92VZUBBGBCOgza3F41CSQsPccASomCY54AWLZU1MGwbUoH/zNEGRb4FpKjbXOhu52oQaJDsnJ9ABetRm9naAENZtxSky24pVBLyv4ZslTUFVj7L721r8xBGQmx2+9tTAbNcVIrl4WE4CZXFPNU8IVJK63FsGecJnIRFbEWBtPM5ZOnbh1Kv2I933FMxR3nEokQoMGGKT94nNT3Li0WFpUA48dR4ocJWcohFjRYkrmC3j5AY0k5MQUzBSEj9VHUtGVsqioSi2Z+iXRcstsQhGfJzFqfFMBYxKqpmSbNltlw9RToQ3vsiaKsIKxiGTIKsxhMjxGNkVxmVtEKbj2LlyMTLxdz/mbJp4jcLRGgXL31FEa/BfVRlhskZXgRbL/M4GNFVkjKPgu6Kz9w+UuUuEWJlq+0XXgHsswwmRfY+5K+mcp4yNWy76mEEscWXMgeGe8/wYaoyC3KxSAHOU+dStNDNAUlwtyh4xxGNkR21UkmPkgW2UFMAIvccnqrU3qz0WKG3xBcLO0x1iQSGleqOlZoKdGFuqPcHpROVHvBdtUyilURFCy+GeObNQV26RxCZNwX1PB4g5a5GpVkLQmQNrtQ9ohwvxVgUa0AkRnpqmcDuU/bzVCYWCCS58DodvObrKJ6oyM2mYSg2FbQE7677aIPFWbVcZUUDhhS7V1IGDWE2sxz0kCpAG0Ur1QrmTIRUVBXAOABgWNp8NTNsR7HRo87Ft4mdKHZgGnp+Y1FxGyXPPVsqfS4MI+VWkbVqu9SsUeAvzzXl3YtLSAoXedA+tOjaq7FEUlfwFKUP8d0VynyxY4MbGKNiq0iU4j3M5Z7Gk4HYG6uxemDby6kLs5T4rQ8uADABqCz6ih4MjZdymQIo8MXAaM5PkAafWkk1kZaNVxmN7shWwcb4LKDibX3/hGHPWjQZHjnBKu+0xzJkD8qM6vfpxNjuKWotJUZuV21BPBa+GTZmgGX4FWDZTVYeGTlBiulNJ2A7NsK7d7ah4liz0DsAoITpMyxeH43Woonl1A4VfdrTpZ3rwYXIVUW37BbOkRw4vvOwYXQstvQmtwCwO7nOrWi20W7NraIuTZi5yD2zGOfRnMQf/O9YrI5Pd1KdBqMS3wPvtLRibFRSgfJYTZMWQFAqdK+brEydGbtGslJU0KsUcrMRUvmem4qzOhGkDg1bs+ifS2gMTpNuHrYModfpjvq5HzsQ7ePlpmKlLH3mgFUPvTWw5uzMiZOyXvLyZk5A9NRBXipGWgH6wQg0qeExW2obwEjZRezk1DFVVJLulggAl3F2/Ca0tZG+t5vjOUM8BFHNJSeVjL3ziRP3VeeW1kwvWuerKYLflVDJuk+2Ymh25JSKAwzxGhbDzTUG8DdBN495ugH9rA20FlSxEa+DXbg81tyMVrlupFVDRWKH9sbWjL5/mre2AXCy70TP48WEVL7moJLqvRjgAhtY/YfTTqcyHTUNDcwk7kbN8xiT83cRlX/ITwfI2D3z3HbnfIqKxAC9x8XCGTBY9Lpt18tommPrwvnn9lQE3strVypnrcVospppthXPeR3ICvTny5t1a3pe6bjJ5iavYkIqG2kqEdfU7vamrfVyPkMv/EIvbUM1PGFjVOJDL6KDgurPVpDV9/OwBcnfCSOm8i9JLY3c8XEGh4/GD/I++gTw2/XQ6/XmIflIezHnWUDF/bfsWyNCYe5MQa0u8piwrIpdiqh4/5EbUzg4qtlgdOY8l7ZkLvaPPwVUSgOpDsK5V+Fn9CIwQjomOT//+iaiol/KtA9lUaqYRB/fllIx8O9fIiqv9xLtQ95LHRP0EBKX/svd8f6fryIqL3fZrUPeSyWTyDN7Ul5ssBFR+SZh9/wdt2qZIB3juEg8CnqpuyIqv/6b2Zr3Xg/KN8kcLRibxAOA16/CHOjrIMtYeO+1UM4EvRsokEumioGr/4mYlLw/rjNaczcuqZcJHh63gZ31tB4YiiIkhH6VLlTOe+1CJnh8ms8lK92/HP4UU3m6SL9M4L1GO2KCEjOfS4aKXQ+EvrhU+nOYaiyGr17sWWD8zKMyUC5BpSbVi4FbsQODS+JBWmQBvq9kTAzRrlMx0PsRA3v5nBooxz9S+toMUjUMaN0Qk8SH7LanArng4NVI1+LrcYrVlxqv49Q0DOB9nuBJ8x1RgVzgnLnL1JwSXA2FGRjC8zgjd7EWJe49mJhK5QwB6x7+6wz5hjb+CwvxFP/popnCf+EaDGnUCTcKbngFdredVQy/GGzSqPwaXmTEWMPgroCpnP52fHz8G1bvz8cIaFQdfBBXuj+hY78hqh46eIztq4d/x1Q/oIMfwlTQdTIGcq0PU0W8Geoy2XGYyvGHDx8olQ8IhAr845hQQccoFfQnpoIbHRMqfqM8tyGD2/FLKpXS6zgjSr4VKpd6uqlAYxmmR8k3Q+VaH2RUer8O9Kw87G1QuRg/pTMplcb67V+Byr2eloAxDcth+AejApOWwSaLCtSwq7dP5VLP1q9SaajLFV4OSQVcSegXyo6zVi2Hp3Kp62M3m8pmIC+WA1GBQsmKjwRPY2mxHIgKFEraqivAo7xYDkQFCiVtqRKg8UNaLIehAoUiY/QI36ATk4stB6ECY4o+lHyjgzfWJUP+QajcQybCzYgoYMSXy8QOQuVC1//rylJx/9B1/a1SuYZCSVvUJ4hFxvIPQAXavD7cyFNxIRUZyz8Alds8loIAsxddYg22fypQvaRylgCePpZRsf1TQeol3IBMxi8pFds3FRRSxumFlgS8jiW82J6pgDs4psFjXipwCQYDZVZRbL9U7pGhSCy5okAOWb9L57JfKpcXOR0xQ2OIVCw96O+VCjKU3DZPgJL9jHR/n1Tgeguq12sRJlTFUqPLHqkAFFEkyizJ8H4gFUvLkfdIhTAppF4I2IulubH9UUHOq7B6IfyJuYij/t6oXGIm+jbfY3gaYi6HpoLdsD6UKk2IQMxFGF72RIUwKW4oBBssFhEXuuuFgKl8wH8SKgiECv6TUEGgu14ImMqx30hAhcpEqvKVBhJdBPaCqbhtBKzG+C+8K+nhv9zgIK4rdPzfExslUyFMJMtFqfhGuQipqEMiFWzxW5o8w7OYyx6o3BMm442SK7wQe0mIlc66U1GI+B0HJMbL1lWz0XglXC7i+dgu7nHhmdwRJn8oYlJi4QXmycpfZJCOWyqT3KutFFC56BL3iarD/QWxk6xd7XxgOqbfSu+IbQtmJuOhSpkgLi/Ej+n6/Z6U7IoyUapdBM+Mi/yua3EAqlyQyUY5E5YmI0+W5zaYYqAi0Yc/dsEE1cbGTDA7tRhfJPrwaVefV/+qMy4Xu3PL4JK6YOiEc1Ts88Jljgy6sl2Z/x27wngguUtXEM+DsU/mcgdkrlnv0EzUhfhkPOq+YKDJKCZzfeH3PXjZ7WeIEVw/wiAyKtWMI6I4wgvxK1AyZTYDtLuAiD543eyFCRTME0/mIse9cCJcXgX96cM9iYTg8ceQuzbUs614XN9yfY2HL7sKJslo/DkMkbmAbIpoGgjzgB74ddeOK47NM69lRdiAKA+oW/o+dYsj8xQhA53AnSQdROPqItx4PBz+3L0HFuDrU1jNqHSukemIGMHjl/d3t7Fm44F+OCIIm+fhMCoazOf26u76/v7yMkg84d/399d3V7cXCedDG/l1UCKYzLcfMT3jKHEQnjQeDl6+HpwIQuPx5Y9E0chhOBh/2xyaQwD352uyomUAWvr4ef/eNwObX0/6IA+dMdSr1+e3oVgxuI/Pr0MpOlAaA/3l5+Zt8qBwH789jQcDqDjJjMaIxeDH88/NftOTonAffz6/6gOCIQH9z4+Xb7/etjAS4W6+Pj4+/vyG8Ovx8evmL8jhHe94xzve8Y53vOMd73jHO97xjne84x3veMdfB43u9CPEWfpb5DNBepkW62X2pY6gBUem5Aj3duwROvIl+OCgV8VnfGHvWWuczavVMka9NhGNo56EL9yLwbuTap32Ul1x3xH5+CXUpLl6SHybeNs8wigHv7br+IgZFN0tdFIteNl9t4bPsOkZPVClvSDUqqvk95Zz5wSo+6+cdJfVGt+L5r/W/aQcblMrV+cJr4b/RE8rc3en04sE70+sYmqOz22KG5n0gwiLamSQNTPxYxjpVCrNWvgXs8o+exSlgpnGXw4/pxcwuS/JTnCnZf/tf9MqYetP9oicsKBM/IuzwZrlpPfpp1Kp1MxoL0fVhZAK/DH6wYe23y6QNJVUzedNqB2V/Y9QEf5V/Bq/HmVSM23HaZZNOhxXSKVc5UFtxW2SX2s12ItVpgKq93gqNdKCXsInGh41vkKgYRVsLKbvCQx6Gfa5Ds8m48UKd0l+LI/QmLzTWZn+V0TF6p2HQKx7WaZTjbTag/Z/xA3hhE4tabDW6JjN8IdQVr5UTNs/2CAHq4wZU2KTOpUOMRUQ0D6q+9o4oReK7w9RKklbeBUy9Kr/CtUWOVA/Daj4c91Y0+kKfSja5bSwHvidJb4qs/sWO6lO3SyxnRq+7qeQB0AXskLnxqm4CVRWeLZ4e13WgmtEqPinh77D8omjwp26IG2nfK/cNJBZqWJFfohehv4aOA0JKh4RbZn7CEC3Gkg+RqVL5s/mBTzD3VtNTjGDfsiUlDzL10FAJ4UIzU2m8qluQtTzUDkj4+Z9kkf9RyKVEjUlzlhcPBu1EXGuNV/DXJ5bxXe2R3U8DZ6NL9PEvxLt8z0C+rnSgajERyymQgXJf6avYeP04YsslSnVlPNqpCsirRr+m8y7GegUiZg18n2lU6IbVYlX0Iqp8M6doTdF+JRCJaRgZMRNtxG1OhoDselidaotakcs1JBIQo2hQQVWvcm8uUBMhc6c6DstMSqnUV9TateYihKXEIRzOtrvaKw1rGsddDXTQD8SMTGH95mFyPJNxsdvKJV2wwtAfsE53pEpS6WhESlyH9Ru+Y7qLKJhHTJNSAinVaJNuDmeOMK7yQLHnHnBWr2/qKTcbkBDGJ/k0s/M2VJUqA573T4xbc51U7ki4yHekNMwx2QSxI4ZGgmWBZ4IM2zo3jxIwspV7cHNoMLB/D0HFVNbIcwNkrnUmvxnD0gH2E9Rw/N/JbEE2RUmddQmDhol+sTt8e5mwWXnZtkcCaxmSypHJgX+T5X/gAPTL6yCJFYGqQAN6B0iLywudIYJ12NY446qfDRvL8t8rC0nP866LZUQwh6TSIKYr0vdG/uNBBOoV9gB4HQeCwp6BjIDTTfUV3tkcaKpL5NMhmW0AXLZSngSLjmbL7WJBhrkfzOOFwLxA7+VbjABJAIsODjh2OrN2HfovN7kyGdTTvrmHfVg59xDt508VMwaBk0D6lxu0Arp1OeIhmGRQT9NEnxMHakatHacCZSTPiDnnfpr2mqCjokzYzmznz+sIZYaXbRy00Xj0voE46EW1rCPxDS62AXjCSDevNkhIUjw/cc2XWnwlYEIFTfeCuRxxqU2df9VNgZajIChDYPOpp+cdol7xkGepshr/Pex78GTMaXXmcZ+yYr25VCI5WJoLNoTK68xFWsluAV/vU6DPBQCtiAybuK6cJ7McuRSA+eOHZ7YDQlg8Y+piqnQYgLPvmFgx1tNpEIzXOZ6tMSqgXkZnil8jH4vleTLR6GBdkmJil/+0pUGH4uzqNAVL8/ew8mMKUjyyUjoFLcThQL7Y1Je+yfUmInPfXb+BNKVDf89SDeaOWRTIdp81OTsy6Wrq2QqMz6VpvrVRF/dw7CbYQ3r+elIlVWCAp2s+p/jpuU/bny9/FKhs8y7RboOmqRSIQPrE0vjYjZVjD6bFj/i+c6oEhwKBmFGxTIPUlFpKrQqUQ2+M0mnbJpNpVOLiZQuzdiEN/qs2BfEIpseqgWHFtRhTajleyNyoB731ikVl4ZF61NUcduXNU7a6VRIRKyFKnzUj7AoecP88+fIGaFeXZre1Y5Wre/fpzcWjcyWqHh01A8BEL1g6lzuP3z//nFFO6XaHqdCBkKoUE8ecv5TrshR8gMEXxjv0UN8ZeiM2VSNC09JQmFUzBBYV6xca3K91OhmQpwKmWZ8pEPVwuUv5VHVoEOnOmhymxMuDasm32xajrv1pLwluWbsZ9jravSnmkWVNk7lY1AKJvoV9TKkKMQ0rEHSr5C3pxlGOJfsapFSftmMh/pMKqWWGYoPZtX/BGOcClUFtJLVcGWmHpm7FtmoaTJm5KQz7owHfEY9UnhuTLU6E41Zq5rr5KymnIR6UPNv31SZapnluhFMxwm5KrfY82jjdanxkSBySY8epj6mS/7ncmd0yKF43tc5WQI0Bmu2iH/2nuJjIvgxuNOJhnqxVy1+ZVchZ/KH6Ng+/h84ZIR016pg/gAAAABJRU5ErkJggg==" parent="1" vertex="1">
          <mxGeometry x="570" y="190" width="227.15" height="280" as="geometry" />
        </mxCell>
      </root>
    </mxGraphModel>
  </diagram>
  <diagram id="m_hQvs_R0JJuTWqRrqR2" name="Page-2">
    <mxGraphModel dx="2214" dy="803" grid="1" gridSize="10" guides="1" tooltips="1" connect="1" arrows="1" fold="1" page="1" pageScale="1" pageWidth="850" pageHeight="1100" math="0" shadow="0">
      <root>
        <mxCell id="0" />
        <mxCell id="1" parent="0" />
        <mxCell id="amsNiet3mCZ-czu-G3W7-4" style="edgeStyle=orthogonalEdgeStyle;shape=arrow;rounded=0;orthogonalLoop=1;jettySize=auto;html=1;entryX=0;entryY=0.5;entryDx=0;entryDy=0;" edge="1" parent="1" source="amsNiet3mCZ-czu-G3W7-2" target="amsNiet3mCZ-czu-G3W7-3">
          <mxGeometry relative="1" as="geometry" />
        </mxCell>
        <mxCell id="amsNiet3mCZ-czu-G3W7-2" value="" style="shape=image;verticalLabelPosition=bottom;verticalAlign=top;imageAspect=0;aspect=fixed;image=data:image/png,iVBORw0KGgoAAAANSUhEUgAABpAAAAMgCAYAAAFT1hGFAAAABGdBTUEAALGPC/xhBQAAQABJREFUeAHsnQecFEXWwN+yu7AkFQwIC4IkEwgoZg5UBEQRBAH1jCAqivH0lPMznvEMeHpn9gQDgqIiZlDOAGJCAUGPLBlEJCNhF/abauimZ7anZ2an8/yL39CV69X/Ve2bqq7uySuLOcFBAAJZEaiUVWkKQwACGgEmEgMBAg4QYCI5AJEqIMBEYgxAwAECTCQHIFIFBJhIjAEIOECAieQARKqAABOJMQABBwgwkRyASBUQKAgrgrHLJ4dVdOS2IVBQKV861mljkyOgSeqIUNjcR8u+K9u6dasmNtdocgjbmJSwCazkVRNJuR9/nMY1ghw0pYbsv9BOJCxRNC2RrteQzaOy0E4kBRqLFE2LHLZJpOTNU/8FdPmWVCy10XDS3odL5cqVZdu2bSmvhYWF8t2Sn+S0r+9IWicJ7hKonl8k83u8JNu3b0+pL6XXsLnQbn8r2NOn/6gpJdV12rSpTCKfR+am7Vtk8uTv0tKXz6JWqPmcsEj5+flS562+FQJEIecILOj6ojaR0vkm4Vyr3tSUExZJWSyc/wR++mkGFsl/NeyWwG6NdOONN8rDDz8ct3bCIu1m56cPi+Qn/SRtJ1sjqUn03XfflvvLl6SaQEQv7/m6LOv5WkpZVD7dKf/3pz4l7fZtIeZ4PT2I1yhbpNB+tVO7dS1bHq5ZHvM1dh/CMj6IA8ss0+9bN2jB/Yr20iaGeXI0ql7HcrIcN+5qGdXudukx4XZzVYH1H3ZYi3L6stJjYDtgI1hoJ1Iyi1SlShU5+uijQ2WRlH4KY2fMlNtRtkPmbFiq+fX/Fmz6VffGXRf2eFXqju4rY/7097j4oAaibJEit2s3ePBgeeCBB1gjBXA2sUYKoFKSWSQ1iazuKwWwCzknEhYpYCq327WzOunArl0wFIhFCoYe4qRIZpGSxccVJuALASySL9iTN5qpRSooKJD93uyTvEJSPCGwtPurkpeXp20EWX1zUH8E9XhPBHKyEXVoNWyuIs8j7dixo2zq1CllsUOTob3e/dlzoZY/duZRG2qpTu2HbTwqeUP7GIX+3EouXS+d9HBZ3dfP0sZZ1PsdtskU2omkQKf6yxaldDWB9P7c8/nz2jjTw1G7hm0SKXlDO5Gi/hfZrn/T18yP/DsrwjaZIneyIdmuXZji643qbZzMaDTmz+Xui5Ut3mCkh6lfVvf3rOR3cg/As7rCNvOVvLnyFqH12zZF3vIks7xhG5eh/WqnQEdtbWDuj1oTNXi9rzaezPFR77fW4RD+F7mzdvp9CPOVdzZ49gUnaUNRf2dDTlikKVN+COHfuOiJ/PXXX2mdSmVhw9jznLBI6qyd+uD8JbBx40Ztk0RtMJi/MViF/ZU089ZzZtcuczSUcJoAZ+2cJpplfZmetcMiZQncoeJRtkih/TUK/f6Desxc3Z+wu8bO2Enr1s78wsE+o85yaFgFu5oaBVVlQc9XHBVSWaRjjjk2pb4cbdSjylgjZQBaTaJF3YZnUCLcWatVLXK0A1G2SKyRHB0qVGZHgDWSHR0f0vxaI2GRslM2Fik7fq6U1tdI6V5dESLLSk/reqqojxPuoObNpFnTJk5U5VodWCTX0Fas4qhYJH3gf/3Nt3LsMUfLnLnzNCB6vAr/9ttvcvxxx2rxeroVNXMZq/SKxLFGSp9a5NZIt99+e7nT0kF997eaGOqzevXqpBqrVKmSNGnSRKZMnRaXR584I0eM0OJVPd98+11cnqAFsEgB00gqi7R27VrZa6+9jHcDOHUfiTVSdgOBNVJ2/Fwpbbc2+uyzT8s9r+OKEFSaEYEoW6TQfrVTZ7XM7/w2hzdv3lLuHdMZaTxJZnWTEldxAlF+93fkTn//9NNP5Z5T4vR3MM5Tc/q74n+EXCmZao2kvvaZTxc7tUZypTM5VClrpAAq226N9Oyzz7JGCqDOorxG4qxdAAdcVEXCIgVQs3YWyeptNQHsQs6JhEUKmMpZIwVMIWmKg0VKE5SX2aJkkV588UUNnX7NhOMxxxyTSXZf82KRfMVfvvGoWaTi4mJRR4FiL/qXpUuXigqr66RJk6RRo0ZSr149I85MQ89njguyH4sUQO1EySIpvIsXL9Yo65NDXW+++WZtEun4VZzZqcm2Zs0aGTt2rDk6sH4sUsBUE0WLZLZE5slUu3bt2CHc6ZpF6tGjh4wZM0bThp5fBZQ/DC7KFilyJxvUPfzE96ZxsoGTDW4T4D5SGP6UR0TGKFuk0B5ajdoaKSJzxbYbrJFs8XifGLU1kvcE/WkRi+QPd9tWsUi2eAKZiEUKmFoytUjq1yg2bNig3asxnwpXk5HwNuNJYjd5lJSUyJ577imlpaVptRewIZdaHLd3M9yovyK/aq7kSNzNC1tY/WaS+bdkwyZ/uvK6MWbcrjO029/JfumN+K3amAk7B7cHvtP1h3YiKRDp/oWLQj6zJVL+KPdf61zI/gvtRAr7X1w7+SevmmX8dmyDUTt//tIuvxpzUUsP2TwqC+1EUqCjYGms+nH025dp40j1r3TH9sj2M5n+tM6H7L/QTqSo/QVO7I++sZAYnyvhkM2jspw52VBQUCDqd5LUi1DCcF3Qc4R80Oz/QiNvOlxjFqjcuzSs7gem3msOXo5InrWbMmWKtGnTxrhfoSaRet4H5y+BLVu2aHpI536Vv5Jm3npoR5fVXzL9XQ29evWK+8un/hLi/CcwbdrUOL3o+kq8+i9p5hJEziL169dPhg4dGndiwa/32m3bUSoXTXpQ/rtiqrSq1VhGtLtF9q6yR+ZaikgJztoFUJHJLJKaROrBuMR0r7uwYvNqqVypQC5vdrpcdVB3ubhJZ20SPTH7Ha9FCUx7UT5rF8ldu4ceeijuvkrsfJfnm0DL//jdss1/zxpTLn7YsGFanH4tlyFJhDm/8r/22mtJcgYjOnbeMU4vSqpku5DBkDh9KUI7kVQXre5D3HvvveXig/SE7Lhl35fTTuzlJlpc4vX6668vq1+/vpGWmB57V4OWNmbMmDI9rVzlAYqI8ru/QzuRkv0lU/HHHXdc3F86PyySPn6HfvZBWa1+Xcsue/ZBLWrN1g16UtxVTQT9oxLOO++8sth6T4s7++yztbzmdBWhT6QOHToYE+mcc87R8gbxPyxSwLSS6vT3AQccoEmsWyw/LJL5q52aSLqz+mqn0syTRPmVUxZJ9x966KGaf9q0aUZcYhk9r1Y4gP9hkQKmFDWRklkkfd1gTvfDIi3fvNqSWrKJZJk5YpFRtkiRu480b968QPyG7P5FtUT9VKb6qC3wP427XvMPat49MLtoXgsS5V27yN1HGjx4sLz88svyyy+/GCcb/LqP5PVADXp73EcKoIYS7xPp4QceeEA++uhD3+8jBRCZ7yJhkXxXQbwAvLMhfO+a4J0NAVzwptq103fruE7TtBc2DgEccilFiuR9JNVr864d4fDxSDlyA5YhtBNJcQzbX1rkTc9CBmyOpCVOKCfSJyt+wOLETnAoF1XLm9boDVCmUG5/x289EIKA/wRCe0PWf3RIAIHdBJhIu1ngg0CFCTCRKoyOghDYTYCJtJsFPghUmAATqcLoKAiB3QSYSLtZ4INAhQkwkSqMjoIQ2E2AibSbBT4IVJgAE6nC6CgIgd0EONmwmwU+CFSYABapwugoCIHdBJhIu1ngg0CFCTCRKoyOghDYTYCJtJsFPghUmAATqcLoKAiB3QSYSLtZ4INAhQkwkSqMjoIQ2E2AibSbBT4IVJgAE6nC6CgIgd0ECnZ7w+PbVLpFJv42IzwCI2naBLrUbZt23iBl5IhQkLSBLKElwFe70KoOwYNEgIkUJG0gS2gJMJFCqzoEDxKBUG42ZAow9ot9sv/oszMtRn4HCSzu9ooUFRVJXl6eg7UGp6qc2GxQv5qH85/AyrNGSaVK0fwSFM1e+T9mkCDHCDCRckzhdNcdApGcSD/99JM7tKgVAkkIRG4iTZ48WQ477LAk3Q1e9N5V9pChx/5Vlvd8PWPhVJklZ47MuBwFnCcQuYnUtm34jph8suJ7TbPmyfTnRidrk8scZ6X+/LzIqdCqm4GPi5wW/v3vfwceeqKAwxf8NzFKXrWIS8zU8oMBUnd038Rowj4QiNz297nnnisjRoyIQ8n2dxwO3wJsf/uGPrOG33nnnXKTKLMayA2BihGI1Fe77t27V4wCpSCQJYFITaQsWVAcAhUmkBMTSZ3zwvlPIKrn7BTZyG02WA2X2K/Ii/qEydV/s68sOSv+3pJVXFj6pCZRlCdSTpz+DqsSzQc8j3p/oDZntpWVSlF+5bDMn5yRMye+2kVBmy+1+5vWjaajz49CdyLXByZSSFR6yJ4NNUmX9I7/uhcS8SMvJhMp8iqmg14QYCJ5QTnDNuqN6q2V0K8ZFie7DwSYSD5AT9Xksj5vaFn0a6r8pPtPICe2v3lng/8DLervbMiJ7W/14pNVfd70fzTluAQ7duyI7L0kvtrl+OCm+84QYCI5w5FacpwAEynHBwDdd4ZATqyRnEElMmv9Yjlh7HVOVRfoelhTZqYeJlIGvBoU7iuLug3PoER4s/6xeYtUq1oU3g54LDlf7TwGTnPRJMBEiqZe6ZXHBJhIHgPXm2vWtImc1vVUPVjhq6pHfcZ/8ol2rXBFFMyKABMpK3zZFZ4zZ45WgZoIyqnr3wbfrPlbtjis3MT44osvtLi1a9dqefT/jjyyrQwceLnMmTtPj+LqMQEmksfAzc1ZDfz7H/iHlmX6jPKvXb6kfz/59rvJMnz4K+Zq5PvvJ2uTSJ+QcYkEPCEQubN2//znP+W66+K3qNV77ZzYzlU7WW46NRGsJpebbdrV7fSunToiZH7q167tsKVFziJdeumlYdOBIW+QJpEhFJ60CERuIlWvXj2tjpMJAk4S4IZsBjSd/qqTQdNkDTiByFmkVatWBRw54kWRQOQm0rvvvhtFPdGngBOI1EQqKSmRfv36yciR/PhWwMdd5MSL1EQqLCzUFHTOOedETlF0KNgEIjWRgo0a6aJMgIkUAO3Om5f8aM+LL75YTkI9rlOnTuXSiPCHABPJH+5xrV599dVGuH///vLQQw9p4eLiYrnlllsMv55JxV1xxRXy8ccf61FcfSbAfSSfFaCa79mzp6hJs3TpUnnhhRc0iW6//XYtrOLVJ9E99dRTWpReLjGdsLcEmEje8rZsbdGiRdqkUYn6pFGTSvc/8sgjcsMNN2hl169fb9Sh0qP8UylGR0PgidyhVSvmTh1ataqbuPQJcGg1fVbkhEBOEmCzISfVTqedJsBEcpoo9eUkgZyYSNXzea1UTo5uDzudE5sN27dvly1btoTqB5nbf3q9fHHSo3FDYfTSidKzuF1cXFgC6vhW5cqVI7vLmBPb3/n5+RK2B/5WbFkjNWrUiJsnN//4vFxwUPZvHoqrlIAjBHLiq50jpHyuRP/1Pv3qszg0n0CAiZQAJKhB/df79GtQ5cxVuZhIAdP8jLW/BEwixEmHABMpHUoe5mmx14Fyzhd/11rka5yH4LNsiomUJUA3ivdtdJJWLV/j3KDrTp05sWtXVlYm6pxXWFyP4uPlKnlM1LZ9orOKS8wTxLA6XBvVl0Mq3pG7j9SgQQNZvHhx3FiasmKWtNn/oLg4At4SmLByhrTb97DI3keK3Fc7q8cKOk3Y+XCct0OH1swE/rRfi1DdEDfLno4/chNJPdszceLEdPruep6Xf/lEjv7wKjn8/cvk8Vlvu94eDfhHIHJrpCA9MXrWAX+STaVbZGPJZulWfIx/WqZl1wlEziIlro9cJ2jTQLX8KjKwWTe58dA+0rhGXcuc+otM9KtlJotIlV8v88cffxh+i6xEeUEgtqMVObds2bK4Pu39eq+4sJeBWv26lqlPMlevXj0tSb8ecMABZRs3biyLvZuvTI979tlny9atWxeXT09T19hj6XFpydryOz624+i3CK61HzmLdMIJJ0jdutZ//b34w6TaWLDpV6Op1S98IOpj58xfRxcuXCjdu3fXsqv3Nig3adIk2WOPPYw4/V0OWgT/BYJA5CbShx9+6DvYRtXrGDK8+/2XcuPLTxhhK0+1atWMaDVJVqxYYYSV57777jPCKl3/SmeegEwuA5EvnsjdR7KiyMtPrKh4Hxfll59EbtdODY/p06dLy5YtvR8pCS2qCdysZrE0rFFHPln+gyM/v5nQBMGAEIjURFK7V0uWLAnEJFL6deJ3awMyThAjBYFIrZH+9a9/SfPmzct1mXc2lENChMMEcmKNFMZ3NjisZ9+ri/o7G3JiIvk+ihAg8gQi9dUu8tqig4ElwEQKrGoQLEwEmEhh0hayBpYAEymwqkGwMBFgIoVJW8gaWAJMpMCqBsHCRICJFCZtIWtgCTCRAqsaBAsTASZSmLSFrIElwEQKrGoQLEwEmEhh0hayBpYAEymwqkGwMBFgIoVJW8gaWAKc/g6sahAMAhCAQG4R4Jtdbumb3kIAAhAILAEMUmBVg2AQgAAEcosABim39E1vIQABCASWAAYpsKpBMAhAAAK5RQCDlFv6prcQgAAEAksAgxRY1SAYBCAAgdwigEHKLX3TWwhAAAKBJYBBCqxqEAwCEIBAbhHAIOWWvuktBCAAgcASwCB5pJpNpVs8aolmIAABJwms3rbByeqoy4YABskGjpNJE3+b4WR11AUBCHhEoHblmh61RDMYJMYABCAAAQgEggAGKRBqQAgIQAACECgAQXQIlJWVif6JTq/oCQQyI5CXlyf6J7OS5PabAAbJbw041P6OHTtk2so50mnCLQ7VSDUQCC+BJWcMlypVqmiGKby9yD3J2bKLiM7VyghjFBFl0o2sCZSWlmq7BVlXRAWeEsAgeYqbxiAAAQhAIBkBDFIyMgGK79+/vwwcODBAEiEKBCAAAecJcA/JeaaO1Xj55Zdrdc2cOVNWrFjhWL1UFE+gKL+ynNPwRC1y6tr5MnX13PgMDoYubtxZhs0fp9XYpnYzeaPd7fL+sm/kmsn/drAVqoJAOAmwQgqw3p555hk5/PDDZdKkSTJ//nxZunRpgKUNr2jVC4rk/lYDNEOhjNHynq8bnVF+9SnIyy8Xd8/h/crFqYhJnR/Xypjr0TOqdpRTaRcf2FmavHMBxkiHwzXnCWCQAjwEPvroIxk0aJAhYXFxseHH4zwBZWCUoag7uq9WudmgLD5zhBa3f9XaRsOXNOlq5FNl9HLHj7tGi9fDRgGTR6Vd+/0TWky/xl20dk3JeCGQkwTYsguw2k899VTp16+f7L333vLwww8HWNJoiHbrj0NFfXSjpIyG2SipXl7a5LRynW367oVGvsu+HSLvLv1ay6PKvrfsa+lW71ijzKqt6zV/cbV9ZHKXJ434+3/eafCMCDwQyEECebHjwmU52G/Puzx2+WTpUrdthdq99tprZd68efLee+8lLb99+3ap89bOb/ZJM5EAgRwhsKDri1KtWjWpVIlNoDCpnBVSCLT12GOPhUBKRIQABCCQHQG+PmTHj9IQgAAEIOAQAQySQyCDUE31/KIgiIEMEPCdgHqXHS58BNiyC5/OLCVWe+Xze7wkJSUlou4ncWvQEpMjke0/vV6+OOnRlHWNXjpReha3S5mPDM4RUIaooKBACgsLeY+dc1g9qwmD5BlqdxtSEzE/P1/7uNsSta/YskZq1KhhC6LeqN5a+s0/Pi/L+rxhm5dECEBgJwG27BgJEHCYgDJGuhFSV904OdwM1UEgcgQwSJFTKR3yk4DZGOlyYJR0ElwhYE8Ag2TPh1QIyIy1v8j3v8+2JNHwzXPi4vWVUVxkLJAsPjEfYQjkMgEMUi5rn76nRaDFXgfKXyY/Ied88fe4/Go1NL/Xq3FxBCAAgYoT4FBDxdlRMocIfN7lMXlr0QTjfpDV1lwO4aCrEHCFAAbJFaz+VKqOeusffySIdqs9io+Xbj2PlUajz5XFvV7Tjten6rE6go/zloA6cap/vG2Z1rIlwLvssiWYZvls3mWXThM7duyQaSvnSJv9D0onO3kgEFkCE1bOkKP2aCpVqlThWaSQaZl7SCFTWDJx1cqo04RbkiUTD4GcIfCn/VpIaWkpD4eHUOMYpBAqDZEhAAEIRJEABimKWqVPEIAABEJIAIMUQqUhMgQgAIEoEuCUXRS1GoA+zVq/WBoU7hsASRDBaQJfrvpZOjU4wulqqQ8CwgqJQeAKgRPGXudKvVTqP4ET9jnUfyGQIJIEMEiRVCudggAEIBA+Ahik8OkMibMkMPyVV8T8ybK6rIsrWXT30IMPSrOmTWTUqFF6FFcI5AwBDFLOqJqO6gTuvPMOOe/8842PildGQLnXXnvN8Ks4/aMlxv5T4cf++U+ZMX26FqWnq+dedKfH6eFJkyZp5Zo3a6pHxV2VPMqpcn+96SaZM3ee9OnTJy4PAQjkAgEMUi5omT6mJKCMgDIII14drhkEvYCK19P0uGuvu05atGyp5dfjDjl45xsyOnc6RY+Sp59+SvNfdOEF2lU9vKzeqJHMqXZ0d0rHk+Pq1+O5QiDKBDhlF3DtvvDCC3LbbbdJUVGRzJu3+w9WwMUOvHjK+OiudZs2MnXKFM3w/Pzzz5oh0I2Dnm/mrPI/P5FoqFR9v/zyi16t5ZsC1E/NX331VfLRhx8a+T748CPNP3Dg5TL+k0+MeF0GIwIPBCJOAIMUcAX/+uuvsnTpUk3KOXPmSLNmzQIucfDFs/tDf+ihhxorJKt8iXGpwopGYp5//evflpCefvoZy3giIZArBNiyC7imGzRoYEiIMTJQ4IEABCJIAIMUcKVu27YtlFt1q/q8KeoBSlz0CBz1yaDodYoeBYIAW3aBUENyIfr37588MeApPM0fcAVVULyfzvhPBUtSDAL2BFgh2fPxPfW+++4zZCgpKTH8eCAAAQhEjQAGKcAaPeKII+SWW26RRo0ayZgxY6SwsDDA0iIaBCAAgewIsGWXHT9XS6sTdp06dZIFCxa42g6VQwACEAgCAQxSELSQRAb9uHeSZKIhAAEIRIoAW3aRUiedgQAEIBBeAhik8OoOyR0kUFxcLOqjO7Nfj0t2TTevnm/Dhg1aW8OHD5dBgwZp/hUrViSrnngI5AwBDFLOqJqOpiIwZMiQOKOk8t96661GnDIovXr10qrRjUv9+vWNavU4FWH2Gxl2eWrWrKn5boq9SPXtt9+WE044Qfbff//EbIQhkHMEMEg5p3I6nIzA4sWLtdc0tYy9OFV3I0aMkEMOOUQLnnrqqfLdd9/J7Nm732uX7Dmxvn376lWUux599NFy/PHHa22p+4RffvmlPPXUzhexlstMBARyiEBe7A3EZTnUX9+6Onb5ZOlSt61r7W/fvl3qvNVX1BsScBDIdQIbN26UatWqiXqZLS48BNBWeHSFpBCAAAQiTQCDFGn10jkIQAAC4SGAQQqPrpAUAhCAQKQJYJAirV46BwEIQCA8BDBI4dGVraR5eXmyuNsrMmHlDNt8JEIg6gRavDdAe++jmhO4cBHglJ1H+nL7lJ3qhn5gUr961LWca6b+m31lyVmv2/Z72LyP5NapL6TMZ1sJiRUioBsi/VqhSijkCwHeZecLdnca1SegfnWnFWpVBOyOEx/1/kBpU3vnT80r4zW/16tSlF8ZcBCAQAoCbNmlAEQyBDIhUG9Ub3mp3d/k2eNu0Iot6/OGNB19vqgVEw4CELAnwArJng+pEMiIgDJAiW5J79dlxtpfEqMJQwACCQRYISUAIQgBKwJq5WPlksUn5m2x14GJUYQhAIEEAhikBCAEIWBFQK18zMZnQ8kfWthqRWRVnjgIQCA1AQxSakbkgIBGwGyUWr5ziWCMGBgQcJYAx76d5Zm0NrePfauj3uoFq9NXzZNOE25JKgcJEIgyger5RTKz6/NSuXJl7SQkJ07DpW0ONQRcX5dccon85z//0aScOnWqtG7d2lLiHTt2yP6jz9be9s0bvy0REZlDBDZt2iRVq1YVDFK4lM6WXcD1pRujo446KqkxCngXEA8CnhPg4XDPkTvSIAbJEYzuVrJlyxb5+uuv3W0kJLXv+4b1abdk4u8z6qxkScRDAAIBI4BBCphCEsW55pprpKioSPLz82XevHmJyTkXnn76sxn1+a5WF2WUn8wQgIB/BDBI/rFPq+XHH39cbr/9drn55pulSZMmaZXJxUz7Djijwt0uLi4W9dFdYliPd+qq6lf3Alu1aqW1q7e9bNkyLfzEE0+I+gl0Pd6pdqkHAkEngEEKsIaee+45UZ8GDRpI06ZNAyyp+6IdP/ZaUdtv+1etXa6xku2lct3pfcrFq4hBzbtr5R74aaRluh755ZdfSrdu3eTWW2+V1157TY/WjMK//vUvLawbiHPPPdcwFnrcb7/9ZsSdeOKJhl+lq/sZ27ZtM+JUZQ8++KBMmzZNli5dqtWtdKy7++67T5Q8p512mh7FFQI5QYBTdgFW86WXXir9+vWToUOHalKuXr1aatcu/wc5wF1wTLRJXR7T6lqxeXU5ozRx5nR55N2RcvWpvaVKYaFUKSg02n1i9jvayUMjIomnUaNGMmXKFO1zzz33xOUaNGiQEV6wYIHmP/vss4045alRo4YWXrNmjcyZMycuTZ30UseQrdyMGTt/LmTx4sWiVkjK6UZKGbNjjz2W+4dW4IiLJAEMUsDVetxxxxkSrly5MmcNkgHB4jduTjqsjXa8d4+q1YxsmXh0A6BfVVndr1/NcSNGjDCq19PVEWPl3nrrLe1ar1497aqnq4Du168qrkWLFka8KmNOM/tVXhwEok6ALbuAa7hXr15yww03iNomOvjggwMurfviPT37XctGfv/P+5bxT8VWSF45ZUDUc2Pq+t1333nVLO1AIDIEeFODR6rM9k0N6ui3Om2XzKm3NNR5q29a21PJ6iAeAlEhsHHjRqlWrZrt71ZFpa9R6gcrpABr88orrzSkszNGRiY8EIAABEJMAIMUYOU9+eSTaUunbpwv7vaKTFi58yZ52gXJCIGIEWjx3gApjB1u4bVB4VMsW3Ye6SzbLbt0xNRfl6Jf0ylDHghEjYBuiPRr1PoX5f5wyi5C2tUnoH6NUNfoCgQgkAME2LLLASXTRQhAAAJhIIBBCoOWkBECEIBADhDAIHmk5C5128rqbRs8ao1mIAABpwh8tvJHp6qinhQEONSQAhDJEIAABCDgDQFWSN5wphUIQAACEEhBAIOUAhDJEIAABCDgDQEMkjecaQUCEIAABFIQwCClAEQyBCAAAQh4QwCD5A1nWoEABCAAgRQEMEgpAJEMAQhAAALeEMAgecOZViAAAQhAIAUBDFIKQCRDAAIQgIA3BDBI3nCmFQhAAAIQSEGANzWkAEQyBCAAAQh4Q4AVkjecaQUCEIAABFIQwCClAEQyBCAAAQh4QwCD5A1nWoEABCAAgRQEMEgpAJEMAQhAAALeEMAgecOZViAAAQhAIAUBDFIKQCRDAAIQgIA3BDBI3nCmFQhAAAIQSEEAg5QCEMkQgAAEIOANAQySN5xpBQIQgAAEUhDAIKUARDIEIAABCHhDAIPkDWdagQAEIACBFAQwSCkAkQwBCEAAAt4QwCB5w5lWIAABCEAgBQEMUgpAJEMAAhCAgDcEMEjecKYVCEAAAhBIQQCDlAIQyRCAAAQg4A0BDJI3nGkFAhCAAARSEMAgpQBEMgQgAAEIeEMAg+QNZ1qBAAQgAIEUBApSpJPsIIEvV/0kG0s2O1gjVUEAAm4SaFS9jhy0RwM3m6BuEwEMkgmGm95xK76Xzvsf6WYT1A0BCLhAgLnrAtQkVbJllwSM09EYI6eJUh8EvCFQVlbmTUO0IhgkBgEEIAABCASCAAbJBzXs2LEjrlXC8DAPCMZDsMaDWTf43SWQF1uOsh51lzG1QwACISYwdvlk6VK3bYh7EB7RWSGFR1dICgEIQCDSBDBIkVYvnYMABCAQHgIYJB90xT2CYN0jQB/ow/xnIHE8mNPwu0uAe0ju8vWsdv1WIJPJM+Q0FEACeXl5on+cEo97SE6RTF0PD8amZhSKHMoglZSUSIfxN8rcTctCITNCQsBpAv0bdZZ7WvWTwsJCzTA5XT/1uUuALTt3+XpSuzJG27dvl+J3/owx8oQ4jQSVwAsLxknxmD8LOwVB1ZC9XBgkez6upCZOFifCyiDhIAABkbLYP/OcMvsVn0zDMPWOAAbJO9ZGS5UqxWN3Omw0hAcCEJBs5xcIvSMQ/5fRu3ZpCQIQgAAEIBBHAIMUh4MABCAAAQj4RQCD5AP5TPewM83vQ5doEgKBJZDp/EnMH9iORVAwDJIPSs1kT7u0tFRatWoVdyM2VXkfukSTEAgsgVTzJVV6YDsWQcEwSAFXakFBgUyfPl1WrVoVcEkRDwIQgEB2BHgwNjt+rpa+/PLL5dtvv5U2bdrI5s2bZcSIEa62l6uVX9y4s9H1YfPHGX6nPZ33byv7Fe0prywYr1X9n2NuiL1F+ig56L2LZVPpFqeboz4IhI4AKyQfVJa4R50s/Mwzz8iUKVPktttuizNGyfL70JVINHl/qwHSYb9WckbxcbK85+sy+NBzsupX270P0upJrOSSpqfKnYdfpEWrdtTzMvf/PELmnvGSTOn6TGJ2wg4RSDVfUqU7JAbVpEGAFVIakJzOkmrPOjF9wYIFot7G0LhxY02UxPTEsNPy5kJ9/b5+SOvmQXs0kM86PiIP/DxSmu9RXz7vOEQ2lm6WZu/uNCTnNjxJhhxxhZa37ui+2rXT/kfKS8fdLJ+unCp//vI+ebf93Vr8nDNeNMppEQn/DfhmiBbzxOwxCSkEnSSQOD8yDTspC3XZE2CFZM/H99ROnTppMrRv3953WaIswHmNTpYbDumjGaOxKyZLQV6+ZoyU0Xls1lsy+4xhWveVMVJxfSfeo62CahQUacZIxZ20X2sZ0PQ0OeOL27S8uhFLxk2tkvRPsjzEQyCXCLBCCri2P/74Y03CJUuWBFzScIt3yB4N5aLYvSS1jXbxVw/KqD/drnVIGYxEZ46bE9tuu/6HJ7Us+opJbdmlcnpelU83Sua4VOVJh0AUCbBC8kGrqfasE9MbNWok77//viFpYnpi2MiIJ20Ct/44VBq8fa7EfrxAK/O3qc9rV2Uk1Kf1h5dJpbyd00WFB0/bmf74rNHy6BFXann/3vJi7V5Uskbb73u4rN66Qdrt2yLuHtOSP35LVoR4Bwgkzo9Mww6IQBVpEmCFlCYoJ7Olu4e9YsUKOfLII2XOnDlSrVo1Q4RU5Y2MeDIm8MumFZqxUEZnQ+kfhuFo/M75sqNs5w/ZqRXNvI3LtbrVoYRrDupp5Lt9+jCjTXUPqUZBVc2g6auqo8cOMtL1OBWh2sO5QyDVfEmV7o5U1GpFgB/os6ISkLgtW7ZIkyZNZNKkSdKwYcOkUqkDD1u3bpX6756XNA8JEMglAsvPHKn9JpITfeYH+pygmF4dbNmlx8mXXEVFRTJjxgw5/vjjtasvQtAoBCAAAY8IsGXnEWhzM2oP27xNYBeuVauWLF68OGV+c/34IQCB3QTs5pfKlSp9d0343CbACsltwhb1m42RSnY6bNEkURDIWQLZzq+cBedDxzFIPkCnSQhAAAIQKE8Ag1SeCTEQgAAEIOADAQySD9DVnrXZOR02140fArlOINv5lev8vOw/BslL2rvaynZP26p8Xt7OBzp96A5NQiDQBKzmi1ngVOnmvPjdJYBBcpevZ7Xn5+d71hYNQSDIBC48oGO5g0JBlhfZdhPg2PduFqH1qdWRMkjqYcCSkpK4X5cNbacCKvgXv/0o6hVAqdy2HaVSuRLTKxUnJ9PVPFCrncLCQgySk2A9rIsZ4yFsvalUzz1UNF39uqwyTBUt77Z8Uah/wOQhsqjnyLg/eFa8m4/e+ZtKS856HX1k8NydGiNWPM3banbpyiipdPMWtl3+dNrTxy1X9wlgkNxnXK4F8+RSiU6F1STUvyWaG3Wqfr3OXK9PGX6zS+Qx8JtHjWSVlphOOP5OgdM8Erevs63fUCYe1wnEjwzXm6MBCESfwHtLvtI6uazPG1JvVO/od5geQsAhAhgkh0BSDQQUgfpv9JX7jhgQB+N/6xbGhQlAAALWBDBI1lxcjVV72mZHODo81E9UXHhgZ0O9apXUcdwNRlh50He49B2nPAKuEsAguYrXuvJs97QpHz9sg8JDbc/N7/VquXtGxdX2kcu+esQYDEGRVxcIeezHk86Jq/sE4u/Out8eLUAgsgRub3WhFOVXLte/705/Wn5au6BcPBEQgEA8gfivBvFphCAAgRgBu4MJDd/cebxbgRrYvHtSXoft1ShpGgkQgMBOAhgkH0YC9xDCdQ+hMK9AHv/fW8ZI0fWnDNWEUx/nnlDE74kaisfjOgEMkuuIyzfAnn38sAs6j4W9R8oDM141FGmW94Dq+5W7Z2ROV4UIh0vfifoyFI/HdQLxI8X15mgAAuEkcF7jU6TlO/0N4dXqSJ2gw0EAAs4RwCA5x5KaIkzgoSMHyu9b12s9/HbVzAj3lK5BwD8CGCQf2Ov3IPSmCYfjntLXpz2pqezMT2+NWx2hv3Dor6LzTS/H1X0CHPt2n3G5FhL3qJ0Il5WVae3ofxy3b98e1y7h7HkUF+2tMW1as56k4qkymvOY/YlphONZZcNDf5+jqkN32c4vvR6u7hPIi/0h2/mXzP22aMFFAsoQqZ+e6DD+Rpm7aZmLLVE1BIJLoH+jznJPq37aT1CY3/idjcRjl0+WLnXbZlMFZdMkwAopTVBBzqa+U6hv4PXfPU9+682N9iDrCtncJ7Bv7MDJil6vaT/F4n5rtOAkAe4hOUkzzbr0bTU9uxNhZZAwRjpRrrlMoEzK4p4Ny3Z+5TJLr/uOQfKaeKy9bPe0U5X3oUs0CYHAEkg1X1KlB7ZjERQMgxRBpdIlCEAAAmEkgEEKo9aQGQIQgEAECWCQfFBqtnvaqcr70CWahEBgCaSaL6nSA9uxCAqGQfJBqan2rLNN96FLNAmBwBJgPgVWNeUEwyCVQ0IEBCAAAQj4QQCD5Ad12oQABCAAgXIEeDC2HBL3I9SetXkbwYmw+1Jn3sIJY6+TWesXZ16QEoElMLB5N+1NCIEV0EKwbOeXRZVEuUQAg+QSWLtqzcZI5XM6bNe2V2n7jDpLFnUb7lVztOMhgf3e6CMre4/ysMXsmsp2fmXXOqUzIcCWXSa0yJs2AYxR2qhCl3FHWfzbvUPXAQQOLAEMUmBVg2AQgAAEcosABskHfad67iHbdB+6RJMQCCwB5lNgVVNOMAxSOSTuR2S7p52qvPs9oAUIhIdAqvmSKj08PQ2/pBik8OuQHkAAAhCIBAFO2UVCjXQiXQLDX3mlXNbzzj+/XJxXEUoec/tndDtd1q/fIJ9/8YVXItAOBAJDAIPkgyqyfS7CqrwP3Qhlk3feeYfsvffeUrt2bUN+s0EwIj3yKHlU+xs2bJAj2rSWe+65V77++mtp1rSJTJz4pdTZf3+PJIluM1bzxbxNlyo9umSC1zO27HzQiXkyqOadDvvQpVA1ecGFF8oHH35kfG6+6SbNAKhOKEOgXxcuXKiFX37pJS3u8ssvk6eeetLIM3fuXM3fpnUrLV39d8H552lxV155hRGn6lSfKVN+MOISPbf+3/9pUWefc448+s9/ypy58zBGiZAqGM52flWwWYpVgAAGqQLQKBJuAv989FHNQCgjcc7ZZ8s/HnxQ61CH9u2lcuXKRudO6XiyZhj+/ve7jLghjzwir73+upSWlkrXU7to6VdceaW2upn+44/a6kYZk2VLl2plVBsjX3tNy3fhBRcY9SR6Hnv8cSO/KqMMGw4CuUaALbtc0zj9leuuv14GDboqjoQyIsoQqKvudP8RRxwp115zjRatttdU+MILdt53UmV01/LwwzWvOe6/n34mJ590ohZfWFioZ7W86u2tWbNGjj6qrXzy8cdySqdOlnmJhEAUCbBC8kGras/a7JwOm+vGnx4BZURatGihGSW9xIP/+Ifm/eGH7+WSSy7R/HXq1NGud971d+2qjIj6fDnpq7iwCjz99FPSoEEDLV3lKSkp0fJY/df+T3+S88/7s5ZUq1Yt7frLgl+sshKXIYFs51eGzZE9CwIYpCzgVbRoJnvaBxxwgDRr1kyaNNn9TTxV+YrKlSvlzFt2yhANuKS/1vXRb4/Rrtu3b9euw4YNNQzU4a123ydSiY0bN5aaNWsaW3977LGHrF271girPAMHXiE3/fWvRpyuN9Xm+vXrjbpV3i8mTJBvvvnGyKviLr30MnXBZUlA565Xk2lYL8fVfQJ5ZTHnfjO0kA2BqVOnat/eCwqsd1iVCrdu3SpFRUXZNONo2T82b3G0Pq8rU0ZD30Lzuu2gt3fAe+fJqj5vBlZM9WLf5WeOlFRbpOl2YOzyydKlbtt0s5MvCwKskLKA51VRdU9BffvGeUcAY+Qda1qCgE4Ag6ST8PCayZ72IYccIip/u3btDAlTlTcy4oEABLT5Y8aQav4kppvL4neXgPUekLtt5nztmexhv/jii3L00UfLzJkzDW6pyhsZ8UAAAlk/5wdC7wiwQvKOdYVaUsZIueLi4gqV96vQptJw30PyixvtQiCXCWCQAq79Dh06aBIu3fWgZcDFNcQ75KOdx6SNCDyRITCgadfI9IWOBIsAW3Y+6EPtUZu33ezCasvOLl2JH8Q97yCfwvJB5ZFq8oE2A0LVn3Tmj918DFVnQy4sBskHBZoHv2reLtyoUaNyEtrlL5eZCAjkOIFU8yVVeo7j87T7bNl5ijvzxg4++GD59NNPtYdjMy9NCQhAAALhIYBBCriu9NN1zz33XMAlRTwIQAAC2RHAIGXHr0KlE+/5pAoPHz5cTjzxRKOtVPmNjHggAIFy91hTzZ/EdBB6RwCD5B1ro6VUe9Z6+s0336yVOT/2hunmzZunXd7IiAcCELC9R6vw6PNNR5UY1uO5uk8Ag+Q+4wq1MGbMGPlH7G3TF8R+Q0etjqZPn16heigEAQhAICwEMEgB1VSPHj1k2LBholZHyqm3S+MgAAEIRJkAx7590K7aozZvCyQLX3zxxZp0Kt38YKxVfh+6QZMQCAUBq/mSzvwLReciJiQrJB8Uap4Mqnmnwz50iSYhEFgC2c6vwHYsgoJhkCKoVLoEAQhAIIwEMEhh1BoyQwACEIggAQySD0pVe9pm53TYXDf+9AiodwbqrqSkRMxhPd7qmm4+Vdac97777tPe4D5y5EiraolzkEC288tBUagqBQF+wjwFoDAkB/EnzMPAzSyj+nmPzp07y9ChQ7VoFTYfJDHnNfvTzafK6HnVNT8/X55//nnp16+fVl06bZnbxZ+cAD9hnpxN0FNYIQVdQ8jnGYFx48ZZtqUMiPqYnVVc3759tXx33HGHOaulf9GiRZoBVIYIY2SJiMgcJIBBykGl02VrAjNmzLA0PEuWLJFffvnFSFPGaMCAAXGGpH379qLyKeOiVj6bN2+2biQWq350UTdoiYYuaSESIJADBDBIPig52z3tVOV96FIkmqxVq5bWj2+++SauP3l5eVK5cuW4uLvuuisuPG/ePFm4cKFhtFq2bBmXbg6MHj1aM1zKeB144IFGGXMe/M4RSDVfUqU7Jwk1pSKAQUpFyIX0bJ+LSFXeBZFzpkplJHr16lWh/jZt2lQzNGqlNXfu3Lg6XnnlFSNsXhW98847Rjwedwikmi+p0t2RilqtCPCmBisqxOU0gb/85S8yZMgQjcGHH35orGD0U3KTJ0824nRQypDp23AqTg+rdxDqqyX1u1bKdenSJa68youDAAREOGUXgVHAKbsIKJEuOEaAU3aOofS8IrbsPEcuWf8+C3vePiiNJkNLINV8SZUe2o6HUHAMkg9KS7VnnW26D12iSQgElgDzKbCqKScYBqkcEiIgAAEIQMAPAhgkP6jTJgQgAAEIlCOAQSqHxP2IVHvW2aa73wNagEB4CDCfwqMrDJIPusp2TztVeR+6RJMQCCyBVPMlVXpgOxZBwTBIEVQqXYIABCAQRgIYpDBqDZkhAAEIRJAABskHpWa7p21VXr1vbVPpFh96Q5MQCDYBq/liljhVujkvfncJYJDc5WtZe6o964qkq9/XaTj6PMv2iIRALhG48ICOYp5DZr/ikGk4l9j53VdeHeS3BhxqX70+qLS0VNSvnSZ+43OoCaqJEfjitx+l/b6Hp2SxbUepVK7EqyJTgnIwg9olUMamsLBQ+wFEFXbCjV0+WbrUbetEVdSRggAzJgWgsCSryVdQUKBNxLDIHEY5B0weIkvOej2l6M3f7KvlSSdvysrIkDYB3Qjp17QLkjEQBDBIPqhBrWDM2wZOhdUkVB+n6tPRUF+8vhQXO/1dOulhHZ2WD37x/LzgYTZI2bZnKBOP6wS4h+Q64vINmP+YqVTC8cMw7DzeX/q1pvRlfd6QeqN6o9/YNprZhU2/Ztnxu0sgfqS42xa1QyDyBOq/0VfuO2JAXD//t25hXJgABCBgTQCDZM2FWAhUiMCOsh1ycZNTjbJqldRx3A1GGA8EIJCcAAYpORvXUtSettkRjgYPtT03v9er5U451qu6t1z21SOGytF3uPRtKA6P6wQ41OA64vINhG0PHXnjv7cl43F7qwulKL9yOYVP7vaM/LR2gRGfrLyegfT0eHvFS2+Hq/sE4jXvfnu0AIHQEVArn2Su4ZvnGEkDm3c3/Imew/ZqlBhFGAIQSCCAQUoAQhACiQQqVyqUx//3VmK0doJuwqmPl4snAgIQqBgBDFLFuGVVinsI4bqHML/ncHlgxquGzs36O6D6fuXuGZnTVSHC4dJ3or4MxeNxnQAGyXXE5RvgHkH8sAsDj/ManyIt3+mvKVPJq7bx1Ak65cIgvyborv+QN7PxZ2aH310C8Zpxty1qh0BoCTx05ED5fet6Tf5vV80MbT8QHAJBJoBBCrJ2kC1QBL4+7UlNnjM/vdVYHQVKQISBQMgJcOzbBwWqPWrztokTYf3dXaouJ+pzWr4o1FdctLc2WprWrCfbt283Ro4Vb5Wo57FKjwIPHUCQ+qfmgXrzvfo5Ft1lK59eD1f3CfDzE+4z9qQFNenUT090GH+jzN20zJM2aQQCQSPQv1FnuadVP+0nKPQvadnKyM9PZEsw/fKskNJn5UvO66+/Xrp37y5PPvmkjBo1ylIG9Y1QfRuv/+558lvvnTfaLTMSCYEcILBv7MDJil6vxa2ScqDbkegi95ACrsZHH31Uk/D555+3lVQZJIyRLSISc4RAmZSVO2qfI10PfTcxSD6oUG2vmZ1d+N5775Vrr71W5syZYxSxy29kwgMBCGgEUs2XVOlg9I4ABsk71kZL5hvaKtIu/N1338nnn38uc+fOTbu8kREPBCBgO78UHrv5Bz5vCXAPyVveGbf29ttvyx133CF//etfMy4b5QJTVs+VkQs/lalr5sv8Dctle+xnH/avWksO3bOhnH9gRzmxTqsod5++QSCSBDBIAVfr5s2b5a677pKFCxdKjRo1Ai6tu+J1/e8t8laHO6Vq7I3abWo31T52Lc7dsEw++3WaDGja1S4baRCAQEAIYJB8UITaszZvE9iFmzZtqkm43377yZQpUzS/VX4fuuF5k9/9PkszRnrDczYsFRW3YvNq+WP7NtmzsJq0qtVY/rRfS8mL/VPPCx370dUYJB1Yjl6t5ku68y9HkfnWbQySD+jNk0E1bxdeunSpHHXUUXFHvu3y+9Ad35psVrNY1AcHATsCqeZLqnS7uklzlgCHGpzl6Upt6mDDggULXKk71ytdvny5vPjii3EYVNh8iCQu0YGAql99vv3227ja9Hh1Xb16dVwaAQjkAgEMUsC1fOCBB8p7770ngwcPDrik/om39yWnS+3+p1VIgHnz5sktt9wiAwYM0Mo/8sgjWnjy5MkVqi+dQqq9p59+Wnr27CnFxcUyadIkrZiK37hxo6xbt05atmyppaVTH3kgEBUCbNn5oMlM9rR/+eUX7SG/OnXqGJJalTcSc8yzaesWWfjEG1JUWFmWr/1d6u61831zmWBQWzYffvihVmTIkCHSsGFDo/jKlSulTZs2UrVqVWPVpIzIVVddJf/+979l/vz5UqVKFS2/itffpaa2WpXr37+/jB07Vq677rq4k5JfffWVlq5WvieccILo+QcNGqTFn3LKKdKpUyfNz3/ZEbCaL+ZtulTp2bVO6UwIYJAyoeVQXvNkUFUmCz/33HNxLap7SXb54zJHLLDPqLNkVZ83y/WqwRW9ZPULH2jxh/3lAsOvZ5zR7TlJVlbPo/4gmZ0yQrpTxkgZiyuvvFJbseiGo3bt2vLYY49J48aNtXRljN5//31p3bq1sbK59dZbNWOkyqh0ZYTeeiv+l2cbNWqkN6VdVT7d6W3pYa4VI5Bsfum1pUrX83F1nwBbdu4zrnALl156qfatfNiwYXLnnXdWuJ4oFFTGSBkWO1e7xh7lklu8d6mlIUvMaH4Rpzpqr9zll18uhx12mOZX7xI0O5XWu3dvc5RmjMwRQ4cONVY+yrh888035mRLv8qnf8zGyTIzkRCIGAEMUsAV+o9//EP7dv3qq7t/QjvgIvsm3uqNO39AryICzJo1S+P8xRdfGMXvvvtu+emnn4xwKs/pp58uU6dONbIVFRWJ2npT7pJLLim3ElbxGB1FAQeBnQTYsvNhJKTaszanjxkzRkaOHCk9evSQDh06aNKa01VE4paTD13yrUm1XacfaNC37ioiTPXq1bViTZo0MYqrZ7+UwdCNht0Wmkq76KKLNF3pFagDE8nK63Xuvffe8uOPP+pFjLZUxLvvvmvE46k4Aav5Yt6mS5Ve8ZYpmSkBDFKmxBzIb54Mqjq7sDJEyqnXB+nOLr+eJ5eu2Riidu3axW2rKW5mw5N4NDsxXc+rDIz6UTj9UILOX0/Xw4nl04k358GfOYFU8yVVeuYtUqKiBDBIFSXncbm2bdt63CLNZULAbHhuvvnmTIqSFwIQ2EUAgxTwoXDwwQdrW0EbNmyQ++67L+DSBk+8w2OvEsJBAALhIIBB8kFPqfaszekzZ86UAw44QGbMmGFIak5XkSqcC06dtNsRe6t3vbfOkdId27Uu165SU5rXrC97V9lD1pf8EXv79zzZELsqt6jXq/LfUx7S/PyXuwSs5ot5my5Veu6S877nGCTvmdveM1LimCeLCi9atEhdDJeYnhg2MkbQUymvkqw46/UI9owuuUUgcX5kGnZLLuotT4Bj3+WZBCZG3SifPXu2qOPHf/yx81t/YIRDEAhAAAIOE8AgOQzUyerUjfLmzZvLbbfdxrvsnARLXRCAQCAJYJB8UEviPZ90wocffrghqVV+9aaBTaVbjDx4IACBnQSs5ouZTap0c1787hLAILnL17L2TPewVX79bdSqQqvy6hmYhqPPs2yPSAjkEoELD+gYN0es5ouZR6p0c1787hLIK4s5d5ugdi8IKDWWlpZKSUlJzpy684IrbYSHgNolUMalsLBQe0jZ/H7CbHoxdvlk6VKX5wCzYZhuWU7ZpUsq4PnU5CsoKNAmYsBFRTwIuEZAN0L61bWGqNgVAhgkV7DaV6r2rM3bBE6F1SRUH6fq03tBfe7oC747CbgxvswGKdv6dT1xdZ8AW3buM6YFCEAgxATYsvNOeRxq8I41LUEAAhCAgA0BDJINHJIgAAEIQMA7Ahgk71gbLak9bbMjDA/Gw24CQZsPuyXD5zYB7iG5TZj6IQCBUBPgHpJ36mOF5BHr7bG3VOMgAAEIQCA5AQxScjaOpnyy4gdH66MyCEDAGwIHVN/Pm4ZoRdiyYxBAAAIQgEAgCLBCCoQaEAICEIAABDBIjAEIQAACEAgEAQxSINSAEBCAAAQggEFiDEAAAhCAQCAIYJACoQaEgAAEIAABDBJjAAIQgAAEAkEAgxQINab4VJIAAEAASURBVCAEBCAAAQhgkBgDEIAABCAQCAIYpECoASEgAAEIQACDxBiAAAQgAIFAEMAgBUINCAEBCEAAAhgkxgAEIAABCASCAAYpEGpACAhAAAIQwCAxBiAAAQhAIBAEMEiBUANCQAACEIAABokxAAEIQAACgSCAQQqEGhACAhCAAAQwSIwBCEAAAhAIBAEMUiDUgBAQgAAEIJBXFnNggAAEIAABCEAAAhCAAAQgAAERduwYBRCAAAQgAAEIQAACEIAABHYRYIHEUIAABCAAAQhAAAIQgAAEILCLAAskhgIEIAABCEAAAhCAAAQgAIFdBFggMRQgAAEIQAACEIAABCAAAQjsIsACiaEAAQhAAAIQgAAEIAABCEBgFwEWSAwFCEAAAhCAAAQgAAEIQAACuwiwQGIoQAACEIAABCAAAQhAAAIQ2EWABRJDAQIQgAAEIAABCEAAAhCAwC4CLJAYChCAAAQgAAEIQAACEIAABHYRYIHEUIAABCAAAQhAAAIQgAAEILCLAAskhgIEIAABCEAAAhCAAAQgAIFdBFggMRQgAAEIQAACEIAABCAAAQjsIsACiaEAAQhAAAIQgAAEIAABCEBgFwEWSAwFCEAAAhCAAAQgAAEIQAACuwiwQGIoQAACEIAABCAAAQhAAAIQ2EWABRJDAQIQgAAEIAABCEAAAhCAwC4CLJAYChCAAAQgAAEIQAACEIAABHYRYIHEUIAABCAAAQhAAAIQgAAEILCLAAskhgIEIAABCEAAAhCAAAQgAIFdBFggMRQiR2Dy6tkybsX3sq5kU+T6RocgAAEIQAACQSCwvWyH/LxuoYxdPlnKYv9wEIgSgbyymItSh+hLbhP4ctVP0mLPRrJnYfXcBkHvIQABCEAAAh4RUIukLnXbetQazUDAfQLcQXKfMS14SGBjyWYWRx7ypikIQAACEIAABCAQNQIskKKmUfpjS2DHjh2k2xCAD+PDZngI44PxwfhITiDX50dyMqRAIHwEWCCFT2dInAWBSpXshzzp8LEbXowPxgfjIzkB5kduz4/kI4MUCISPgP1sDl9/kBgCEIAABCAAAQhAAAIQgECFCbBAqjA6CkIAAhCAAAQgAAEIQAACUSPAAilqGqU/tgRy/Yw4/ecZErsJwvhgfDA+khNgftjPj+TkSIFA+AgUhE9kJIZAxQmE6Yy81Rv48/LyxCpeJ0I6fBgfyX+5gvnB/Ajr/FBjN+j2S7dDXCEQBQIskKKgRfoQGQK68VZX9VE7luqjx0emo3QEAhCAAARsCahFkb4w0q+qgPLjIAABdwmwQHKXL7VDIG0C+iJILYhKS0ulz8S7ZdLq/6VdnowQgAAEIBBNAvO6DpVqVapKfn6+1kEWSdHUM70KDgGeQQqOLpDEAwJBP0OuFkbq02H8jSyOPBgPNAEBCEAgDASafNhPtm7davtbZH7btzBwREYIpEuABVK6pMgXCQJBP8Ot5FN3kuZuWhYJ3nQCAhCAAAScI6Dsg37aILFWv+1bojyEIRBmAiyQwqw9ZIcABCAAAQhAAAIQgAAEHCXAAslRnFQGAQhAAAIQgAAEIAABCISZAAukMGsP2TMm4PcZ7Wzbz7jDFIAABCAAgUgQyNZ+uF0+EpDpBAR2EWCBxFDIKQJ+n9HOtv2cUhadhQAEIAABg0C29sPt8oageCAQAQIskCKgRLrgH4G1a9fKiSeeGCdA8+bN48IEIAABCEAAAhCAAATCQ4AFUnh0haQBJDBlyhQZPXp0nGRXXXVV0rcMxWUkAAEIQAACEIAABCAQOAL8UGzgVIJAbhJQZ7Dtjhlkmn7SSSfFiavKX3PNNXFx5kA69Zvz44eAFwT2rrKHzDjt+aRNTfjtR+k78Z6k6V4ktN37IHm3/d1aU3VH903Z5GvtbpX2+x4um7ZvkabvXGjkX9bzNcmL/bNyszcskQ6f/MUqiTgI+E5A2Q87l459cdL+2clCGgTCToAFUtg1iPwZEbAzDqqiiqQXFxfL888/L0VFRdpxu/r168uSJUss5Uqn/u3bt1uWJRICXhBIXHzoC43lPV+XxDQv5HGyDdUH5R6eOUoe+d+ouKofbjNQzmt0shRWKpCSHaVxaQQgEAQC6dgPOzndLm/XNmkQCBsBFkhh0xjyBorArbfeKkuXLtVk+vTTTyUvL0/efvtt2bhxo9SoUSNQsiIMBCpCYOHGlSL7xpccfOg5cu1BveIjd4VafDBAft+6Xgud2/AkGXLEFZp/e9kOWb1tg+xbZU8t/PnKaXLOl/dqfn0RpgUS/lOLskmdH5cDq+9vpKiFzsbSzdLs3YuMuEw8Nx7cR9Rn4qoZ8tycD2Tcisly45SntU8m9ZAXAhCAAASiSYAFUjT1Sq88InDPPfdozxtdeeWVMmnSJOnbt6/83//9n0et0wwEnCeg32Ux1/zh8m+l/9cPa1G3HHquXH1QT81/0VcPmrPJi8fdpB3V0+80jVj4qaiPOtJ2/oEd5ZLGXY0FUof9Wmllhx//N+0o3JexxUrvCX836lMLqd+2rtPCx4+7RjI9YmdUZPLocp3VoJ3c2fJiabdPC+1jyiLX//CkjFz4mTkKPwQgAAEI5BgBFkg5pvBc765TZ7S/+OILueuuu2TmzJny5z//WR566CHtjpETZ8RzXUf0318C+iKiTtFeMrXrs5owQ+eNM4Tatuv42bqSTdqdFyMh5tHL6nH6YmvRHytl8NTn5cTxN0jdqrXlh1Of1rNI85r1Nf+Pa34x4pRHXxzFRWYQqJFf1TJ39YIieXPxRO1jznDDITvvKj16xJUskMxg8AeGgBP2xe6YXbb2MTCgEAQCDhBggeQARKoIDwE746B6kW56+/btZfz48XEd/9e//iUPPvigNGnSRD777LO4ND2QTv08g6TT4uongV+3rJUD3zlffun+irwee+HBnTNekmfmvKc9v3Nl8x6yZ2F1UQugLTu2yfQ18+WovQ82xG005jzZuqPECC//43epHHu254Vjb5SudY824pXnqLGDtHquaHaGDGzWTYbNHycn12ktDavX0fK1jB3ZWxU7svdbTB7dPXfMXyQ/r5KoY3vd6h2rRavFmb4g0/Op640/7FyMNatZLF+c8qg5SZZvXi3rYwu9g/ZoYMT/e/YYw48HAkEikI79sJPX7fJ2bZMGgbARyCuLubAJjbwQSEZg7PLJ0qVu22TJjsWrFzM0btxYJkyY4FidaiqqHbySkhKp/+55jtVLRRBwi4B6ocGZ9Y+XKpUK5ZMVP8iKLWssm1LH6dSC6etVP1um65HqbXrnNeooM9YukP/+OkWPjrtWii2M9osdv7NqS839I2s1k8Wbf5PXYsfk9LtdcRXEAkru82PtHLbngbLoj1/lq1X/k+9+n5mYjTAEAkVgQdcXpUqVKpKfn59yM89rwb2yvV73i/ZylwALpNzVfSR77ucf6XHjxsltt90m69at047eZQqYBVKmxMgPAQhAIHcIsEDKHV3TU/8J8EOx/usACTwkkM4Zbjtx9PJvvPGGtGzZUtSdpDvuuEO769O5c2f56quvbBdHevlkbaRKT1aOeAhAAAIQiDaBVPbB7/Ro06d3uUaAZ5ByTeM53l+nzmD37t1b1CfROVE/zyAlUiUMAQhAAAJO2Bc7itnWb1c3aRAIGwHuIIVNY8gLAQhAAAIQgAAEIAABCLhGgAWSa2ipGAIQgAAEIAABCEAAAhAIGwEWSGHTGPJmRcDvM9rZtp9V5ykMAQhAAAKhJZCt/XC7fGjBIjgELAiwQLKAQlR0CWR7xtrv8tHVDD2DAAQgAAE7Aur13nYO+2RHhzQIZEaABVJmvMgNAVcJ5OXlab9v0b9RZ1fboXIIQAACEAgXAbUAUjZCfXAQgIC7BFggucuX2iGQNgHd8Kldwnta9ZN5XYdKzBSmXZ6MEIAABCAQPQIXHtBRlpwxXAoLCwP3A7HRo02PILCTAK/5ZiTkFAF1BtvuGILf6erHYpV86lNQUCArer0mKk59lPNbPtoP9vgJon4avn2uNnYXnjnCkfF74DvnafUNPfYmOXn/Nppf/y+I/ddlU1fkY/5kan/0jTN1VXZAD5vHle73e3zpcnCFQBQIsECKghbpQ9oE7IyTqiRI6coQ4iAQFQJq9ztbV2/U7t8e6/f1g3LFQT3ktsMvyLZaykMgEgT8tl+RgEgnILCLAEfsGAoQgAAEIBB4AubFkRK2de2m8tSsMXLa+MGBlx0BIQABCEAgXARYIIVLX0gLAQhAIKcI/LZlreiLo2V93jD6/kHHB7Q7SFNXz5Vmo7mLZIDBAwEIQAACWRNggZQ1QioIEwF1RtvOkQ4fxkdyAl7Pj/HLf5BW7w7QBFKLo8T21fG6l9vdIptKN2uLqMT0xJ6QzvxOHBPmMOMju/FhZokfAmEnwAIp7BpE/owI+H1Gm/bt/+TABz76hL77x5flgon3SfWCqqLfObIaHx3rHiHTznheK1b/zb56ccurVXlzRtIZf+bxkOhnfNiPj0RehCEQZgKM9jBrD9khAAEIRJDA07Pf0Z4vUs8Zzen5csoe7lu0l7GI0o/jpSxEBghAAAIQgEASArzFLgkYoiEAAQhAwB8CA5t3F/XJ1Ol3mjItR34IQAACEICAmQB3kMw08EeeAGfMsztjDj/4Wf2RmLZmnvYMUKq7N+bx89aiCeXKmNOt2iGd8Wc1LvQ4xoe/40PXA1cIRIEAC6QoaJE+pE2AM+T2Ux4+8LGbTMnGR6taTWTWmS9pRe0WSXr5v37/tFz1zWOyd5U9jKNxqrCenkwG0hmfycYG48f/+WOnG9IgEDYC9n9tw9Yb5IUABCAAAV8I1CysZix21CJpe5n1bnaHsdfK8PmfSPs6h8v07i/4IiuNQgACEIAABOwIsECyo0MaBCAAAQhkREB/DqjBG31l0aaVcWUbvXmuzFm/VAa3+LOMbH97XBoBCEAAAhCAQFAIsEAKiiaQwxMCnFG33tXX4cMHPvpYsLqmOz70RdKxH1xpVKPuKm3bUSJvn3SPXHNILyPe7Em3fnMZs5/yjF/zeEj0Mz7cHR+JvAlDIMwEeItdmLWH7BkTCNMzDGVlZeX6l5eXJ1bxekbS4ROU8bG09yhp+U5/Wb1tgz48ZWaPF0UdxUsmYzrjV6/Mqo50yluV0+ukPPMnqONDjc2g2y99HnGFQBQIsECKghbpQ2QI6MZZXdVH7Xiqjx4fmY7SkZwgMLnLU3LZt0Pkk19/kPlnvCIS28DeunVrVn2vU1RLft2yJut6shKCwhDwgIBaFOkLI/2qmlV+HAQg4C4BFkju8qV2CKRNQF8EqQVRaWmp9Jl4t3y1ZqaMPfl+OaJ2s7TrISMEgkTgpfa3OCrOlDOec7Q+KoNAUAlsKt0it00bKi/N/1jmdR0q1apUlfz8fE1cFklB1RpyRYUAzyBFRZP0Iy0CQT+DrhZG6tNh/I1yZ5uL5Lfeb7A4SkuzZIIABCAQLQLVC4pkyJEDZVWfN6XJh/20u6Z2NswuTZFxOz1a9OlNrhNggZTrIyDH+h/0M9xKPnUnae6mZSyMcmxs0l0IQAACqQgo+6CfNkjM67d9S5SHMATCTIAFUpi1h+wQgAAEIAABCEAAAhCAgKMEWCA5ipPKIAABCEAAAhCAAAQgAIEwE2CBFGbtIXvGBNw+g+12/Rl3mAIQgAAEIBAJAm7bl2zrjwRkOgGBXQRYIDEUcoqA32e0s20/p5RFZyEAAQhAwCCQrf1wu7whKB4IRIAAC6QIKJEuQAACEIAABCAAAQhAAALOEGCB5AxHaoEABCAAAQhAAAIQgAAEIkCABVIElEgX0ieQ7Rlrv8un31NyQgACEIBAlAj4bX9StR8l1vQFAgUggEAuEXD7DLYT9W/fvj2XVJJxX3t9fqd8sXK6vHPCXdK6VtOMy1MAAhDwhsCm0i1y98+vyKuLPpXlZ70mhZX4ypENeSfsi1372dZvVzdpEAgbAe4ghU1jyAuBHCZwwtjr5MZmvWVRt+EsjnJ4HND1cBCoXlAkDxw+QJuvdd88OxxCIyUEIACBGAEWSAwDCEAgNARmrV/Mwig02kJQCEAAAhCAQDgJsEAKp96QuoIEUp2hDnp6BbtNMQhAAAIQCDkB7FPIFYj4oSLAAilU6kLYbAlke8ba7/LZ9p/yEIAABCAQTgJ+259U7YeTKlJDwJoACyRrLsRCAAIQgAAEIAABCEAAAjlIgAVSDiqdLkMAAhCAAAQgAAEIQAAC1gR456Y1F2IjSkCd4bY7JhCE9Iiip1s+EWjWtEnKlufMnZcyT1Qz6HzMDF4bOVJuvfX/knb540/GS6NGjZKmkwABNwik8wySn/bNjT5TJwT8IsACyS/ytOsLATvjoQQKQjq/g+TL0Ih8o9ddf70MGnRV5PuZbQf/+eij8sQT/9aqMS+aVERZWZk0b9ZUXnrpRbn99juybYryEMiIQBDsU0YCkxkCISbAAinEykN0CEAAAukSWLlypfz000/lslevXt24G6LfTTn22GPl5VeGix6+9dbb5KKLL9bK6nHlKopF9OnTR+67/wEt6fLLL5P/jh8vdevWk+XLl2lxo0e/LS1atpRHhwyRJ598wqoK+ebb76R27dpamrmtwsJCKSkpMcroi5cXXviP3H/ffVp8lSpVZOvWrUae00/vJv987DEjnI7nxBNPNBZIqv2ioiLp3/8Srf9KLr3ddOoiDwQgAAEIhJMAC6Rw6g2pIQABCGREYPRbb8nYjz4qV6ZV69byzDPPavHqy7++sNEXJzNnzZb8/Pxy5b6b/L3stddeRrzKP2rUKDnssBZy3vnnG/FqcWReVDzy8MPy9NNPael6u3pm1fYxRx+l5f/++8l6tBx11NFyzbXXilq4JTp9caTiVZ6zzz5H9txzz8RsaYdbt2mjtf/HH3/I7bfdJmPGvK0t5hIXdOY+pV05GSEAAQhAIBQEWCCFQk0I6RSBIDxjZHdMItUZc6c4UE/uEbh84MC0jtgtXLAgDs769eulVq1acXEqYF4cqbC6E7Vp0yaZMmVK3ALp+r/8RSUbrnLlyppfLWJO7tjRiFce86LjyCPbauHVq1fL3X//u1x04QVinh+fjP+vNGzY0Cjzyssvy8svvyQPPfigUaeaa7NmzzHC6XrGf/KJdDzlFHn4kUe0j7mcvnC8dMAl8tzz/zEn4YeAqwTM49+qIb/tm5VMxEEgrAR4i11YNYfcFSJgtzhRFWaaPnPmTJk3b/cD7pmWT+xEqvKJ+QlDIF0C6tka9eXe6tOnT2+tGpWmxvMpnToZC4+jj2orD9x/f7lmVN4Tjj9Orr/uOq1OtThSTi0qzC4vL88clKuvuUY7trZu3TqtXMsWh8nZffvGyaWOyX3++edaXMeTT5ILYoujb7+bbBzzUxXWqVNHq/fII9po+ZYtWxZbIL0ib789RvQ29cXY1VdfZdSvFnxmBnHCxQKqvoEDLzfyqGeOFJ/WrQ7X4vT8LI50Ely9IpDKPvid7hUH2oGAFwTyYg+dlnnREG1AwAsCY5dPli5123rRlONtqKmodgDVcxb13z1PVvV50/E2wl7hPqPOkkXdhoe9G6GWXy0ulFN3e36aMUM+id1tOSZ29M3q+Fuqjqqx/v7778WeG9omJ8We/dlv16LHXE7lUXd0Zs+eLSe0O0HUnSUrNzV252rq1KlSo2ZNOfnkk43nmBLzqjn2n/88L9u2bZPWrdvICSeckJjFCH/55Zfy3bffypq1a2J5W8uZZ/Y0Fl9GJjxpETjgPf6mpQUqSSb1t29B1xdFPWenjrymWgwlqca16DDbXtegUHGoCXDELtTqQ/ggEDjssMNk4sSJ2pezk046SQ466CCZNWtWEERDBgi4SuCwFi1EfSrq1IsX1KLDzqk8p3btqn3s8qlnh9QnlVNfLC+99LJU2bR0tXiyW0ClVQmZIAABCEAgdARYIIVOZQicDQGnz2jfHzt6ZH4zmKr/6aefltLSUikoKD+90mk/m/5RFgJuEzA/J+R2W9QPAQjsJqDsh51Lx77Y3XnKtrydbKRBIGwEyn+DC1sPkBcCGRCwMw6qmkzT//a3v2mtv/LKK/LVV19px2/UXaRkLp36+R2kZPSIhwAEIJC7BNKxH3Z03C5v1zZpEAgbAV7SEDaNIW/gCPzyyy/yWOy3VjZu3Cjt2rULnHwIBAEIQAACEIAABCCQPgEWSOmzIicELAkceOCBsR+WfEKmTZsmvXv3llWrVlnmIzJ7AgObd5PBPz6ffUXUAAEIQAACEIAABJIQ4IhdEjBER5NAtmesE8sPHjxYHnjgATn66KO1lzQkpidSTCc9sQzh3QTuadVPSnaUSvFb58qOMvvz+LtL4YMABPwkMKBpV97K6YAClP2wc+nYF7tjdtmWt5ONNAiEjQALpLBpDHmzImBnHFTFmaYffPDB2o9Vqpcy1Iy9Xlh36veRrFw69fMMkhW53XGFlQpkZe9RuyPwQQACEMgBAunYDzsMbpe3a5s0CISNAAuksGkMeQNF4OKLLxb1efLJJ7XXARcXF0utWrUCJSPCQAACEIAABCAAAQikT4BnkNJnRU4IlCOgjtcpd+WVV8rq1atln332kd9//13mzp1bLi8REIAABCAAAQhAAALBJ8ACKfg6QkIHCaRzhtuuucTy6hmkFrEfytyyZYtWTL2oQb3JrmnTppbVJJZPzJQqPTE/YQhAAAIQyA0CqeyD3+m5oQV6mSsEOGKXK5qmnxoBJ89gq0VRUVGRzJgxQ6t73bp1ogzU7Nmzk9JOp32eQUqKjwQIQAACOUsgHfthB8ft8nZtkwaBsBHgDlLYNIa8vhNYs2aNPPLII9riSAmzfPlyef755+XMM8+Ujh07yrBhw3jVt+9aQgAIQAACEIAABCBQMQLcQaoYN0rlMAF15+i4444zCLRt21aWLl1qhNWRuwULFmjPIxmReCAAAQhAAAIQgAAEQkGABVIo1ISQThFQR+Dsjhmkk163bl1Rn8WLF0uDBg3iFkennnqqfPjhh5KXl2cpcjr1WxYkEgIQgAAEcpqAsh92Lh37kq39sytvJxtpEAgbAY7YhU1jyJsVgVR/3DNJV4ujRPfRRx8lXRypvJnUn1g3YQhAAAIQyF0C2doPt8vnrmboeRQJsECKolbpEwQgAAEIQAACEIAABCBQIQIskCqEjUIQgAAEIAABCEAAAhCAQBQJsECKolbpU1IC6ZzhTlo4luB3eTvZSIMABCAAgegS8Nv+pGo/uuTpWS4S4CUNuaj1HO6z22ewnaif30HK4QHqc9eLi4sNCcxvZtQj9XSrND1Pplev6hw+fLjcdNNNScWbOHGiHHjggUnTSYCA3wScsC92fci2fru6SYNA2AhwBylsGkNeCEAAAh4QUAuXjRs3etCS+0089NBDxuJILe7MnyVLlmgCvPDCC+4LQgsQgAAEIBAKAiyQQqEmhIQABCDgHYEnn3xSexvjQQcdJMpv5xo2bChqMZX4SXzLo/px5cQ8KmzlzPkaN25slFOv0a+IUz/grDtVd9OmTeXBBx+U1atXa/1UC6a7775bz8IVAhCAAARynAALpBwfALnW/VRnqIOenmv6or/+EFi3bp2oOysnnHCC3HvvvdKqVStLQdRio7S0VD7//PO4uzLqOJuaS/oC6Ouvv5YhQ4ZodZjv3vz3v/8tV69e5plnnpFhw4aJflUyTJ8+Xc4999xyZVJFHHHEEZp8c+bMkbPOOks2b94sjz32mLRs2dJYfOntpqqLdAj4RQD75Bd52s1FAjyDlItaz+E+Z3vG2ovyPIOUwwM0IF1XCyTlXn/9dZk0aZL06dPHWOxYidioUaO46BNPPDEurJ7vUa5KlSpx8eoOVTLXrVu3uKROnTrFhTMNjBs3Tjp37iyPP/649jGX1xdHF154obz00kvmJPwQCAwBL+yPXWdTtW9XljQIhI0AC6SwaQx5IQABCLhMYP369UYLxx9/vHb3RV9EGAkxz//+9z855JBDRB2z22effWTAgAEycuRIWbBggZbt+++/16433nijPProo7J161ZtoTVo0CCtrNUdpG+++UaOOeYYY0Gm/OrOjzoOp9xRRx0lb7/9tpGu7ioVFBRocmgZLP479NBDRV/0qWT1Ra9NmzYya9asuOesWBxZwCMKAhCAQA4SyCuLuRzsN12OKIGxyydLl7ptQ9k7NRXVEYqSkhKp/+55sqrPm6HsB0LnJgF1h2batGnSvHlz6dGjR1IIU6ZMkU8//VTUHSKV1879/PPP8tFHH2kLJnXcL5lT80Ydxdu2bZuo43R/+tOfkmWVCRMmiDryt2bNGi2vOnKXl5eXND8JEAgCgX1GnSULur6o3YXNz8/XFvlBkEuXIcy2V+8DVwiYCbBAMtPAH3oCqf5Iqy9SdscE/ExXCyT1PIc6YscCKfRDkQ5AAAIQcIyAWiDN7zJUqlatKskWSH7ar1S21zEQVAQBjwjwkgaPQNNMMAjYLY6UhEFPDwZFpIAABCAAAa8JYJ+8Jk57uUyABVIua5++QwACEIAABCAAAQhAAAJxBFggxeEgAAEIQAACEIAABCAAAQjkMgEWSLms/RzsuzqjbeeCnm4nO2kQgAAEIBBdAtin6OqWngWPAAuk4OkEiVwkEPQz3KnkcxENVUMAAhCAQIAJpLIPfqcHGB2iQSBjAiyQMkZGAQhAAAIQgAAEIAABCEAgqgRYIEVVs/QLAhCAAAQgAAEIQAACEMiYAAukjJFRIMwEgn6GO5V8YWaP7BCAAAQgUHEC6rfy7Fwq++F2up1spEEgbARYIIVNY8ibFQG/z2inal//AcD+jTrLX75/Oqu+UhgCEIAABKJDoKCgQPLy8rSPVa9S2Re3061kIg4CYSVQEFbBkRsCUSOgDJ9yapF0T6t+snnbFtl3VG8pi/3DQQACEIBAbhK48ICOsuSM4aIWSKkWOblJiF5DwHkCLJCcZ0qNEKgwAbVIUgZQfZQxXNHrNVHHKlIdrahwgxSEgMsEGr59rtbCwjNHONKSXt/QY2+Sk/dv40idVAKBoBLQ7xjpVyWnvpkWVJmRCwJRIMACKQpapA9pE1BnsO124IKUbmUEgySfFXTkC8/48lp/hYWFku34qBe7o6q7fl8/KFcc1ENuO/wCPSrr+rOVj/KM/7DYF2PSmDzZjl9TVXghEHoCPIMUehXSgUwI2BkvVQ/p9n8S4AMfu/nm5vgwL46UDK1rN5WnZo2R08YPNkRys33VCPUz/o3BZuHJ9fFhgYQoCISWgP1fu9B2C8EhAAEIQCAKBH7bslb0xdGyPm8YXfqg4wPaHaSpq+dKs9G77yIZGfBAAAIQgAAEKkiABVIFwVEMAhCAAATcJTB++Q/S6t0BWiPmxZHeqjpe93K7W2RT6WZjEaWncYUABCAAAQhUlAALpIqSo1woCagz1naOdPgwPpIT8HJ+3P3jy3LBxPukekFV0RdHVu13rHuETDvjeU1o/U5Tsh5YlTfnJZ35bx4PiX7Gh/34SORFGAJhJsACKczaQ/aMCeT6GXH6b/8nDz7B4PP07He054vUc0Zzer5szPNk+tm3aC9jEWW3SEpWXm+A9GDoX9dH4hX9BFs/ifoiDIEwE+AtdmHWHrJDAAIQiCCBgc27i/pk6vQ7TZmWIz8EIAABCEDATMB+O8KcEz8EIAABCEDAgsC0NfO0Z4Ds7t4kFntr0YSMyyTWQRgCEIAABCDgBgEWSG5Qpc7AEuAMuf0ZcvjAx27yJhsfrWo1kVlnvqQVtVsk6eX/+v3TctU3j8neVfYwjsapwnp6MhlIZ3wmGxuMH//nj51uSINA2AiwQAqbxpA3KwKcYbef8vCBj90EsxsfNQurGYsdtUjaXlb+y7wq32HstTJ8/ifSvs7hMr37C3HN2dWvMpLO+IwbMAkBxoe/4yNBHQQhEGoC9rMp1F1DeAhAAAIQ8JqA/hxQgzf6yqJNK+Oab/TmuTJn/VIZ3OLPMrL97XFpBCAAAQhAAAJBIcACKSiaQA4IQAACESGgL5KO/eBKo0fqrtK2HSXy9kn3yDWH9DLi8UAAAhCAAASCRoC32AVNI8jjKgH1DIPdMYwgpZeVlZVjEST5ygkXi0C+8Iwvt/W3tPcoaflOf1m9bYPR1M9nDJU9q9QQq7GtMqUzfvTKrOpIp3xY5r/eT/OV/uXu/MrLy0trfvg5vs1jFT8Ewk6ABVLYNYj8GRGwMx6qIr/TlRFUX/z0j/pCpD5WXwYz6jiZIeADgcldnpLLvh0in/z6g8w/4xVNgq1bt2YlSZ2iWvLrljWSbT1ZCUFhCHhAQNkD9VF2Sb8qW6D8Vs5v+2UlE3EQCCsBFkhh1RxyR46AvghSC6LS0lLpM/Fu+WrNTBl78v1yRO1mkesvHcoNAi+1v8XRjk454zlH66MyCASVwKbSLXLbtKHy0vyPZV7XoVKtSlXJz8/XxE22SApqX5ALAmEjwDNIYdMY8gaKwKeffiozZ87UZFJ+5YYNGybbt2/X/Jn+py+OOoy/Ue5sc5H81vsNFkeZQiQ/BCAAgQgQqF5QJEOOHCir+rwpTT7sJyUlJdqJggh0jS5AIPAEWCAFXkUI6CQBtQCxc5mmV6tWTVavXm1Uqcp//PHHxi6fkbDLk0796k7S3E3LWBglwiMMAQhAIIcJqJMFyj7opw0SUaRjXxLLmMPZljfXhR8CYSfAEbuwaxD5MyLg9BntY445xmj/pJNO0vzDhw834hI96bRf0btPiW0RhgAEIACB6BBIx37Y9dbt8nZtkwaBsBHgDlLYNIa8gSLw1FNPybZt2zSZGjZsqF0ff/zxpDt8gRIeYSAAAQhAAAIQgAAEyhHgDlI5JERAIH0CnTt3lieeeEKmT58uCxcu1ApOmDBBrrnmmvQrIWdkCXQeP1gaVq8jzx17vdR78xztd4D0ztaqXFMOrFFH1FX7xF5/vUdhddlUulk2lmyRjeoa+yzYuELmblimF9Ou6pmE5u9cLKcXHyOPHnlFXBoBCEAAAhCAAASyI8ACKTt+lA4ZAXXG2u6YQabpTZo0keuvv96goMrffffdRjjRk079iWUIh5PAPqPOkq9OfVya1Sy27MCa2O8DrVm9+zeCVKbCSgUSe7Fv3ELKsnAscnb3YfKPn16T/d7oIytjvzmEgwAEok1A2Q87l459cdL+2clCGgTCToAFUtg1iPwZEbAzDqqiTNMHDx4sDzzwgCbDmDFjpEePHjJo0CAZP368pVzp1M8zSJboQhlZs6CqIfeys0Yafqc8NQqryo4y+y9NTrVFPRCAgL8E0rEfdhK6Xd6ubdIgEDYCPIMUNo0hb6AI3HLLLXLuuefK+vXr5a233tJk69Kli/Y61kAJijAQgAAEIAABCEAAAmkR4A5SWpjIBAFrAnvssYeMGDFCS/zb3/6mvZzhpptuss5MLARsCKg7Qftc0k1WPPuOVC7w7k/zxIkT5eyzzzYk++KLL0QdHdWd+u2VRo0a6UF55JFH5JxzzjHCYfAUF1sfc9RlHzt2rLRo0UIPyrJly+Soo44ywlaeRE5WeYiDAAQgAIFwEuAOUjj1htQVJJDOGW67qhPLv/TSS8YP9x188MHaAkm9pGHLli2W1SSWT8yUKj0xP+FoEDjrkVu1xdHqFz6Qupf3kJPu8v4lHzVr1tRgtm/fPg5qs2bNtPChhx4aFx/GwNChQ2Xp0qXG5+eff9a6oe76JltEmfMrv36nOJFTGHkgc7gIpLIPfqeHiybSQsCeAAskez6kRoyA02ewL7zwQunQoYP2hUuhUosjdUepqKjIkly27VtWSmTgCLQbd73k5eXJ/lVrp5TtkOvPl1/XrRa1OFLu9/+8L1UKC7WFUqrCg5p317Jc//1TqbKmTN+wYYN069ZNy/fll19q17Vr12rHRVu3bi0rV64sV8frr7+uLSzU4iLxo+5M6U4dQ1Xp9evXL5cvcWHSvXt3yzx6/Xqd6qpera/Hm68NGjQwZ0vq33PPPY25qzLpv2VmLjBjxgxRn2nTpsmQIUOkV69eWvJll11mzoYfAq4TyNZ+uF3edQA0AAEPCbBA8hA2TUWTgFoU6V/y1GLp3nvvjWZH6VVKAutKNolarMxct0guavz/7N0HvNRU2sDh93IvvQgICiKICEqXJohYUCzYG1gWRUBUBCvo2uva26cri4qua18VsSCKoLiCYkUFAVFABaQoUqSDlPvNezAxM3cmd+5kSpL5x984SU7OyTnPyRBeUs4RpW4/Y+GPJjj66NYRZtvaA44x3+9ce79sjtza9vSkd0otY/cqdeXZH9+T22a+UOq2pW3w2GOPmU1OO+00892qVSvz/dZbb8ny5cujso8ZM8Z+g2PsVRbdUG/bGz58eFSeositg85toxIjC1deeaV8+eWXUrVq1ajtNE/spL+5rVu3yqRJk6K21YGa9V/Srd9kbD635Tlz5pRInj17tuhH0/QFKhr46jRy5MgS27ICAQQQQCAcAgRI4ehHWpEjAR0odvXq1bJu3Tr5+uuvTS3233//HNWG3eZaYKfIOEY6LpGOU/TUDxNkxeY1rlVau3FDwvSiwkJZuPzXhOma8Pi8t2XRht/M/q5v/TfXbZNNPO+888ymerVEp6OPPtp8x/7vp59+Mqs06ImdatWqZVbF3mpqXX2J3d5abtu2rZndvHmztcp8ayCUaHI+H6XbdO/ePdGmcdfrM1bW9NBDD1mz9nfv3r3F+mgAt2jRIuncubNJTyUIswtmBgEEEEDAtwIlz2y+rSoVQ8C7gP7LstttBmVNb9OmjehzDF27dpVzzz1Xpk6dKvov2CtWrJCdd965RIWTKb9EJlYEVmDL9sR/sddGHbBPa/ln/8tErxw9e9ENpp2LVy2XNsP6SvdW7eWGU89xbfsfpZTvmjlB4s033yyPP/64eRmDbvLEE0/E3fLSSy81V1H0NjwNFI4//nhz5efFF3e8zrxy5cpyxRVXxM2baOXZZ59triCNGjWq1CtAelWnRYsW5ja7OnXqyMCBA0X3PX/+fFO8XomKnfr37x+7yl7W2wpjgy1NdAuCvvrqKzs/MwhkWkDPH25TMueXdJ7/3OpCGgJBFyBACnoPUv8yCbidHLSgsqbrX8z05Qw6WX9Z0n/tjhcc6TbJlM84SCoVkunP27HcWnPWQUeKfqypQa069vNI1rpMfh944IFRz+HovuLd0hZv3axZs0zV9ArqK6+8InrlZ9q0aVK3bt2oKltveoxaGWc/ejW2QoUK0qdPH7nnnnvszWPfpKcJ+gZJq04TJkwwzwjpGyR1LLLYydoudn2i5d12280uO9E2rEcg2wLJnD/c6pTp/G77Jg2BoAkQIAWtx6ivLwQefPBBUw+9YtSpU6eoOtWsWVO4zS6KhIUkBawXNSS5uW82q1atmvTr189zffSlCUOHDpWOHTuaK7HOAps2bWqeN3Kus+aPPPJI0Q8TAggggAAC6RAgQEqHImXkncBll12WsM368DoTAgikJlCvXj2u3qRGRy4EEEAAgTQJ8JKGNEFSTDAEkrmH260lsfkHDx5sb/7www+bt2d99tln9rrYmdj8ZU2P3Z5l/wp80vOf0vrNgXLOx3/dKpbO2u7xWh+5afrTsqzXqHQWS1kIIOBTAa/nj0zn9ykb1UIgJQGuIKXERqagCqT7HuwRI0aYsV30VcNato4LM3ny5IQ8yeyfZ5AS8gUqoVn1Bubtcs5Kby/eLt+vWSRz1i6KvH1uuSyOfJZsXCFrt2yQ9Vs3mU+5gnJSsVx5qVRYQWpXrC67V6kjDavsInvXaCAda+8tNcpXMUUuOPl5Z9HMI4BAyAWSOX+4EWQ6v9u+SUMgaAIESEHrMerrK4Gff/5Zrr/+ennzzTelV69eJlg644wzfFVHKuMfAQ1+WuzUyHz8UytqggACCCCAAAJOAQIkpwbzCCQpoK/+1TdjNWzYUAYNGhSVy0qLWskCAggggAACCCCAQCAEeAYpEN1EJdMlkK57sIcMGRK3Slr+VVddFTdNV3rdf8KCSUAAAQQQCLVAcXGxa/u8nl+85netHIkIBEyAK0gB6zCq600gXfdg67NG+txRvEkHib3kkkviJZU6DlJhYaHoSXBA4yNl6JePygMdo69OxS2UlQgggAACoRcoKiqSgsjYavqJN6Xr/BavbF1XWvmJ8rEegSAKECAFsdeoc84FdDDMdE/WSU+DpNv27S8b/9gkdUf1kuLIf0wIIIAAAvkp0LdRD1l0/POiARJBSn4eA7Q6+wIESNk3Z48IJBTQIElPgPrRk+Evp7xkriiVdmtFwgJJQAABBBAIrIB1xcj61oZY/5gW2EZRcQQCIECAFIBOoorpE9B7rN3+Bc5P6fFOgn6qX7xeoX7BOb7ov5ICHL8cv0E5P5Q8enc845rL+serE+sQCKoAL2kIas9R75QE3E4eWiDp7n8k4IOP2w+P44Pjg+MjsUDYfx+JW04KAsETcP/TPHjtocYIIIAAAggggAACCCCAQMoCBEgp05ERAQQQQAABBBBAAAEEwiZAgBS2HqU9rgL6jIHbRDo+HB+JBfh98PtIfHR4H+eN4yvYx5fbsUEaAkETIEAKWo9RX08CYb8HnPa5/5GGDz5uf4BwfHB8cHwkFijt95E4JykIBE/A/U/D4LWHGiOAAAIIIIAAAggggAACKQsQIKVMR0Y/CjSuuqt8u3qBH6tGnRBAAAEEEEAAAQQCIFAQGYCyOAD1pIoIJC1QLMXy7i9fmQFWk87EhggggAACCCBQZoFGVXeRFjUalTkfGRDwswABkp97h7ohgAACCCCAAAIIIIBAVgW4xS6r3OwMAQQQQAABBBBAAAEE/CxAgOTn3qFuCCCAAAIIIIAAAgggkFUBAqSscrMzBBBAAAEEEEAAAQQQ8LMAAZKfe4e6IYAAAggggAACCCCAQFYFCJCyys3OEEAAAQQQQAABBBBAwM8CBEh+7h3qhgACCCCAAAIIIIAAAlkVIEDKKjc7QwABBBBAAAEEEEAAAT8LECD5uXeoGwIIIIAAAggggAACCGRVgAApq9zsDAEEEEAAAQQQQAABBPwsQIDk596hbggggAACCCCAAAIIIJBVAQKkrHKzMwQQQAABBBBAAAEEEPCzAAGSn3uHuiGAAAIIIIAAAggggEBWBQiQssrNzhBAAAEEEEAAAQQQQMDPAgRIfu4d6oYAAggggAACCCCAAAJZFSBAyio3O0MAAQQQQAABBBBAAAE/CxAg+bl3qBsCCCCAAAIIIIAAAghkVYAAKavc7AwBBBBAAAEEEEAAAQT8LECA5OfeoW4IIIAAAggggAACCCCQVQECpKxyszMEEEAAAQQQQAABBBDws0BBcWTycwWpGwIIIIAAAggggAACCCCQLQGuIGVLmv0ggAACCCCAAAIIIICA7wUIkHzfRVQQAQQQQAABBBBAAAEEsiVAgJQtafaDAAIIIIAAAggggAACvhcgQPJ9F1FBBBBAAAEEEEAAAQQQyJYAAVK2pNkPAggggAACCCCAAAII+F6AAMn3XUQFEUAAAQQQQAABBBBAIFsCBEjZkmY/CCCAAAIIIIAAAggg4HsBAiTfdxEVRAABBBBAAAEEEEAAgWwJECBlS5r9IIAAAggggAACCCCAgO8FCJB830VUEAEEEEAAAQQQQAABBLIlQICULWn2gwACCCCAAAIIIIAAAr4XIEDyfRdRQQQQQAABBBBAAAEEEMiWAAFStqTZDwIIIIAAAggggAACCPhegADJ911EBRFAAAEEEEAAAQQQQCBbAgRI2ZJmPwgggAACCCCAAAIIIOB7AQIk33cRFUQAAQQQQAABBBBAAIFsCRAgZUua/SCAAAIIIIAAAggggIDvBQiQfN9FVBABBBBAAAEEEEAAAQSyJUCAlC1p9oMAAggggAACCCCAAAK+FyBA8n0XUUEEEEAAAQQQQAABBBDIlgABUrak2Q8CCCCAAAIIIIAAAgj4XoAAyfddRAURQAABBBBAAAEEEEAgWwIESNmSZj8IIIAAAggggAACCCDgewECJN93ERVEAAEEEEAAAQQQQACBbAkQIGVLmv0ggAACCCCAAAIIIICA7wUIkHzfRVQQAQQQQAABBBBAAAEEsiVAgJQtafaDAAIIIIAAAggggAACvhcgQPJ9F1FBBBBAAAEEEEAAAQQQyJYAAVK2pNkPAggggAACCCCAAAII+F6AAMn3XUQFEUAAAQQQQAABBBBAIFsCBEjZkmY/CCCAAAIIIIAAAggg4HsBAiTfdxEVRAABBBBAAAEEEEAAgWwJECBlS5r9IIAAAggggAACCCCAgO8FCJB830VUEAEEEEAAAQQQQAABBLIlQICULWn2gwACCCCAAAIIIIAAAr4XIEDyfRdRQQQQQAABBBBAAAEEEMiWAAFStqTZDwIIIIAAAggggAACCPhegADJ911EBRFAAAEEEEAAAQQQQCBbAgRI2ZJmPwgggAACCCCAAAIIIOB7gSLf15AKIpCCwPdrfpZFG5fL1u3bUshNFgQQQAABBBBwE6hWvrK0q7mXVC2q5LYZaQgEUqCgODIFsuZUGoE4AsVSLBOWfikNq9SVfWo0lMICLpLGYWIVAggggAACngRWb1kvn634TmpXqC6dau/tqSwyI+A3AQIkv/UI9fEkMOGXL80f1PoHNhMCCCCAAAIIZFZAz7vd6rTiSlJmmSk9ywL883qWwdldZgX0gijBUWaNKR0BBBBAAAFLoMvOzWXa7z9Yi3wjEAoBAqRQdCONiCfwxx9/xFttryMdH/tgiDPD8cHxEeewsFdxfHB82AdDnJl8Oj52Kl9V1m3ZGEeBVQgEV4Bb7ILbd9Q8jsD4pVPlqPqd4qSwCgEEEEAAAQQyIcC5NxOqlJlLAa4g5VKffSOAAAIIIIAAAggggICvBAiQfNUdVCaTAtu3b3ctnnR83A4Qjg+OD46PxAL8PvL795H4yCAFgWAKECAFs9+odQoCs2bNFLeTOOn4cHwk/ksevw9+H/w++H2kcOolCwKBFOAZpEB2G5VOJMB90IlkWI8AAggggEBmBDj3ZsaVUnMnwBWk3NmzZwQQQAABBBBAAAEEEPCZAAGSzzqE6iCAAAIIIIAAAggggEDuBAiQcmfPnjMskE/jUMSjpP2M0xLvuLDWcXxwfFjHQrxvjg+Oj3jHhbWutOPD2o5vBIIqwDNIQe056h1XgPug47KwEgEEEEAAgYwJcO7NGC0F50iAK0g5gme3CCCAAAIIIIAAAggg4D8BAiT/9Qk1ypCA2ytqdZekJ36FLT4cH/w++H24/dHM8ZHfx4fbsUEaAkEUIEAKYq9R55QEGMeFcVzc/hLH8cHxwfGR+C/5/D74fbj9PlI6KZMJAR8L8AySjzuHqpVdIEz3QRcXF5cdgBwIIIAAAqETKCgo8HWbwnTu9TU0lcuaQFHW9sSOEEAgKQErMIr9TiozGyGAAAIIhEZAAyP9WOcDvwdKoYGnIXkvQICU94cAAH4SsE6CeiuDzlvf1no/1ZW6IIAAAghkTkCDoXLlypmPM1AiSMqcOSUjYAkQIFkSfIdOQMdpqFChQsJ2+S3dCoI0KNq2bZts3LhRbp/zorz082RZv21TwnaQgAACCCAQPoGmVXeTRzpcJC1rNZbCwkI7UNKW+u38FT59WpTvAgRI+X4EhLj9bsGRNtuP6dZVo41/bJK9JgwIce/QNAQQQAABN4F565fIER9eKwfUbiGjDrzB3GqnV4/0POHH85dbW0hDIGgCvMUuaD1GfUMtoCc+vXrUdBzBUag7msYhgAACSQp8vHK2fLtqvn3LdZLZ2AwBBDwIECB5wCNrsARKe0WpH9KtK0jFwhvsgnV0UVsEEEAgcwIXfjXcNUDK9fkrcy2nZARyI0CAlBt39poDAb+P4zFz5gxz9UiDJCYEEEAAAQQsAb3dTu8uSDTl+vyWqF6sRyCoAoyDFNSeo95xBYI8FoP1cobNmzdL43HnxG0fKxFAAAEE8lNg0fHPS/ny5aNe1uAXiSCfe/1iSD38JcAVJH/1B7VBAAEEEEAAAQQQQACBHAoQIOUQn10jgAACCCCAAAIIIICAvwQIkPzVH9QmjQI6ToTb5Pd0t7qThgACCCCQvwKcv/K372l5dgQIkLLjzF5yIOD3cSJKq18OyNglAggggEAABEo7f+Q6PQCEVBEBVwECJFceEhFAAAEEEEAAAQQQQCCfBAiQ8qm387ytuR4nwuv+87z7aD4CCCCAQAIBr+cXr/kTVIvVCARWgAApsF1HxcsqkOtxIrzuv6ztZXsEEEAAgfAIuAUxXs8vXvOHR5mWILBDgHGQOBJCJRDksRj05KcDATIOUqgOSRqDAAIIpEWAcZDSwkghCCQlwBWkpJjYCIHEAm+88YYcdthh0r17d5k4cWLiDUlBAAEEEEAAAQQQ8L0AAZLvu4gK+lmgS5cu0qRJE3n//fflgw8+EL0KdNlll/m5ytQNAQQQQAABBBBAwEWAAMkFh6RgC2RjnIimTZtKmzZtbKgjjjhCRo0aZZa97t8ulBkEEEAAAQQcAl7PL5nO76gqswgEUoAAKZDdRqWTEcjGOBDffPNNiapo0KST1/2XKJgVCCCAAAIIRAS8nl8ynZ9OQiDoAkVBbwD1RyDbAnoL3caNG81uDzjgAGnQoIHot/6L3NSpU+W4447LdpXYHwKeBPo1ObJE/o3b/pCxiz+V9Vs3lUgLwgqrTU/9OKFEda9r1UcO27WdtNxpD1m04Td54LtX5L8L/ldiO1YggAACCOSnAG+xy89+D22r3d5ip88HlSuX+KJprtO3bt0qxcXFvMUutEenfxu29OSXXSvXefwQ+TkSSORysurY9u3z5LfNq0utirV9/ddOs7c9a8/D5d5259vLsTPd3r1Ufly3NHY1ywj4QsDtLXa5Pn+5nXt9gUclECijQOK/LZaxIDZHwO8CXsd5SJRfrxy98MILoulfffVVQoZE+a0MpaVb2/GNQKYElmxcIe8s/cJ8flr/i72bz4/6lz0f1Jnq5avYwdF22S5XThsp/T69R15f9LHdpClHPCT1Kte2l5lBwE8CGgQlmko7f2Q6PVG9WI9AUAW4xS6oPUe9yyzQpk1b1zyppI8cOTISGM2SSZMmybRp02TEiBEyZ84cOeOMM0rsK5nydRwkJgRyJTDlt1lyyZfD7d0XSIEsOfkls9yz/n4mcLITAzYzuOnxdo0bvPbX71P/5XvwFw+Zdj75wzvyy8aV9nbMIOAnAbc7IJI5v7i1xWt+t7JJQyCIAgRIQew16uwbgbFjx8qYMWNkv/32M3UaPHiweSYpXoDkm0pTEQSSFCiWYnvLkxseGBUgvXLQjdKtTms7/Ykf3pYbvnnKXtYZDbA+PephaVRlF3v9uq0bpfvEYbJ4w3J7nc58cuTD0rjqrvY65+1u1u1ymvjNMY+bbZy3ztmZXGaaVN8tYaq2s6zlJSyMBAQQQACBwAtwi13gu5AG5FKgVq1aJXZfWFhYYh0rEAi6wKzV8+0maMBiBUd/bN9q1g/c6xiZcOjd9jY6o1efrODIumWvWlFlmXrUCHs7DaK0PGdwpIl6u1vvRgfb23mdeWzeWLsI3d+PJzwnV7c8Q3auWMNezwwCCCCAAAIqwBUkjoPQCuizQW6vMk1H+u+//y7ff/+9bfjwww/LPffcY5a9lm8XygwCWRJoUq2e9Gl8mBSVK5I2OzUx89au//n9a2b2o0jgotOC9b/K/hMuNvP6Pw062tTcU6oUVpQN2zZLo6p/XTVyXp3R7XRqXqOhfLfmZ5l+zEizrAHUARMuMfNn7nGoPNDhQnmo4xAZtXCyubpj5Uv2JQ2mIMf/vlo5Vz5f8Z103rm5WVu5sIJcus8p5qMrpiyfKb0+vNWRg1kE/Cvg9fyS6fz+laNmCCQtnkSGAABAAElEQVQnQICUnBNbBVDALTjS5qQj/Y033pDnn39eqlWrJj179jTPIDVp0sRoeS0/gORUOeACHWvvLfqJnTq+c6G9aq9q9c387bOelyPrdbLXT1/1g+xbay95quuVctpHt8nC9cvs29Za12wsA5ocLRr4WFOlSICiU92KO5lvKzjSBX3l9vu/fi2/bvrdpKXrfydOvlGqFlWSu9qdJ70aHhRVrF4R0yDMGcxFbcACAj4S8Hp+yXR+H1FRFQRSEiBASomNTPkscPPNN8uVV14pVatWNQx9+vQR/TAhEHSBuWsXy+Rl30i5ggLp36Snac7h718p+na72Glk56Gxq8xyp9o7rtDown+7XSvdd2kXdztdqbfbJZrSHRxZ+9FxnS6e+rD56LraFarL2O63y55V65lNjq7fWcYt/dzanG8EEEAAgTwU4BmkPOz0fG2y2ytS1STZ9Kuvvlruv/9+8zKGTp06ydtvv21Ik82fyL+0/InysR6BdAlMi1wFuv6b/8i1058UHShWp/cOuzdu8XqlJd6nyZizzPb6fI8VHA2f84Y0e7Nviasz+sKGbE5H1f/ripe135V/rLVv7dN1ffY8zEriG4HACJR2/sh0emCgqCgCSQoQICUJxWbBF0jXOBCVKlWSG2+8URYvXixTp06Vhg0bSu/evc33sGHDZM2aNXGxvO4/bqGsRCBDAu3G/TWg6qmRN9jFTh8e8WDUKr0So88MWdMFzY4zs/rqbL0db13kyo3bdOxu+0cl6+1usS990A0q/nlrXtTGMQtnRwaEjZ2+7PmIPLX/32X0QTfFJkW9qOGT5bNLpLMCAT8IuAU5Xs8vXvP7wYc6IJBOAW6xS6cmZflawOs4D4nyt2nTRm699VbRK0svvvii1K5dW6677roSFonyWxtqOuMgWRp851pgzZYN5hmgXSvVlOGdLpHRP39kqtR5/BDRgWObVtvNPLPzWSSg2DvywoVaFaqZ9CaRW9WOn3yDfLHiezmobhsZsFdPmb12oZSLvK3uznbnlmjWTTOellvanCNPdBkq03//UeasXSS9G+54e92efz7v5Mz0aeR14C8u+ECu+PpRs39Na/32QNkSeZve98c95dw0at66ne+AOq1MPn2199cr55m6V4s8l2RN/4pc7WJCwI8CjIPkx16hTmEV4ApSWHuWdmVcQF/O0LRpU2nfvr0sXLhQ9IUNelUpXnCU8cqwAwQyINDxnUF2qde32vGc3c8bfpNhkeDEmrrUaWEHR28s/tgER5p22kf/sDaRe9udL3dHXoxQLvKfNTX5M/gZOe8teXnhJLN635pN7OBoa/E2c1uetf09s18ys4UF5aLermelx/vW8ZasaZ+x/WT8L1OtRTNGU4fazSLPQf0VHPGCBpuHGQQQQCCvBQqKI1NeC9D4UAmMXzpV4j1nkM5GNm/eXNauXSvPPPOM9OjRI21F6+0TegVp8+bN0njcOWkrl4IQyJRAq532kJ67dRa9ivTRbzPj7qZBlTpyyC5t5c3Fn8rayFUpt+nQXduJBk5jF3+S8A129SrVktVb1tvPSFnllYsEToMit/VVKFde9JXe+rKJRNNBddvKARrYVawuX66cI68s/DByPYlTYSIv1vtDYNHxz0v58uVFryQVRF6k4qcpG+deP7WXuoRfgAAp/H2cVy10/iGd6XEexo0bZ26t++WXX+SGG26QAQMGRFmXdf8ESFF8LCCAAAIIOAScAdKWLVtch6oo6/nHsRszW9b8znNvbFksIxBEgb/udwhi7akzAi4CmR7n4eijj5ZPPvlEfvrpJznzzDPlmmuuMW+2GzRox21JXvfv0jSSEEAAAQTyWMDr+SXT+fO4a2h6SAQIkELSkTQjdwKvv/667L///vLss8+a8ZEeffSv5zNyVyv2jAACCCCAAAIIIJCKAAFSKmrkCaSA2ytStUHJpi9fvlyGDBlirhZ169ZNdt55Z5k+fbp5UcNll12W0CbZ8hMWQAICCCCAAAJxBLyeX7zmj1MlViEQaAECpEB3H5Uvi4DXcR6s/DpI7J133mneWDdlyhQ56KCDTDWs9ER18pqeqFzWI4AAAgiEX8AtiPF6fvGaP/z6tDDfBHhJQ771eMjbG+QHRfXkx1vsQn6A0jwEEEAgRQHnSxp4i12KiGRDIEkBriAlCcVmCCCAAAIIIIAAAgggEH4BAqTw9zEtRAABBBBAAAEEEEAAgSQFCJCShGKz4AnoOA5uk9/T3epOGgIIIIBA/gpw/srfvqfl2REgQMqOM3vJgUCmx3nIdPk5IGOXCCCAAAIBEMj0+cdr+QEgpIoIuAoQILnykIgAAggggAACCCCAAAL5JECAlE+9nedtdXtFqtL4PT3Pu4/mI4AAAggkEMj1+StBtViNQGAFCJAC23VUvKwCXsd5yHX+sraX7RFAAAEEwiPgFgRxfgpPP9MSfwgwDpI/+oFapEkgDOMg6cO3e7zdN00iFIMAAgggEAYBxkEKQy/ShqAIcAUpKD1FPRFAAAEEEEAgLwWqFlYSvw0Om5cdQaPzRoAAKW+6mob6XUBPfvopV46fpd/7ivohgAAC2RQ4veHB5vxAkJRNdfaVzwL8TSyfez/kbff7OBHx6mcFSH0b9Qh579A8BBBAAIFkBW5p3TfqH8/inT+cZeU63VkX5hEIogABUhB7jTonJeB1HIdc5NcAqbCwUO7Yd4AQJCXVzWyEAAIIhFYgcl+B/HD0f8x5Qc8P1icX5ycncmn7d27LPAJBFCgKYqWpMwJhFbCuIBUVFcmd7c6V29v2t18/XlxcHNZm064QCxz8v8vlH637yyF126alla8u+khOaNBVigoK01IehSDgRwErENJbrvUfzfSb26/92FPUKawCBEhh7VnaVUJAX5HqdoLJdboGQM6Tos7rOiswynX92L+/jx+/9s8vm1bJeVMfkJ9OeN7z7++DZdPl6hlPmM+Ck/4b9Rv3a/utSlI/fj9lPf9Y5wPrXKDHks7Hm3J9fMWrE+sQCLIAt9gFufeoe5kEcj1ORDL7t4IhPQnqyVT/5dD6fPfdbHNytJZjv0nHR4+b2OPCWs7V8WH9SNOx//6f3mMVJ8/Ofzeqreko349+ue4/9r/jz+BcHF96DtCPHpd6/rDOD/aPwDGTzPlFg6hEk9f8icplPQJBFWAcpKD2HPWOKxDkcZDiNoiVCARcYLdRvUwLlvR+xVNL/vHNs/LI929EleG1zKjCWEAAgZQFOPemTEdGnwpwBcmnHUO1EEAAAQT+EogNjjTl/E/u/2sD5hBAAAEEEEiTAAFSmiApBgEEEEAgMwLHTLzaFNyudtOoHYxd9EnUMgsIIIAAAgikQ4AAKR2KlOFLgVyPA8H+/3A9LvDBx+0AsY6PTdv+kGkr55lN3+5xl53lmN26mPn93hpkr3POWPmd65zzpHP8OY+H2HmOD2/HR6wnywgETYAAKWg9Rn2TFihtnAbSK7ha4oOP2wGSreOjzZhzTTUu3OfEqOo80e1Ks7x4w3L5bdPvUWm6kK36ldjxnyvYP7+fRMeGrg/78eHWdtIQCIIAAVIQeok6IoAAAnkoMHv1Alm/daNp+Q1tzy4hcEeHgWZd+7Hnl0hjBQIIIIAAAqkKECClKke+wAm4veJUG0N64lfA4sPxkYvfR48Jw8yfM88eeG3c32e/vXqa9O3F2+XdxVPNfKL/5aL+zrqwf/58cR4PsfNBPz5i28MyAkEXIEAKeg9S/6QFvI7zQP6Zcf+SanUAPvi4/SWvrMfHUz+8Yw6tcgXlpEf9DmYcmHjlTzxyx5vszvn4Lo7PDI5zU9b+s/5csL7JH+4/H6x+5huBsAgwDlJYepJ2GAHGYuBAQMBfAqmOg2Tlm378E1K3Uk27UdZ65xhIzV4729yKp88pxbsVz87MDAIIZESAc29GWCk0hwJcQcohPrtGAAEEECgpYI1v1KBKnajgqOSWO9bMOOHfZibeWEmJ8rAeAQQQQACBRAIESIlkWI8AAgggkBMBa3yjL459NKn9VyqsINYYSY/OGZNUHjZCAAEEEEAgkQABUiIZ1gdegHEsvI1jgR9+bn8IZPL4GH/EvTK2+x1uu5fY/esYSTe07SuD9j7B5ItNjy2MdI7v2GPCuczx4e34cFoyj0AQBXgGKYi9Rp0TCnAfdEIaEhDIiUC8Z4a8VCTd5XmpC3kRQGCHAOdejoSwCXAFKWw9SnsQQACBLAs0Hn2m6Kcs09cr54oGOzN+/6ks2dgWAQQQQACBjAsQIGWcmB34RSDeK4KddSOdcUqcx0PsPMdH4uPjj+1bRD+vLvwwls1ejvU7duI1Jm3r9q3mOzbdzvjnDOmJ/ZUIH3xifzPO5UwfH859MY9AGAQIkMLQi7QhKQHG4Qj3OBz0b+7699NjRpjf4EWfPZTwt+jsn3/OftVsV6FceWlfu5mZd6bHK4T03PWv9gf++JcWZMX73bIOgaAK8AxSUHuOescV4D7ouCysRCDjAm3GDJAVm9dInyaHy70dB9n7i/fMkLXu+5Oekerlq9jbJjNj5XWOg5RMPrZBAIHMCXDuzZwtJedGgCtIuXFnrwgggECoBKZFBnTV6fkf33Nt1xmTbzXpzWo0KHNw5FowiQgggAACCKRJgAApTZAUgwACCOSzQGFBOTl417aG4JDxl8al2Fa8XSb/+o1Jm3RU4tvx4mZmJQIIIIAAAlkSIEDKEjS7yb4A41h4G8cCP/zcfrXxjo8XD77RZJm7ZrGsWP97iezt3hxo1ultePHyOzOQzvHnPB5i5zk+/H18xPYXywgETYAAKWg9Rn2TFqhQoYLrtqTj43aAcHykdnxc3fpvhrXjOxdG8S5cv8w8o6Qr9RklfFPztVDxw886FuJ95/r4iFcn1iEQJAECpCD1FnVFAAEEfC5wSYtTTA31td+fL//Oru3+bw8288O7xL/9zt6QGQQQQAABBHIsQICU4w5g99kTKO0VpaQzjojb0cjxkfzx8fqhtxnKk/53fQnSUxodVGKdrsA3ed94gPjhF++4sNZl+viw9sM3AmERIEAKS0/SjlIFGMeDcTzc/pLA8ZG+46NzneaiYxzFTh/3HB67yl7GP33+NqpjBl98M/nnn+NQYxaBUAgwDlIoupFGWAJhGouhuLjYahbfCAROYO2WDdL8jXPseteuUF1mnPCkvZzqTINXepusi3uNSrUI8iEQOIGCggJf1zlM515fQ1O5rAkUZW1P7AgBBJISsAKj2O+kMrMRAj4RqFpYSZpW303mrV1iavTVsSNLvY2uLFV3+9fwspTDtgj4WUADI/1Y5wO/B0p+tqRuCJRFgACpLFpsi0CGBayToP7lT+etb2t9hndP8QikVWBC93ukyZtnyVH195PtW7fJdtmWlvLrV64tW7ZsSUtZFIKAXwU0GCpXrpz5OAMlgiS/9hj1CpMAt9iFqTdpizgv8+s4GW6vOvVbuhUEaVC0bds22bhxo9w+50V56efJsn7bJnoXAQQQQCCPBJpW3U0e6XCRtKzVWAoLC6MCJb+dv5zn3jzqIpoaYgGuIIW4c/O9aW7Bkdr4Md26arTxj02y14QB0rfJEfLtCf+WqkWV8r07aT8CCCCQVwJfrZwrR75/jXSt1VxGHXiDudVOrx7pecKP56+86hwaG3oB3mIX+i6mgUES0BOfXj1qOm6AvHbILfJAZEBNgqMg9SB1RQABBNIj0KF2M/mt1yvyyarv5NtV8+1brtNTOqUggICbAAGSmw5poRIo7aFuP6RbV5CKpVgO2qV1qPxpDAIIIIBA2QXGH3anXPjVcNcAKdfnr7K3ihwI+FuAAMnf/UPt0ijg93FAZs6cYa4eaZDEhAACCCCAgArolaR565eY80MikVyf3xLVi/UIBFWAZ5CC2nPUu8wCbdq0dc3jh3S9vY4AybWbSEQAAQTyUkDfaJdoyvX5K1G9WI9AUAUS/9qC2iLqjQACCCCAAAIIIIAAAgikKECAlCIc2RBAAAEEEEAAAQQQQCB8AgRI4etTWvSngI4T4Tb5Pd2t7qQhgAACCOSvAOev/O17Wp4dAQKk7DizlxwI+H2ciNLqlwMydokAAgggEACB0s4fuU4PACFVRMBVgADJlYdEBBBAAAEEEEAAAQQQyCcBAqR86u08b2uux4nwuv887z6ajwACCCCQQMDr+cVr/gTVYjUCgRUgQAps11HxsgrkepwIr/sva3vZHgEEEEAgPAJuQYzX84vX/OFRpiUI7BBgHCSOhLwRyPU4EcnsX8dBYkIAAQQQQCBWgHGQYkVYRiBzAlxBypwtJSOAAAIIIIAAAggggEDABAiQAtZhVBcBBBBAAAEEEEAAAQQyJ0CAlDlbSs6xgN/HiSitfjnmY/cIIIAAAj4VKO38ket0n7JRLQSSFiBASpqKDYMmkOtxILzuP2je1BcBBBBAIDsCXs8vmc6fHQX2gkDmBAiQMmdLyQgggAACCCCAAAIIIBAwAQKkgHUY1U1dwO0VqVqq39NTbzk5EUAAAQTCLJDr81eYbWlbfgrwmu/87Pe8bLWO89CqVWtJ9KpUP6Q3b94iL/umrI2+fvp/5LkfJ8q6rRvLmpXtEUAgSwL71GgoT3YdJvrN5F3ALQjK9fnLe+soAQF/CRAg+as/qE0GBZIZh8ht99nIzzhIbj0gsmX7Vqk/+nT5W6ND5YvDh0vVokruGUhFAIGcCUxbNU+6jb9MDt6ljbx6yM05q0dYdpzoH/e0fdk4P4XFkXYgkIwAAVIySmyDAAK+EGjw6pny3/2vk251WvqiPlQCAQQSC7Sr1VQWHve8NBrbR75f8zNXkhJTkYIAAj4T4Bkkn3UI1UEAgcQC24u3Exwl5iEFAV8KjOl2iwz45H5f1o1KIYAAAvEECJDiqbAuFAK5HgfC6/5D0Qk0AgEE8l5AryTpFSSm9Al4Pb9kOn/6WkpJCORGgAApN+7sNQsCmR7nIdPlZ4GIXSCAAAIIBFAg0+cfr+UHkJQqIxAlQIAUxcECAggggAACCCCAAAII5LMAAVI+936etd3tFalK4ff0POsumosAAgggkKRArs9fSVaTzRAIjAABUmC6iop6FdBxItxOIn5P99p+8iOAAAIIBFfAz+ev4KpScwTiC/Ca7/gurA2hQK7HiUhm/4yDFMIDjyYhgAACaRBgHKQ0IFIEAkkKcAUpSSg2QwABBBBAAAEEEEAAgfALECCFv49pIQIIIIAAAggggAACCCQpQICUJBSbBU8g0+M8ZLr84IlTYwQQQACBbAhk+vzjtfxsGLAPBDIpQICUSV3KzqmA13Eccp0/p3jsHAEEEEDAtwK5Pj+Vtn/fwlExBJIU4CUNSUKxGQIIIBA0gVWrVsnbb73lWu2q1arKSSed7LpNWBPfnzhRli5dKkXly8vpp58e1czp06bJyMdHyoeTJ4v+a/rxx58gt9x6q1SpUiVqOxYQQAABBMInQIAUvj6lRQkE9BWpbm8B8kN6gqqzGoGUBJYsWSI333yTa9769XfL2wDpmWeelilTppigxxkg7d2sqRQXF0e5vf76a6Kfpk2byrh3xkelsYBArgVyff7KdfvZPwLpFuAWu3SLUp5vBfw+zlFp9fMtLBULhECzZs0k3qdJkz0DUf9sVfLggw6yg6OjevaUZ559Tv5+1VVSWFhoqjBv3jzp1u2AbFWH/SBgCzAOkk3BDAIZF+AKUsaJ2YFfBJIZh8itrtnIzzhIbj1AmheBt8e94yV73uRdunSJaevFl1wil1xyqZnv2rWrnHfe+XLdtdfIyy+/LB98MClvPGiofwTc7oDIxvnJPxLUBIHMC3AFKfPG7AEBBBDwvUCzpnuJfp588t92Xa11/c7pa9ZdcMH5Zpurr/q7nHrqKWZet+l2QFc7jzVj5d20aZO0ad3KbGul6ffZZ/Wx8+u2t932D2eymf/444+jttFb377++qsS28WWNXjwhSW2KeuKxYsWl8hy+x13ytx5P0j5yDNLTAgggAAC4RUgQApv39IyBBBAwBaYNWuWxPtYG4wY8YiZvfOOO8z35ZddZiXJU08/Y8/rzOjRo+Wb6dPtdcuWLSsRAFmJGhxpkOScNCD69NNPzSrrbVhPP/WUnHTiCfZmGqid0/dss1yxYkXzrc8Fnda7t1x26Y4rO7rSWZYVuLw7YULC+piCkvjfq6+ONmX0Pfss0Zc5MCGAAAII5I8At9jlT1/nXUv1zVPWX77iNd7v6fHqzDoEUhVwBh/OMvSKiE5HHHmk1KpVS/TNdx3at5O1a9ea9e+Mn2C+Y/931dVXy8CB58m6deukfbt9TfLpp50mL0VuQYudBg8eIgPOPdesPvKIw813w4YN5f3/fWBvqoGOBnAbN26UypUrixWovfjSS9KxYyez3e+//y4HHdhNHnzoIbM845tv7PxWO3SFtnXosCvstLLMzPp2trRq2cLO8sknn4h+rMlZH2sd3whkW4DzV7bF2V++CXAFKd96PI/a6xYcKYPf0/Ooq2hqFgR23nlnifdx7vrzL6aaRSs4atGihey1117OTcx8pUqVTHCkC9WqVRMriPrqqy9LbPvII4/K5UOHyk477WTSfvrpJ/N95d//bq7M6NUZ/bRu08asv3DQBVFlnBF5/fbIkY/J6tWrpWbNmjJj5iw7/Y8tf9jzfzvzTPuq1OtvjJGDDz7YTivLjP65oMHW/Q88YLxi82p9XnnlldjVLCOQVQHOX1nlZmd5KMAVpDzsdJqMAAL5J/DpZ58n1ehjjjlW3n57x9hJY94cGzfPiSeeGLU+XhBlbXD4EUdYs1Hfl1x8cdSytfDllzuCLL26dNih3c3qe++5R/Sjk95GN3PWt+aV/Xplac899xQNur744nPzXJPZKPK/YVdcIYMGpf4s0gknnCj6sabnnn1WbrnlZrN4zdVXSa9evawkvhFAAAEEQibAFaSQdSjNSSzg9opUzeX39MQtIwWB9Ahs2bLFDo60xM777bi1Lbb0eX/elhe7vizLepUm3se6QqS34Gn6TTfdLE2aNLGL1jq2aL6PvTzh3ffks8+/kOOOOz5qnLP777tPFixYYG8Xb2b9hg3xVsuGOOvPOvts0TfbMSHgR4Fcn7/8aEKdEPAiQIDkRY+8gRIobZyhVNIvvPCvf6FOJb8TsLT8zm2ZRyATAvu23XGb2y677mqK1+eRPvrooxK7+vLLHbfiWQmXphA4HHVk9JUl3ddVkdvunJOu08Bk/IR3TbB02eWXm2TnXwbXRZ6Bql27tvzfgw/K93Pmmu2sMsaNe9uajfs97euvzXp99konfdZIn4VShxUrVph1zv+NfmW0c5F5BLIq4DzuY3dc2vkj0+mx9WEZgaALcItd0HuQ+ictkIlxIt599117/+kon3GQbE5m0iygf/FPNOmVmmefeUb06oxOU6Z8LP/613B58P/+T/r3Oycq6LDK0PJ0INUZ38yQJUsWm9UPPzzcSk74/cGkydL9kIPlxx9/NMFIp077yQ8/zDMvh9BM8+fPNy966NihvaxZs8aMP9SvXz/57bff5KFIEKSTPgOl06RJk2TguQPMc1D/fvLJyPNSTeXhh/9p0vR//fr1N/NW2/VKU5fO+9np1swVV15pZnf9MzDUhf27dDbr6tWvL9Ujz1nNnTvXLOv/zj8/+jkpO4EZBDIowDhIGcSlaARiBLiCFAPCIgJlEdDXDjdo0EAaNWpkHmbXZzHcnscoS9lsi0A2BW699RazO72lTachQy6SwsJCM3/iCcebb+t/eszrNP6dd+zgqMfhh0vPo4+2Nkn4rXnvuPMuO33q1C/s4OjYY4+z34LXo8eOt909/vhI6dbtADnppBNFf2/6l0TrNrx9993XlKNXkfQNep06dhB9XbhOQ4cNswMpsyLB//TFFXp7nk56K9/kDz+M2vKXpUujgiMtV18wwYQAAgggEF4BriCFt29pWRYEfvhhxyuSs7ArdoFAmQVatWoV9+pPvIL0KlLs9N33c2JXmeX9999f7rr7HvM2t1WrVso55/Qr8VbIeOVZhfWOjGWkn9mzZ8u7706Q/fbrLF27Rg82e8+994p+9Da4adOmSbXq1eWwww4zt9NZ5ehb7XQ/euVr4nvvyZw5c6Rb5DXg1mvBre2cdXn00cdMeRqonXLqqSXqXb/+bnaZL734YqSO38rukeehunTpIh06dLSK5BsBBBBAIMQCBEgh7tx8b1q2xonQv+QNHz48ckvSv2TEiBEyePBgQ+91//nef7Tf/wJe3+SmrxHXj9vUrn170Y/bpG+206tXyVzB0itd+ilt0jL1+ScmBPwo4PX8kun8fjSjTgiURYBb7MqixbaBEsjGOBFDhgyRGTNmyOef73iFsv4r8+23326cvO4/UNhUFgEEEEAgawJezy+Zzp81CHaEQIYECJAyBEux+SGgrwM+LfLsgzV17NjRXEWylvlGIEwCjz020tx+prfXMSGAAAIIIBBWAQKksPYs7Soh4PaKVN04lfTVq1fb+7HyV65c2V7nnLHSneuc86WlO7dlHgEEEEAAAUugtPNHptOtevCNQFgECJDC0pO0o1SBTIwDoW+9eurPt2Zp+X369JFRo0bFrYvX/cctlJUIIIAAAnkh4BbkeD2/eM2fFx1AI/NKgJc05FV353dj0zFOUazgfffdFxnD5QeZN2+evPHGGHnuueekoKAgdjOznMz+GQcpLh0rEUAAgbwXYBykvD8EAMiiAAFSFrHZVfgEhg4dKg888IDcdttt4WscLUIAAQQQQAABBPJQgFvs8rDTaXL6BDQ4uvvuu81AsePGjUtfwZSEAAIIIIAAAgggkBMBAqScsLPTbAjoOA9uU7rSr7rqKlm4cKEccMAB0rNnTznuuOPMbr2W71Z30hBAAIGgCKzfukmqFcV/eU1Q2uC3eno9v2Q6v9+8qA8CZRUgQCqrGNsHRiDT4zw4y7/++uulVatWcsYZZ8jYsWONkTM9Hlpp6fHysA4BBBAImsA/vn1OzmrSI2jV9nV9Szt/5Drd13hUDoEkBAiQkkBiEwQSCTRo0MB+BmnRokXSr1+/RJuyPg0CA5seLfu9NyQNJVEEAghkQ2DK8m/lhYX/k9v27Z+N3bEPBBBAIC0CvKQhLYwUEgQBfUWq21uAUkk/4YQTRF/UoFMq+Z1ubq9wdW6Xz/N3tR9omt9obJ98ZqDtCARGoFxBOVl66kuBqW9QK5qO84+X82NQ3ag3AokECJASybA+dAI6zkOrVq0TBkmppL/77ru2Uyr57cyRGc3fvHkL5yrm4whokGQFSnGSWYUAAgiEUsDtH9HScf7xcn4MJTiNymsBAqS87v78anwy4xC5icTLX1RUJHqbXaVKlaR8+fJ29u+++86et2bi5bfS9FvTGQfJKcI8AggggIAl4HaFJ5nzi1VOvG+v+eOVyToEgixAgBTk3qPuOReIFwjlvFJUAAEEEEAAAQQQQCBlAV7SkDIdGRHYITBv3jy57LLLzMLjjz8OCwIIIIAAAggggECABQiQAtx5VN1dINPjPGj5l156qXz22WcyZcoUU5m2bdvKnXfeaea97t+9daQigAACCOSrgNfzS6bz52u/0O7wCBAghacvaUmMQDbGgVi9erX06fPXG9W6dOkiw4cPNzXxuv+Y5rCIAAIIIICAEfB6fsl0froJgaALECAFvQepf04F1q5dW2L/lSszYnwJFFYggAACCCCAAAIBESBACkhHUU3vAm6vSNXSU0lv2LChvPDCC6Zymr9///7y4osvxq1sKuXHLYiVCCCAAAIIOAS8nl+85ndUhVkEQiFAgBSKbqQRyQjoOBFuJ4FU0h988EHp0KGDHHbYYXLRRRfJyJEjpVOnTnGrk0r5cQtiJQIIIIBA3gmk+/zlBOT85NRgHgERAiSOgrwR0HEeShtHIpX05s2by+WXXy4tW7aULVu2JPT0uv+EBZOAAAIIIBB6gVTOTxaK1/NPafmt/fCNQFgECJDC0pO0I2sCy5Ytkz333FO2bt1q9qljIfXr10+OPvpocyWJsZGy1hXsCAEEEEAAAQQQSLsAA8WmnZQCwy6w3377yYIFC+xmHn744bJo0SKz/Omnn0qDBg1k8eLFdjozCCCAAAIIIIAAAsER4ApScPqKmpZRINPjPFjl77PPPnFrZqXHTYysLC09UT7WI4AAAgjkt0Bp549cp+d379D6MAgQIIWhF2lDXIFMjfNg3Vqn5T/zzDNy6623ZmT/cQtlJQIIIIBA3gtk6vxmwXot3yqHbwSCKsAtdkHtOeqdMwF9jbc+b3TCCSfI7bffbt9epxW67bbbZNiwYTmrGztGAAEEEEAAAQQQ8CbAFSRvfuQOkIDbK1K1GcmmH3TQQTJu3DgTIFnPHmn+a6+9VvbYYw8ZOnSoLpaYki2/REZWIIAAAggg4CLg9fziNb9L1UhCIJACBEiB7DYqnYqA13EeYvPryxic05lnniF9+vRxroqaj80flRhZKC09dnuWEUAAAQTyR8AtiCnt/JHp9PzpBVqaLwLcYpcvPU07RcdxcJv8kL5t2za3KpKGAAIIIJCnAqWNg+TGkunzm9u+SUMgiAJcQQpir1FnBBBAAAEEEEAAAQQQyIgAAVJGWCkUAQQQQAABBBBAAAEEgihAgBTEXqPOSQnkehwIr/tPqpFshAACCCCQdwJezy+Zzp93HUKDQydAgBS6LqVBloDXcRxynd9qB98IIIAAAgg4BXJ9fipt/866Mo9AEAUIkILYa9QZAQQQQAABBBBAAAEEMiJAgJQRVgr1o4DbK1K1vn5P96MpdUIAAQQQyL1Ars9fuRegBgikV4AAKb2elOZjgUyPA5Hp8n1MS9VCILB161Z5+umnzSdec6y0Tz75JF5ySusmTpxo9vf555+nlD9epnfffdeU+cILL5RI/vrrr+W8886TZs2amUGdL730UtmwYUOJ7ViBgB8F3IKgTJ9/Sivfj17UCQEvAgXFkclLAeRFwE8C45dOlaPqd/JTlZKui578dBykzZs3S+Nx58jy3qOTzsuGCHgV0EBBAwedbrnlFhk4cGBUkdbAyH/729/k3nvvjUpLdaFv376iQVL//v3ltttuS7WYqHxnnnmmTJ48WapWrSpz5syx0xo2bJjwKvHee+8t//vf/+xtmUHAbwJ1Rp0qi45/XsqXLy86HlJBQYGvqhjkc6+vIKmMbwS4guSbrqAiCCCAgD8EbrrpphIVqVGjRol1QVnRuXNnOzg69thj5eWXX5brr79eiop2jJWugVTHjh2D0hzqiQACCCCQYQECpAwDUzwCCCAQRIHYgGGnnXYKYjNMnRcvXmy+hw0bJiNHjpRu3brJhRdeKAsWLBC9IqbTp59+ar75HwIIIIAAAgRIHAOhFcj0OA+ZLj+0HUPDAiHwyy+/yFdffWXXNVGAtGzZMvM8j96Cp5+mTZvK+vXr7XzOmS5duphtdDu9FS7RNHfuXHs73bZ58+aiz0h5nX7++ecSRejtghpA6a1LTAgERSDT5x+v5QfFkXoikEiAACmRDOsDL1DaOA1+Tw98B9CAwAqMHr3j+bfjjz/ebkO8W+z0VrX27dtHBS8bN24Ufabno48+svPqjAY6ixYtstfpc0L6/FHsdM8990j37t2jVq9du9YEYStXroxaX9YFra/W4/TTTxd9mQMTAkEV4PwV1J6j3kERIEAKSk9RTwQQQCBLAvvvv7/Url3b7M26BS1egHT55Zebba6++mpzFUavxJx44olmnQYh1qRvjrMmDZJ0u4cffthaZX/rVaKHHnrILE+bNs0u87rrrjPr9Na4VKaffvopKpsGb/369bOvUn3xxRdR6SwggAACCOS3AAFSfvd/XrXe7RWpCuH39LzqLBqbc4EZM2aYOkyaNElWr14tsbfYjRkzxq7jxRdfbM+PGDHCnh8+fLiZf/vtt833G2+8Yb9965RTTrG3s2buu+8+M6tv6NIASa/y6Md6u96aNWusTcv0rf/arkGZ1qdOnTol8p500kny0ksvlVjPCgSCIpDr81dQnKgnAskKECAlK8V2gRcobRwHv6cHvgNoQOAE9KUGOrVq1UpiryC99dZbdpqZcfxPnxnSKfbFB506Rb+CX8t1TjpOkU46+oRe4XF+nNulOn/yySfL9OnT7StTt99+u13U0KFD7XlmEPCjgFsQlOvzlx+9qBMCXgQIkLzokTdQAm3atDXjRySqtN/TE9Wb9QhkSsAKGjRgsZ5LsvbVsmVLM/v9999bq+zvX3/91cy3a9fOXhdvRl8E4Zz0JQ461axZ0w5i9MqP8+PcPt58ohdExBsQVgMwKwiMVxbrEPCTgI5/lGjK9fkrUb1Yj0BQBRL/2oLaIuqNAAIIIJA2gZkzZ5qyYl+QYL2FTp8biv2X7VWrVpk8vXr1iqrHBRdcELW8YsWKqGXr+aXff/9dYtP0xQ36xrzSpi+//NJsYj1DNWXKFPOskd6mF1umbsitdaWJko4AAgjknwABUv71OS1GAAEEkhaoVauWdO3atcT2u+yyi7nSowkNGzaUQYMGmasx+pY4nSpXriyNGzc28w8++KD5Hjt2rBxzzDHmBQ3Wdibhz//ttddeJp8utm3b1rwyXJ8P0m311d/6xrzNmzeLBlq6zirDmreWNf8111yjX1KvXj3zrf/TMnWb/fbbTw477DAzb71Zb8iQIfZ2zCCAAAII5LcAAVJ+93+oW+91HIdc5w9159C4QAm88sorces7a9YsO0h588035cUXXzTb6S1y8+bNs/P07t1brNvt9Bmgu+66y6Tp68BjJ81nPe+krwx3vmHuhx9+kIoVK8ZmKbGsL2KwrkZp0OUsQzdesmSJOG8N1LfwXXvttSXKYQUCfhXI9fmptP371Y16IZCsQEHk3vLiZDdmOwT8LjB+6VQ5qn70g+B+r7NVP71Nadu2beZfyBuPO0eW9x5tJfGNgK8F1q1bJxpE6dUdfTtd3bp149ZXA57XXntN9K1ysbffxWbYsmWL6JvytMwePXrIrrvuGruJvTxhwgQzqO3uu+8up512minfTnTMaJnPP/+8aGDXqFEjc2Us9sURjs2ZRcA3AnVGnSqLjn/eDGiszyLpmx79NAX53OsnR+riHwECJP/0BTVJg0CQ/5AmQErDAUARCCCAQAgFCJBC2Kk0ydcC3GLn6+6hcukUiH2QPLZsv6fH1pdlBBBAAAEEVCDX5y96AYGwCRAgha1HaU9CgVyPE+F1/wkbRgICCCCAQOgF3IIgr+cXr/lDj08D806gKO9aTIPzVkDHiXCb/JCuzyAxIYAAAgggECtQ2jhIsds7lzN9fnPui3kEwiDAFaQw9CJtQAABBBBAAAEEEEAAgbQIECClhZFCEEAAAQQQQAABBBBAIAwCBEhh6EXaEFegtHEa/J4et1GsRAABBBDIewHOX3l/CACQYQECpAwDU3zuBHSsFbfJ7+ludScNAQQQQCB/BTh/5W/f0/LsCBAgZceZvSCAAAIIIIAAAggggEAABAiQAtBJVDE9Am6vSNU9+D09PQqUggACCCAQNoFcn7/C5kl7ECBA4hjIGwGv4zzkOn/edBQNRQABBBAoIeAWBHF+KsHFCgQ8CTAOkic+MgdJINPjQKSjfMZBCtIRRV0RQACB7AkwDlL2rNkTAlxB4hhAAAEEEEAAAQQQQAABBP4UIEDiUEAAAQQQQAABBBBAAAEE/hQgQOJQCK2A38eJKK1+oe0YGoYAAggg4EmgtPNHrtM9NY7MCPhAgADJB51AFTIj4PdxIkqrX2ZUKBUBBBBAIOgCpZ0/cp0edF/qjwABEscAAggggAACCCCAAAIIIPCnAAESh0LeCLi9IlUR/JJeUFCQN31CQxFAAAEEvAvk+vzlvQWUgIC/BAiQ/NUf1CaDArkeJ8Lr/jNIQ9EIIIAAAj4VWL91k1QuqCDFxcUJa+j1/OI1f8KKkYBAQAUKIj+4xL+4gDaKauevwPilU+Wo+p0CCaA/RR0HacuWLdJw7FmyvPfoQLaDSiOAAAIIpE9g6JePStH2Arlt3/5SVFQkepeB3+40CPK5N309RUlhEuAKUph6k7YEXkBPejoYYN9GPaT12IGBbw8NQAABBBBIXeDDZTPlmR/flVta9zXnhtRLIicCCJRFoKgsG7MtAghkVkADpMLCQrlj3wEi00XqjDo1szukdAQQQAAB3wpErhXJD0f/x5wXrCtHfrt65Fs8KoaABwECJA94ZPW3gI4D4faqUz+mW1eQ9DaKW1qeLbe37W+/PCL2blg/1t95RFC/4B1/mei/g/93ufyjdX85pG5bZ/GS6vHx6qKP5IQGXWX7lm2B+307AVJtv1UG+cP9+9JbrStWrGiuGuk/mumdBfqxJr/3v1VPvhEIqgDPIAW156h3XIGg3wdtBUH67fzEbSwrEQiAwB6vn2lqueCk/3qu7fu/fC39P70nbeV5rhAFIJBBAecVI+uqkfWdwd2mVHTQz70pNZpMoRbgClKou5fGBU1AT34aGFknRq2/FTQFrS3UFwGngP4ruNfJCo60nGfnvyv99urptUjyI+BrAWdA5Jz3daWpHAIhECBACkEn0oTkBHScCOctCrG5/JIeexK0lv1Sv1g3a5n6BeP4svor9jvT/af78/L7u3X6M1FVvn7akzKg2TH2ukzXn/I5vr0cv+k4fqxzgX3QO2bSUb6X9jmqwiwCoRD464bWUDSHRiCQWMDrOA/kn2k/DxVPGR989C9piSavx8ejc8aUKPr8T+6313ktn/wcv5k8fsN+fNk/RGYQCIkAzyCFpCNpxg4B7oPmSEDAXwK7jeplKrSk9yspV+yYiVfLtJXzpF3tpubbWZCXcp3lMI8AAqkLcO5N3Y6c/hTgCpI/+4VaIYAAAghEBDZt+8MOit7ucZdtctzuXc38fm8NstcxgwACCCCAQDoECJDSoUgZCCCAAAIZEWgz5lxT7oX7nBhV/siuw8zy4g3L5bdNv0elsYAAAggggIAXAQIkL3rk9bWAjhPhNpGOD8dHYgE//D5mr14g67duNJW8oe3ZUZXV+t3RYaBZ137s+VFpuuCH+peolGMF9ePPH8fhUGI26MdHiQaxAoGACRAgBazDqG7yAm6DxGoppFdwxcQHH7cDJBvHR48JO64SPXvgtSWqovu3XvO9vXi7TFz6VdQ22ahf1A5jFtg/v5+YQyJqMezHR1RjWUAggAIESAHsNKqMAAIIhF3gqR/eMU0sV1BOetTvkLC5E4/c8Sa7sz+6I+E2JCCAAAIIIFAWAQKksmixbaAF3F7hqg0jPfErmvHh+Mj27+Par54wf958fdxI851o/y122kOqFlU22/zjm2fNd7z/JcpvbUs6v3/rWIj3zfHhfnzEM2MdAkEWIEAKcu9R9zIJhH0cCtrHOC5uf4kL0vFhjW/UoEodqVuppvmdu9V/xgn/Nts88v0bCf9McMuvmUjn9xOW30+8H0Gmj+94+2QdAkEWYBykIPcedS8hwFgMJUhYgUBOBVIZB8ktT6I0a6ykG/ftK4P2PiGnbWbnCOSbAOfefOvx8Le3KPxNpIUIIIAAAkESGH/EvWWuro6R9Mj3YwiOyixHBgQQQACBWAECpFgRlhFAAAEEcirQpuaeKe3/wn24cpQSHJkQQAABBKIEeAYpioOFMAkEfRwJ6s84KW6/Rz8dH41Hnyn6cU6l1e/zX78VvV1uxu8/ObPZ86XlJ53fh32wxJnh+Mjt8RGnS1iFQKAECJAC1V1UtiwCYR9ngvYxzorb7yGbx8cf27eIfl5d+KFdpdL2f9LkG822W7dvtfM4Z0rLTzrHv/N4iZ3n+Mjt8RHbHywjEDQBAqSg9Rj1RQABBHwm8OkxI0yNLvrsoaRq9s/Zr5rtKpQrL+1rN0sqDxshgAACCCCQLQECpGxJs5+cC7i9wlUrR7r7OBf44JPoR9yo6i5Su0J1k3zll4/G3cx5/Nw18wWzjfV6bl1wpscrgHSOv3jHhbWO4yO3x4fVD3wjEBYBAqSw9CTtKFUg0+NAUD7jqLj9JS3sx8dze15qfoPP//he3N+i1f4zJt9q0pvVaCDVy1ext7XS7RUxM6Tz+8rn35ffj/+YnyuLCARegHGQAt+FNMApwFgMTg3mEciugAY/k3/9RjT4mXTUjtvtnOMWbSveLg1fOc1UaknvV1KqnLO8lAogEwIIpF2Ac2/aSSkwxwJcQcpxB7B7BBBAICwCLx58o2nK3DWLZe2WDSWa1e7NgWZdnyaHl0hjBQIIIIAAAn4RIEDyS09QDwQQQCAEAle3/ptpRZsx50a1ZuH6ZbJi8xqz7t6Og6LSWEAAAQQQQMBPAgRIfuoN6pJWAcbByO04GPjnp/8lLU4xv2N97ffny7+zf9P7vz3YzA/vsuNZJY6P/Dw+rAOC/g93/1v9zDcCQRXgGaSg9hz1jivAfdBxWViJQFYFNDA66X/Xx91nqs8eWYXxDJIlwTcC/hHg3OufvqAm6RHgClJ6HCkFAQQQQOBPgc51mouOcRQ7WeMlxa5nGQEEEEAAAT8JFPmpMtQFgUwK6Ctiy5VL/G8CfksvLi6O4vBb/aIqF1mgfsE6vjLdf98c/4Q0f+Mcezc6TlLDKnUl9ri2Nijr8RNbTlnzW/u1vsnP8evn84Me736un/U74huBsAgk/ttiWFpIOxD4U8Dv40hY9dMTofOjf3HTz4wZ38jWrVvNvLXO+U06Pn46PqoWVpKm1Xez//x5utFFaTl+rQKdxz6/D/58COuff9Y/BMycOUO2bdtmHf4lvq3zR4mEP1dkOj3RflmPQFAFeAYpqD1HveMKBP0+aOtkqH/h03nr21oft9GsRMDHAk3ePEuOqr+fPNJpx8sZvFZVy6tfubZMOfyfXosiPwK+FigoKDBXjfTKkc7rRyfr20+VD/q510+W1MUfAgRI/ugHapEmgSD/IW0FQRoU6b8U6uemmc/ISz9PlvXbNqVJiGIQQAABBIIg0LTqbvJIh4ukZa3GUlhYaIIlZ6DkpzYE+dzrJ0fq4h8BnkHyT19QEwTsq0Yb/9gke43rL32bHCHfnvBvqVpUCR0EEEAAgTwS+GrlXDny/Wuka63mMurAG+yrSPqPaX68ipRHXUNT80CAZ5DyoJPztYnZGGdj06ZN0rBhQ/NR50aNGsnGjRsNeSr71xOfXjlqOm6AvHbILfJAZEBNgqN8PYJpNwII5LNAh9rN5Lder8gnq76Tb1fNt2+5VpNUzi9Oy0znd+6LeQSCKECAFMReo85JCVSoUMF1u3Sk77333vLzzz9LvXr1zL4WLlworVq1MvOplK8BknnuSIrloF1au9afRAQQQACB8AuMP+xOufCr4VEBUirnF6dUpvM798U8AkEUIEAKYq9RZ98InH322SXqsnnz5hLrklmhwZH1SWZ7tkEAAQQQCL+AXkmat36JOT+Ev7W0EAF/CBAg+aMfqEUWBPTKjNuUSvqzzz5rF6n59TXLBx54oL3OOZNs+RokMSGAAAIIIJCsQLLnl0Tlec2fqFzWIxBUAQKkoPYc9S6zQCbGgZg7d6557uiXX36Rpk2bSteuXeWll16KWzev+49bKCsRQAABBPJCwC2I8Xp+8Zo/LzqARuaVAG+xy6vuzu/GtmnT1hUglfSKFSuKPneUzJRM+W4DASazD7ZBAAEEEAingI6HlGhK5vySKK+u95rfrWzSEAiiQOJfWxBbQ50RyLLAjBkzzG11utuhQ4dKjx49slwDdocAAggggAACCCCQTgECpHRqUlbeCZx77rlSVFQk8+fPF52fOHGiNG/ePO8caDACCCCAAAIIIBAWAW6xC0tP0o4SAjrOg9urTNORfvTRR5v9Dhs2TEaPHm3m165da769ll+iQawIvMDiDctl5ur5MvP3+TIr8ln5x1pZ9cc6WblZv3ccN9WKKku18pFPZHDgncpXldY195S2tfaUNpHvljvtEXgDGoAAAt4FvJ5fMp3fewspAYHcChAg5dafvWdQwC040t2mI/0///mPHHPMMbJ8+XLTEh0ktnXrHeMXeS0/gzQUnQWBWasXyCEThsry3qNl07Y/ZPdXz7T3WlBQIM2qN5A6FXeSxlV3lQ61m0rtCtVN+rqtG2Xdlk2i3xo8vTB/ojw2d8fgw7rBwKZHy99bnS4t3zxX5p/0nFQqdB/vy94pMwggEBoBr+eXTOcPDTQNyVsBAqS87Xoang4BfUGDvslu0qRJpjh9Dmn8+PHpKJoyAi6gwdEFzY4zrdAgRgOldE56NUmDrnSXm846UhYCCCCAAAJBFCBACmKvUeeUBPQVqW5vAUo1vVmzZqY+mv+RRx6Rli1byrfffluijsmUXyITKwIpMGrhZFPv29v1N9+xV5ASNapKUcXI1aYtsr048ZhdegXprvYD5f3D75U6o06VLdu3Svly/FGeyJT1COSDQDLnl0yc//LBljbmpwBn1fzs97xstY7z0KpV64RBUirpt912mwmKnKD//ve/nYv2fDLlN2/ewt6emeAKbI4EOc4p9grSL5tWyZLI80iLN6yQZZt/l/VbN8mGyEfzVSwsb26bq1xYURpU2TnyqSuNIp+dK9ZwFmnPbyneJuWFP8ptEGYQCKmABkGJpmTOL+k+/yWqC+sRCIMAZ9Uw9CJtSErA6zgP8fLPmjVLFi9eHAm8WonOb968We677z7p2bNniTrFy+/cSNMZB8kpEt75epVqiX461N5x9TG8LaVlCCCQLgG3K0DJnF/c6uE1v1vZpCEQRAFe8x3EXqPOvhHYfffdTV2uvPJK860Dx44YMcI39aMiCCCAAAIIIIAAAmUTIEAqmxdbIxAlMG7cOBk7dqz069dPTj/9dCkuLpYqVapEbcMCAggggAACCCCAQHAEuMUuOH1FTcsokOlxHrT8mTNnyuzZs03N7rjjDrnuuuvMW+10hdf9l7G5bI5ASgJPP/20nU+viPbo0cNe1pkvv/zSHOfWynPOOceaDcS3vjDliy++iKqrvuJYxzCrWbNm1HprwWlirdNvvZW2U6dOzlXMI5ATAa/nl0znzwkKO0UgjQIESGnEpCh/CWR6nAer/BYtWsiKFSukRo0aokGSNVnp1nLsd2npsduzHG6BM/95i6zbtEHe/PvdWW3otddeG7U/fabOOemVUR3fy5qCFiBNmTJFbr75Zqv69vcVV1xh5ps2bWq/pt9KjDWx1lvfTZo0kQ8//NBa5BuBrAuUdv7IdXrWQdghAmkW4Ba7NINSXH4JTJw4Udq2bStvvfWW+ehfthYtWpRfCLTWs8C7M6bK+GmfyZTvZsjLn7zvubx0FuAMjtJZbi7KatSokejHOc2bN0/22GMP5yp7vn379qLBkn4uuOACKSwsNGk//vhjibdX2pmYQQABBBAIvAABUuC7kAYkK+D2ilQtI5V0/Vfob775Rvr27Ws++petgw46KG6VUik/bkGsDJ3A6f93ozwx6Gp59YrbZdDj98nWbduy3sZDDjnE7FOPZ2uygiMN/MMwffLJJ6IfvUqmn7PPPts0a+vWrXL77beXaGLr1q1lyJAh5nPjjTeKDgxtTYle52+l841ANgW8nl+85s9mW9kXAtkQIEDKhjL78IWAjhPhdhJIJX3vvfe222bl13u7401Werw0XVdaeqJ8rPefwKRfv5GqRZWSqlirYWdLvZq15ZTOB0v3lu2lab3dpcnFpyWVVzf6aNnMpLd129C6rezOO++0N3vggQfM/DXXXGOvi50ZMGCANGjQwP7ce++9sZvYafoa/H322cde1nHEYid91b1zmz59+shNN91k8ui8c1q2bJm5+mPtXwO59evXOzdxnb/rrrtE3zypU1nfPqlXl5gQyKZAus9fzrqXdv4pLd1ZFvMIhEGAACkMvUgbkhLQcR5KG0eirOl6280jjzxixi9q1mxvnleT3AAAQABJREFUcxVp7ty5cevjdf9xC2Wl7wTmrl0sr/38kbx00PWl1m3z1i2ydNUK+faB5+xtP79jZORZpI2y9PcV9rpEMwP26il/++gO2bgtflCeKF+89dZVosmTJ9vJjz76qJmPN66XJuitaePHj7e315kHH3xQGjZsGLXOWtBnd9atW2ctmt/OhAkT7GX9C6DeAufc5oMPPpAnnnjC3saaefnll0WDFL36Y016xUv/0eKjjz6yVpX6rUFSomnlypXmBRX6Mpb3339funXrZm/6+OOP2/PMIJANgbKen5x18nr+KS2/c1/MIxAGgaIwNII2IJBNAX3DlfMqUVFRkTz55JOmCnqb0vPPPy/nnXdeNqvEvnwiUGfUqaYmFzQ7Tvav06LUWvUfcYfUqlbdbLd41XJZs2G9tGiwh7Tfc2859q6/y1d3/du1jHs6nCdfrpwjDV8902y3vPdo1+3dEjds2FAi2e1frK+//no7ONHn7goKCszvYs899zRXak855RR59dVXS5Spt6npszwaRGn5ehXpyCOPNNvttdde5nunnXYSffucTvPnz48KTMzKyP8uv/xyM3v11VfLxRdfbOYHDx4sb7zxhnnlfuzLJqx8sd+HHnqovUpf06/tsCbr2UJrWb/Lly8vI0eOdK5iHgEEEEAgZAJcQQpZh9KczAvoW7w0AEr0WbJkSeYrwR58KfDwfhdJtaLK8tjcsUnV753Iixnu/tuFZttrX3hMznvsHjM/4txhMn/Z0lLLWLNlg0xf9aPsXWN3eeXgG0vd3m0DDZDOPHNHoKVXdX799VezeaJn6v7zn/+Y9EmTJtlBhb45S/+BQKfPPvvMfDv/9/XXX9svOrjvvvtM0g8//GBvYv3DgxUcaULjxo2lc+fO9jY6M2bMGHvZCo50hfM2ueHDh9vbuM3UqlXLTo4NCA844ABzRUyviukbKjt27ChbtmyR/v37y7nnnmvnYwYBBBBAIFwCBEjh6k9a4xCw/rLlWBU1m470BQsWiN5+pLfe6KdZs2aydu1asx+v5UdVloVACJzZ+FCZf/JzUqWoovSZ8tezPG6Vb9Nox1WTwnLlZHvxNrPpPrvFv0UttpwWbw6Qg3dpIx8f9ZB033Xf2OQyLeuzO3o1RicNBu65Z0ewps8fxbu6ZBVu3ZpnLXfv3t2aLfG9yy672OsSvTnO3sAxc/DBBzuWxLwxUlfouESxU/Pmzc2qTz/9NDYp7rKO82RN1lvqrGW9otW7d2/z0X8Y0cBMr1Dp9M4771ib8Y1A1gW8nl8ynT/rIOwQgTQLECClGZTi/COQjXEgTj75ZPMXJb1tSMdb+de//iVnnHGGQfC6f/9IUpOyClzV6gwZv2RqUtmmzZ9jttMAaVvkljOdVq5bY75L+9/mbVtk5P5DS9ssqXQNkOrUqWO21efoXnzxRTO/7777ugZIzmeAktpREhvpPzw4p1GjRjkXpWXLlmb5+++/j1qvC9aVr3bt2pVIi7fikksuibc64TrnQLE6/hkTArkQ8Hp+yXT+XJiwTwTSKUCAlE5Nyso7gRNPPNG0eeDAgeZbn6Ww1uUdBg22BXYqX9Wed5s5o9vhMuTJ/zOb6APYVoDU844rpG6Nmm5Z7TS9WpWOybpKpM/UxU7x3gxXqVIls1nsCxysW8/cHiiPLd9atq4w6a1tOhCrvnRBA5jYgMm6FVCDs9jb4latWmWK69Wrl1Vswu9LL73UHrfMeo4w4cZ/Jlhv9tPFnXfeubTNSUcAAQQQCKAAAVIAO40qpyYQ+xep2FJSSbfGQtFXJJf24HYq5cfWkeVwCYw4d6j5C37TS86QonKFZvyjE+65Wub9ski++78dz/Jkq8VWgOS8onLaaaeZ3Vtpzrro80Q6zZ49W/Qq08MPP2xuM7VuPfviiy+cmyc1b5WpG+uVWL19b/Toki+e0ECqZs0dAaS+7GHQoEEybNgw8ypwzVu5cmXz7JLOOyfrdeDW9yuvvGKSq1SpIkcddZRzUzP/7LPP2q8kt/Lcf//9Jq1atWoltmcFArkS8Hp+8Zo/V+1mvwhkSoAAKVOylOs7gdLGcUglXW+t06tH+mYrfZZB/xKV6NmHVMr3HSIVSrvAyiffFr297r9T3pOFy3+VKd/PkKUj37BffJD2HSYo0AqC9KqKNVnPJMW7glSjRg0ZN26c2XT58uWir8vWN87ppG96rFevnpkv6//07XP64gUNfPQZo9dff928FCG2nFmzZtkB0ZtvvmnfEqiBkw7YnOykL3NI9Gr+RGXoc07xbu9LtD3rEUiHgFsQ4/X84jV/OtpHGQj4SaAg8lrTYj9ViLog4EVg/NKpclT9Tl6KKFPe9957Tw4//PCoPDouTLx/jY7aKM6Cnvx0kEwdTLPxuHPEyyub4xTPqiwKPPfTRLls6ogy9eHgJ+6X92ZOlTkP/jfpmuprxRee8oJUKUzPbXZJ7zhmQ33r3fTp080YRF5uMf373/9uSm7RokVUUKTP/SxdutQMGHv++edH7X1dZFwlvRKkvxt9tXjdunWj0llAIAwC+ltfdPzz5h/j9PZV5+vo/dC+bJ97/dBm6hBugZI3m4e7vbQOgbQK6ECasQHSgAEDJNkxWNJaGQoLtMBhbTrKdgnmv1fps3fWWEZeOmH33XeXu+++2xTx8ccfi75iXG9j1eBIp7POOst8O/+nt7r169fPuYp5BBBAAAEEPAkQIHniI3M+Cui4LXpLj046QKaOkWJN+i97qTx7YeXnO38FenXpLvrJ50mff9JxlfQ21bffftt8LA8dX0mfFWJCAAEEEEAg0wIESJkWpvycCeg4D26vMk01XcdGueyyy0Tz6wPqOh9vSrX8eGWxDoF8EYj3UoZ8aTvtRCBZAa/nl0znT7YdbIeAXwV4SYNfe4Z6eRZwC4608HSkP/bYYyXq2b17d7POa/klCmYFAggggAACEQGv55dM56eTEAi6AAFS0HuQ+udUoEOHDqJv/dJnJ2655RbzrbcGMeW3wIG7tM44wObtW8w+cv2Chow3lB0ggAACCCCQZQECpCyDs7vcCbi9IlVrlUr6oYceKg899JDoW7duuOEG80xS79694zYylfLjFsRK3ws0rrqr1Km4k+ibpzIx/bZ5tTQYfYb0qNc+E8VTJgIIBEzA6/nFa/6AcVFdBEoV4BmkUonYICwCOs5Dq1atRV+kEG9KJX3VqlWmqGuuuSbyYPknsv/+XWXatGnxipdkym/evEXcvKwMnsB3JzwpGsjotGnbH7L7q2eWaETlyOu5a1esHgmmakS+a0iN8lVk87YtZvuNkTyLNvwmSzauEOdoDOc27Sl3tz9PfjrpWake2Z4JAQTyQ8AtiEnm/JLu819+qNPKfBUgQMrXns/Ddrdp09a11amk16pVS3r06CETJ040Y8Dccccd0rlz57j7SaZ8HQeJKTwCdSNXkXSqVFjBjImkAdPs1QtlwfpfZfGG5ZHPikgQ9bus37pJVm5eI0siy5UKy0vFyPYaPB2ya1vZvUpdaRT5tKvdVJrXaGjjEBzZFMwgkBcCif5xTxufzPnFDclrfreySUMgiAIESEHsNersG4H777/frsucOXPkt99+k169etnrmEHAKaABU91d2kRW6YcJAQQQQAABBPwoQIDkx16hToEReO211+S7776Tli1byoknnih169YNTN2pKAIIIIAAAggggEBJgfgPY5TcjjUIBE5Ax3lwm7yk9+3bV1q3bm1etdq/f3+pXr26dOnSRYYMGWLv0kv5diHMIIAAAgggECPg9fyS6fwx1WURgcAJECAFrsuocLICmRrnYcKECbLHHnvIzJkz5dhjj5V69erJYYcdJp999lnkJRCtxHrNt9f9J9tOtkMAAQQQyC8Br+eXTOfPr96gtWEU4Ba7MPYqbcqowIgRI+T111+Pu4/BgweblzQcc8wxcdNZiQACCCCAAAIIIOBvAa4g+bt/qF0aBdxekaq7STZ97ty5cWtl5V+yZIlretxEx/4LCgoSbcJ6BBBAAAEESghY558SCX+uyHR6ov2yHoGgChAgBbXnqHeZBXScCLeTRLLpiV7FbeV3jlnjrKSV7lznnC8t3bkt8wgggAAC+SGgwwBULqgQNR5abMtLO39kOj22PiwjEHQBbrELeg9S/6QFvI7z4Mx/1FFHJb1fa0Nnfmud87tt231Fgy+3IM65PfMIIIAAAuEXuGH6U3LmHt2lsLBQEt1hUNr5JdPp4e8FWphvAgRI+dbjtNezgL7WO1OTnvx0MMC+jXpI67EDZeZxT2RqV5SLAAIIIOBzgQ+XzZRnfnxXfj7uOXNu8Hl1qR4CoREgQApNV9KQMAhogKT/SnjHvgNEpovUGXVqGJpFGxBAAAEEUhAokAL54ej/2FeP9ByR6CpSCsWTBQEEEggQICWAYXXwBXScB7dXmfox3bqCVFRUJLe0PFtub9vfvuUu9tkmP9bfedRQv+Adf/TfXwIcvxy/uTx/bNmyRSpWrGiuGuk/mumdBfqxJr8fn1Y9+UYgqAIFkb90FQe18tQbgViB8UunylH1O8WuDsyy9XPUb+cnMA2goggggAACaRGwrhZZ31qoX68eBf3cm5YOo5BQCXAFKVTdSWOCLqAnPw2MnCdEK2gKetuoPwIIIIBA2QScAZFzvmylsDUCCJRVgACprGJsH1gBfTuc8xaF2Ib4JT32JGgt+6V+sW7WMvULxvFl9VfsN/1H/wXhz8fY49Zazofj1zoXWG12fue6/c66MI9AGAT+uqE1DK2hDQi4CGR6HAjKT884U4m6EF989S+BiSaOD44Pjo/c/T4S/S5Zj0BQBXgGKag9R73jCnAfdFwWViKAAAIIIJAxAc69GaOl4BwJcAUpR/DsFgEEEEAAAQQQQAABBPwnQIDkvz6hRggggAACCCCAAAIIIJAjAQKkHMGz28wL6DgRbhPp+HB8JBbg98HvI/HRIcLxwfHhdnyQhkDQBXgGKeg9SP2jBLgPOoqDBQQQQAABBDIuwLk348TsIMsCXEHKMji7QwABBBBAAAEEEEAAAf8KECD5t2+oWZoF3F4Bq7siPfErYvHh+OD3we/D7Y9kjo/8Pj7cjg3SEAiiAAFSEHuNOqckwDgpjJPi9pc4jg+OD46PxH/J5/fB78Pt95HSSZlMCPhYgGeQfNw5VK3sAtwHXXYzciCAAAIIIOBFgHOvFz3y+lGAK0h+7BXqhAACCCCAAAIIIIAAAjkRIEDKCTs7RQABBBBAAAEEEEAAAT8KECD5sVeoU1oEGKeDcTrcDiSOD44Pjo/EAvw++H0kPjqix8HaVrxdisoVum1OGgKBE+AZpMB1GRV2E+A+aDcd0hBAAAEEEEivwLerF0hhQTnZp0bD9BZMaQjkUIArSDnEZ9fpF2hUdRf5YNk36S+YEhFAAAEEEEAgSmDlH2vl5w2/ERxFqbAQBgGuIIWhF2lDlMDsNQtl4fplUetYQAABBBBAAIH0ChQUFMgR9TpIQeQ/JgTCJECAFKbepC0IIIAAAggggAACCCDgSYBb7DzxkRkBBBBAAAEEEEAAAQTCJECAFKbepC0IIIAAAggggAACCCDgSYAAyRMfmRFAAAEEEEAAAQQQQCBMAgRIYepN2oIAAggggAACCCCAAAKeBAiQPPGRGQEEEEAAAQQQQAABBMIkQIAUpt6kLQgggAACCCCAAAIIIOBJgADJEx+ZEUAAAQQQQAABBBBAIEwCBEhh6k3aggACCCCAAAIIIIAAAp4ECJA88ZEZAQQQQAABBBBAAAEEwiRAgBSm3qQtCCCAAAIIIIAAAggg4EmAAMkTH5kRQAABBBBAAAEEEEAgTAIESGHqTdqCAAIIIIAAAggggAACngQIkDzxkRkBBBBAAAEEEEAAAQTCJECAFKbepC0IIIAAAggggAACCCDgSYAAyRMfmRFAAAEEEEAAAQQQQCBMAgRIYepN2oIAAggggAACCCCAAAKeBAiQPPGRGQEEEEAAAQQQQAABBMIkQIAUpt6kLQgggAACCCCAAAIIIOBJgADJEx+ZEUAAAQQQQAABBBD4f/buAz6Kam3g8JsEQrWAgCBFmkBIKCIqoqJSDIgX7F2wF+61YflQVOxiu9euKIqC5doRvRSliSKKopCCIggaQESQDsKa8u07ccbdZLPZ2dk+/+E37JRzZs55ZjKTk3fnDAKpJEADKZWOJnVBAAEEEEAAAQQQQAABRwI0kBzxkRkBBBBAAAEEEEAAAQRSSYAGUiodTeqCAAIIIIAAAggggAACjgRoIDniIzMCCCCAAAIIIIAAAgikkgANpFQ6mtQFAQQQQAABBBBAAAEEHAnQQHLER2YEEEAAAQQQQAABBBBIJQEaSKl0NKkLAggggAACCCCAAAIIOBKggeSIj8wIIIAAAggggAACCCCQSgI0kFLpaFIXBBBAAAEEEEAAAQQQcCRAA8kRH5kRQAABBBBAAAEEEEAglQRoIKXS0aQuCCCAAAIIIIAAAggg4EiABpIjPjIjgAACCCCAAAIIIIBAKgnQQEqlo0ldEEAAAQQQQAABBBBAwJEADSRHfGRGAAEEEEAAAQQQQACBVBKggZRKR5O6IIAAAggggAACCCCAgCMBGkiO+MiMAAIIIIAAAggggAACqSRAAymVjiZ1QQABBBBAAAEEEEAAAUcCNJAc8ZEZAQQQQAABBBBAAAEEUkmABlIqHU3qggACCCCAAAIIIIAAAo4EaCA54iMzAggggAACCCCAAAIIpJJAWpl3SKUKURcEEEAAAQQQQAABBBBAAAEEEEAAAQQQQAABBBBAAAFnAnzDzpkfuRFAAAEEEEAAAQQQQAABBBBAAAEEEEAAAQQQQACBlBMggJRyh5QKIYAAAggggAACCCCAAAIIIIAAAggggAACCCCAAALOBAggOfMjNwIIIIAAAggggAACCCCAAAIIIIAAAggggAACCCCQcgIEkFLukFIhBBBAAAEEEEAAAQQQQAABBBBAAAEEEEAAAQQQQMCZAAEkZ37kRgABBBBAAAEEEEAAAQQQQAABBBBAAAEEEEAAAQRSToAAUsodUiqEAAIIIIAAAggggAACCCCAAAIIIIAAAggggAACCDgTIIDkzI/cCCCAAAIIIIAAAggggAACCCCAAAIIIIAAAggggEDKCRBASrlDSoUQQAABBBBAAAEEEEAAAQQQQAABBBBAAAEEEEAAAWcCBJCc+ZEbAQQQQAABBBBAAAEEEEAAAQQQQAABBBBAAAEEEEg5AQJIKXdIqRACCCCAAAIIIIAAAggggAACCCCAAAIIIIAAAggg4EyAAJIzP3IjgAACCCCAAAIIIIAAAggggAACCCCAAAIIIIAAAiknQAAp5Q4pFUIAAQQQQAABBBBAAAEEEEAAAQQQQAABBBBAAAEEnAkQQHLmR24EEEAAAQQQQAABBBBAAAEEEEAAAQQQQAABBBBAIOUECCCl3CGlQggggAACCCCAAAIIIIAAAggggAACCCCAAAIIIICAMwECSM78yI0AAggggAACCCCAAAIIIIAAAggggAACCCCAAAIIpJwAAaSUO6RUCAEEEEAAAQQQQAABBBBAAAEEEEAAAQQQQAABBBBwJkAAyZkfuRFAAAEEEEAAAQQQQAABBBBAAAEEEEAAAQQQQACBlBMggJRyh5QKIYAAAggggAACCCCAAAIIIIAAAggggAACCCCAAALOBAggOfMjNwIIIIAAAggggAACCCCAAAIIIIAAAggggAACCCCQcgIEkFLukFIhBBBAAAEEEEAAAQQQQAABBBBAAAEEEEAAAQQQQMCZAAEkZ37kRgABBBBAAAEEEEAAAQQQQAABBBBAAAEEEEAAAQRSToAAUsodUiqEAAIIIIAAAggggAACCCCAAAIIIIAAAggggAACCDgTIIDkzI/cCCCAAAIIIIAAAggggAACCCCAAAIIIIAAAggggEDKCRBASrlDSoUQQAABBBBAAAEEEEAAAQQQQAABBBBAAAEEEEAAAWcCBJCc+ZEbAQQQQAABBBBAAAEEEEAAAQQQQAABBBBAAAEEEEg5AQJIKXdIqRACCCCAAAIIIIAAAggggAACCCCAAAIIIIAAAggg4EyAAJIzP3IjgAACCCCAAAIIIIAAAggggAACCCCAAAIIIIAAAiknQAAp5Q4pFUIAAQQQQAABBBBAAAEEEEAAAQQQQAABBBBAAAEEnAkQQHLmR24EEEAAAQQQQAABBBBAAAEEEEAAAQQQQAABBBBAIOUECCCl3CGlQggggAACCCCAAAIIIIAAAggggAACCCCAAAIIIICAMwECSM78yI0AAggggAACCCCAAAIIIIAAAggggAACCCCAAAIIpJwAAaSUO6RUCAEEEEAAAQQQQAABBBBAAAEEEEAAAQQQQAABBBBwJkAAyZkfuRFAAAEEEEAAAQQQQAABBBBAAAEEEEAAAQQQQACBlBMggJRyh5QKIYAAAggggAACCCCAAAIIIIAAAggggAACCCCAAALOBAggOfMjNwIIIIAAAggggAACCCCAAAIIIIAAAggggAACCCCQcgIEkFLukFIhBBBAAAEEEEAAAQQQQAABBBBAAAEEEEAAAQQQQMCZAAEkZ37kRgABBBBAAAEEEEAAAQQQQAABBBBAAAEEEEAAAQRSToAAUsodUiqEAAIIIIAAAggggAACCCCAAAIIIIAAAggggAACCDgTIIDkzI/cCCCAAAIIIIAAAggggAACCCCAAAIIIIAAAggggEDKCdRIuRpRIQQQQCDFBMqkTL7ftlpW79ogZWVlKVY7qoMAAggggAACCCCAAAIIIOAmgbS0NGlZt7F02rulpHn/MSCAAAIIJK5AmvePkfw1MnGPDyVDAAGXC3y3rUiKdv4mtTIypeu+baRh5l4uF6H6CCCAAAIIIIAAAggggAACySywybNd8raskj0lHmlVr4lk7d0qmatD2RFAAIGUFiCAlNKHl8ohgEAyCyzzPnX00871xjezOu9zYDJXhbIjgAACCCCAAAIIIIAAAggg4CewdOvPRk8brevtLx29TyMxIIAAAggkngDvQEq8Y0KJEEAAAUNgzR8bjc9Av0h7PB7RMdyB/Phx/vDzw/UjPAGun1w/uX5y/Qzv6iHG726cP5w/nD/hCXD/Tc37r9nWNdu+4Z0d5EIAAQQQiKYATyBFU5dtI4AAAg4EZqz72sid26yng62QFQEEEEAAAQQQQAABBBBAAIHEFKDdm5jHhVIhgAACpgBPIJkSfCKAAAIIIIAAAggggAACCCCAAAIIIIAAAggggAACCBgCBJA4ERBAAAEEEEAAAQQQQAABBBBAAAEEEEAAAQQQQAABBPwEavjNMYMAAgggkPQCpaWlUlhYYNQjOztH0tPtfVeA/Phx/vDzoxcQrh9cP7l/cP+080sRvz/w+wO/P/D7A78/8PtTOL8/2rnXkBYBBBBAIPYCvAMp9ubsEQEEEAhJwElf0PpHHB3s/vHPLBj58eP84eeH64e94AHXz3IB7h/cP7h/cP/g/sH9w7wn2vnk/uHe+4eTdq+dc4y0CCCAAALhCfAEUnhu5EIAAQQSWiDchrtZKfKH1/DHr1yA84fzx/xZCOeT84fzJ5zzxszD+cP5Y54L4Xxy/nD+hHPemHk4fzh/zHMhnE+3nz/hmJEHAQQQQCA2As7u8LEpI3tBAAEEEEAAAQQQQAABBBBAAAEEEEAAAQQQQAABBBCIoQABpBhisysEEEAgUgIej0d0DHcgP36cP/z8cP0IT4DrJ9dPrp9cP8O7eojxuxvnD+cP5094Atx/3X3/De+sIRcCCCCAQCQEeAdSJBTZBgIIIBAFAfqCjgIqm0QAAQQQQAABBBBAAAEEEEgYAdq9CXMoKAgCCCAQUIAnkAKysBABBBBAAAEEEEAAAQQQQAABBBBAAAEEEEAAAQQQcK8AAST3HntqjgACCCCAAAIIIIAAAggggAACCCCAAAIIIIAAAggEFKgRcCkLEUAAAQSSVqC0tFQKCwuM8mdn50h6ur3vCpAfP84ffn70AsL1g+sn9w/un3Z+GeL3B35/4PcHfn/g9wd+fwrn90c79xrSIoAAAgjEXoB3IMXenD0igAACIQk46Qta/4ijg90//pkFIz9+nD/8/HD9sBc84PpZLsD9g/sH9w/uH9w/uH+Y90Q7n9w/3Hv/cNLutXOOkRYBBBBAIDwBnkAKz41cCCCAQEILhNtwNytFfv+Gf1lZmUlT6TPYOrMhXClTiAvIX96QDpGrUjL88Kt0UthYwPnD+WPjdKmUlPOH86fSSWFjAecP54+N06VSUs6f6J8/aWlpldwDLauUKMgCt7e/gtCwCgEEEEAgzgIEkOJ8ANg9AggggEDiClQMDpnzVX0mbk0oGQIIIIAAAggggAACCDgVMANFVX2a7QRzvdP9kR8BBBBAAIF4CxBAivcRYP8IIIBAGAIej8fIlZmZGUZuEfIH9zMbfiauzvuOu3fvNuZr1qxpLfdNa05X9Yl/cP+q3Mzl+OGn5wLXP67/5jXBzifXD64fXD+4fnL/4P5h576haTUYZN4/atWqZczrMh31ySFz2vzUPGZ7QpfpYObn/Avv/DMQ+Q8BBBBAIC4CBJDiws5OEUAAAWcC4TY8zL2SP7SGi2/QSLsD0XFPsUfuXPqKTCqaLd6wkknKJwIIIIAAAggggAACCLhEwBs+kvNb9ZUx2edJrRqZRiCpYjDJl4L2V2jtL18zphFAAAEEEkOAAFJiHAdKgQACCCCQIALmtwV9g0clJSVG8Gh03gSZWDQrQUpKMRBAAAEEEEAAAQQQQCAeAvpFMm0X6DisVT+5t+uFxlNHGRkZVnH06SNtU5hPIVkrmEAAAQQQQCCJBPzfEp5EBaeoCCCAAAIIRFtAG3zmk0djCiYSPIo2ONtHAAEEEEAAAQQQQCDJBDSIpG0Fs91gfiEtyapBcRFAAAEEEAgowBNIAVlYiAACCCSvgDZcCgsLjApkZ+cY3SnYqQ35S6WgIN/4tmBWVmeDTk3eWD3PDiNpEUAAAQQQQAABBBBAwCUCr/88V04t7SZdu3Yznjgyg0ihPH3k9vaXS04RqokAAggkrUCa96bGCxyS9vBRcAQQSGWBGeu+NqqX26yn7WpqI0QH7Yc7nMHN+fW2qF3WmbdHndbxwKnDwqEkDwIIIIAAAggggAACCLhAYNXAl6RmzZqi3dgFex9SIAo3t7+ctHsDWbIMAQQQQCCyAjyBFFlPtoYAAggkhEC4gSOz8ORPNwJIZkPODCaZPnwigAACCCCAAAIIIIAAAr4CoTxt5Jved9rt7S9fC6YRQAABBBJLILyvpidWHSgNAggggAACCCCAAAIIIIAAAggggAACCCCAAAIIIIBABAUIIEUQk00hgAACsRLweDyiY7gD+Z35hetOPgQQQAABBBBAAAEEEHCfAO0v2l/uO+upMQIIpIoAXdilypGkHggg4CqBzMxMR/UlvzM/R/hkRgABBBBAAAEEEEAAAVcJ0P6i/eWqE57KIoBASgnwBFJKHU4qgwACCCCAAAIIIIAAAggggAACCCCAAAIIIIAAAgg4FyCA5NyQLSCAAAIIIIAAAggggAACCCCAAAIIIIAAAggggAACKSVAACmlDieVQQABBERKS0slPz/PGHXa7kB+Z352vUmPAAIIIIAAAggggAACyS9QWFhgtMXs1sTt7S+7XqRHAAEEEIitQFqZd4jtLtkbAggggEAoAjPWfW0ky23WM5TkfmnMwFF6enjfE3Bzfr0tlpSUiHl71Oni4mJpPW24nzEzCCCAAAIIIIAAAggggIApsDJ3gui7jjIyMkTbYWlpadZopqnq083tLyft3qo8WY4AAgggEDmBGpHbFFtCAAEEEEgUgXADR2b5yZ9uBJDMhpzpwicCCCCAAAIIIIAAAgggEEjASRvKSV4tS7LnD+TJMgQQQACBxBAggJQYx4FSIIAAAq4UWL16tZxxxhlSVFQknTp1kvbt20vDhg1lw4YNsmzZMlm5cqX07dtXXnjhBePbfK5EotIIIIAAAggggAACCCCAAAIIIIAAAgjEQYAAUhzQ2SUCCCDgVMDj8Rib0C4SwhkSIf8HH3wgo0aNkgULFkijRo2qrMYbb7wh3bp1k6VLlxpdQGjCeJe/ysKyAgEEEEAAAQQQQAABBBCoIBDv9kuy778CJ7MIIIAAAjEUIIAUQ2x2hQACCERKINzAkbn/RMj/7bffSp8+fYIGj7S8PXr0kG3bthlPI7Vr186oQrzLbzryiQACCCCAAAIIIIAAAghUJxDv9kuy7786X9YjgAACCERPILy3q0evPGwZAQQQQMAlAvfcc49oQGjIkCGSl5dXqdY7d+6Up556Si6++GKZNWuWkbZSIhYggAACCCCAgG2BOhnhPcFse0dkQAABBBBAAAEEEEAAgaQW4AmkpD58FB4BBBBIDoErr7xS/vjjj4CF1Xce/fvf/w64The2bdtWxo4dKy+99FKVaViBAAIIIBC+wH619paCE8bb3sCqnb/KI9+9Ke+s/sx23lTM0LjWPjLogMP8qvZm0Seyu6S821m/FWHMvHHUrdKncVcr586S3dJ+yjBrvuJEh71byKjOZ8mgZv5lqpjOnN+wZ6s88v1b8sqqmVJSVmou5hMBBBBAAAEEEEAAAQRcLEAAycUHn6ojgEBqCpSWlkphYYFRuezsHElPt/ewaTTyP/PMMyFjR2P/Ie/cm1D3X1CQL2VlZZKV1dlOVtIigAACrhJoU6+pPNnzamP8bluR5M4ZJX+WFrvKwLeyB9ZvKg90v9R3kUz7ZWHEAkh+Gw4y071he5nS5y6pmWavqacBsLHdLjHGzZ4dcub8uyV/y6oge2IVAggggICvgLbBunTpKhkZGb6Lq51OhPZPPNuP1QKRAAEEEEAgrgL2WhVxLSo7RwABBBAIRUADRho40sFu8MjME8v8b7/9tjz44IOydu1ao8yvvPKKHHPMMTJnzhwZOLClXHfddXLDDTcY60L5L1L11wCSDiUlJaHsljQIIIBASgm8VTRPrl70ZMA6ta3fTG7qfKYMbd7bWp+1dytZNeQV6TljhPz6xyZrOROxFTi+aU95+Yib/Hb6254tctGXD8ui33/wW27OtK63v9zRdbjkevOaQ4PM+vLQwZfLZQv/LUU7fzMX84kAAgggEERAv3yWDO2vilWIVPtJtxtO/SuWh3kEEEAAgcQSIICUWMeD0iCAAAIREXD6i3ss8hcWFsqgQYPkkUcekYULFxr1PvTQQ41P3X+/fv2MoNKYMWOkW7dusmTJkpBtIlF+DSDptwEZEEAAAQT8BVbuWCdXLHxUPmz+hTx/2EhrZUZaupzTuq/8+7u3rWWBJjQ40dEbcOro7WKtSa19RQMcq3dukPkbCmRP6Z+BsgRddtBezaV7g3bS0NsVX4Oa9WXLnztlvTeItW73ZinYslJ2FO8Omr/iyi77thEd96/dQHZ68363tUiWbvtZft+zrWLShJu/qF1upTJdu+jpKoNHmvinnevlggUPSrr3+L3U60Z5/ac5Mm1d+X250sZYgAACCCBQpYCTNoiTvFqgZM9fJSorEEAAAQTiLkAAKe6HgAIggAAC7hR47LHHZNiwYXL66acHBRg1apSMHz9evvrqKzEDTEEzsBIBBBBAICYCe0oqB3ta1Glcad810jJkdPY5cmn7waJBpuqGeRvy5OIvHq4y8KPbePrQa2RI8yOq25S1/pc/fpdBc2+W33ZvsZaZExo4GZV1plzV8WRzUZWff5YVy5i8l2XCyhlWms+Pf1y0O79AQ94Jz1uLdxT/IQd9MNyaj8bE7PWL5Zgm3fw2/VrvW2TW+m/k+RXT5LMN+VW+36jU+96jYQse8MvLDAIIIIAAAggggAACCLhbgACSu48/tUcAgSQV8HjKX8idmZkZVg0SIf/xxx8vo0ePlhEjRsgBBxxQZT0eeOABb1/iXfyCR/Euf5WFZQUCCCDgAgENCF120GC5Lfu8SrV9fNm7fssObniQfHjM3ZLu/WcOa//YKHflT5KFv38v670Bnax9WskpLY6Sf3YYaiTp07irLP/HRHluxf9kTP7LZjbjM03S5NMBj/oFbDZ5tstN3z4v071PzZR4gyA6aLds47xPR3X1PkmkwwF19pOFuU9J+ynDpLjs765Jz/U+MfXwwVcYacz/tvy5Q/63dqEs2rRM6tWsI30ad5EBTQ8xVut7he7rdrHc6e3yrc/H1xlP7xw/+yZJ8wahejQ4SP575GhzM8bnkR9fIxv2bDWmza5R/RJEeEbNujdoLye3ONJvy/327yE6BhoKtv4kc9cvkRm/fi1f/74sUBKWIYAAAgg4FIh3+yXZ9++Qn+wIIIAAAg4E0rwNmfKXPDjYCFkRQAABBCIvMGPd18ZGc5v9/U6CyO8lvltcvXq1EUDS7um0m7rvvvvOCBTVrFlTFi1aJFu2bJG7775bLrroopgVVG+L5qhd2Ok7kIqLi6X1tOh+azxmFWRHCCCAQAWB/bxdvxWcML7CUnuzy7evlRM/GS3b/txlZezdKFveOXqMNa8TI756TN5bM99vmTmTmV5Dvh74jDSutY+5SEYtGS8vr/zImq9fo44c0aiz7O0N7NSvWdf7WVfe+HlupSeL9q+9r5zc8mgZk3O+lVcn9CmkxZt/NJZd2+lU+T/vk0e+w0Dv+iV/rfddrtMTj/g/4+kefT/U08vfF+3Kz3fouV9H+aDP3b6LpOvUS60Akt+KMGbeOOpWbzCrq5VzZ8luIyBmLfCZUMvhbY+XazqeIvtl7u2zJrTJh75/s9quCEPbEqkQQAAB9wj8NOhlqVGjhmRkZBhdyqWleb/28NfoHgX7NXVDu9e+CjkQQACBxBHgCaTEORaUBAEEEHCdQMuWLeWDDz5wXb2pMAIIIJAKAvruouFfPCiLN60IWJ3z2wyotFy7ntMx1OHSdoP9AkjaDdzHvy4ysh/bpLv3nUvHyZX9hoi+V8nucF7rfn5ZHv3+nSqDR5owmbp385QWe7usm2qMvpVsU7+p9GzYQQ7xjofvlyWd9m7pu9qavrHTGTKy42nSfdplsjEJ3v1kFZwJBBBAAAEEEEAAAQQQiKgAAaSIcrIxBBBAAIFAAl27dpXff/9d9MkifY9R37595bjjjpNOnToFSs4yBBBAAIE4C+hTNlcvetKvFGO7XyLD2xxvLWtSa1/j3UFnzb/XWuY7USP9727rdLm+P+iXXb/7Jql2uoa3azh96kgDRzrUSq8p7/e5S7o1aBcwb6mUytKtRfLlxu9k3m/58vIRNwVMV79GbWlep5Hful/3bPabT7SZtAgUaNWOX0VHPb6+wz4168kUb1eDHfZqYS3Wd01dedAQubvgFWsZEwgggAACCCCAAAIIIOAuAQJI7jre1BYBBFwgoN2uFRYWGDXNzs4xuk+wU+1o5M/Ly/Mrwvr16+WTTz6RJ554Qj799FMjuKTdPfTs2VOOPfZYadWqpbRt21biVf6CgnyjG7usrM5+5WYGAQQQcLPAqMXjjS7qrupwksVwTJNu8tFxD8jxc/7PWmZOvL/mcznxgF7mrOj7g+4smCTTflloLQs0od2v6RM0gYa3j7rdL3ik3cjlzhllBZh887Tfq+r36+0o3i0z138j/X3eC6TBMd/u8ny3pdMadHrn6DuN7uu0brEc9L1T+m6j6gbt0u++bpfIqS2Pkqm/fCmXLfyP9V6oYHm3/rlTZv/6rV8ASdM3yNwrWDbWIYAAAgj4CGgbrEuXrkYXdj6Lq52MRvur2p36JIj3/n2KwiQCCCCAQAIK8A6kBDwoFAkBBBBQASd9QWsjQIf0Ct/+NhaG8F888+/atUs+++wzmTx5skyZMsUI5Ghw6eeffw6h5OVJnJRf33+k7z0yXxHIO5BCZichAggkqUCgdyAFegLJrN6/OgyV0dnnmrPG5+pdG+Soj6+pFPh57chb5DhvV3O+Q9Gu37xPNz0lX/++zC+4oe/8u937zqK29ZsZyfUdP48te1fGLf/Q2u4P/3hJ9qpR19rc4s0r5IS5o8X79jprmU7oE0r/PXK07FvTv2s733cg6XuSPhvwmPGEk5lZA0v6niazmzxz+TWdTjHel+R9m4W5SCasnCG3LHnBmj9kvw7yYZ97rHmd0Ke4Kj7t8+ghI2Rgs0P90vX+6GrZ5NkuGjw7sXkv+X7batnlLUtHbxdz+i6py9oP9kuvM59uyJczPit/55Lmm9PvEcvON7E6vu194uiVn2bKd96ns0rKyn9H0DTp3qeMjm96iNycfXal4FFxWYkcOn2E/Lo7sZ/M8q0r0wgggEA8BVbmTpDMzMyw3oHkpP2idU7m/E7avfE83uwbAQQQcIsAASS3HGnqiQACSSfghl+k9+zZI/Pnz5eZM2ca49q1a6VWrVrSq1cvGTBggPTv31/0PUmxHDRwZI7aECOAFEt99oUAAvEQsBtA0jIO877f6IHul/oVd8ufO+TwGf8ynlLyXXHFQf+QMd7AkN2hcOvP3gDJXUZgxczbv2kPmXTEKHPW9ufJn94hX2xcauXTbtqmHXu/dNm3jbWsugkNVl276Gl5s+gTv6S6rR+HTDK62fNb8deMdsN30AfD5fnDR/o9maWrc6ZeIr973zWkTxAtO/Glv3JU/aFPXh318bWVAmd9mnSVCb1ulLoZtarOHMKaJ5a9J/ctfT2ElCRBAAEEEDAFfhr0sugX3zIyMowv8qWleb928NdopuGzsoAb2r2Va80SBBBAIHkE6MIueY4VJUUAAQSSVmDJkiXy8ccfG0Gi/Px8oyGl70XSAJGO9913nzEmbQUpOAIIIOAygYmrPvYGinbKM4dea9Vcn/bJO+F50adpfvnj73cdPbv8A9GxaZ2G3u7VLpIB3idetEu2QMMsb7dyT//wgXy+sTDQapn56zfS7L0zpO/+B8sdXYbJQXs1r5Tuu21F8tDSN+WH7auNJ4x8E4zKOlNO+nSMtUifxjG73zu5xZHeJ3HOkZZ1G1vrzQlN9+7qz+TJ5ZPlh21rzMV+n5qm3ZTz5ezWfeWK9v+Q1vX2Fw0qmcNmzw5zMqzPXSV7jDKM9QZ2NNgUaJj3W55RBl3Xz9s93xkHHuO16u73lFWgfGv/2Cj//WmOvFE0V/RpMgYEEEAAAQQQQAABBBBAQAV4AonzAAEEEEhQgWDfxPJ4PEaptYuEcIZY51+5cqXMnj3bGL/44gvRJ4+aNGki/fr1M540Ovroo6Vu3b+7JKquTtEsv/n0kX7yBFJ1R4L1CCCAAAIIIIAAAgggoALBnkCKZvslFP1E3n+wdm8odSMNAggggEB0BXgCKbq+bB0BBBCIikC4gSOzMLHO37ZtW9HxkksuMYtgff7444/y6quvWsElbdy0b9/eeDJJA0yHHXaY0RWElcE7Eevy++6baQQQQAABBBBAAAEEEEDAjkC82y/Jvn871qRFAAEEEIisAAGkyHqyNQQQQAABmwLt2rUTHS+9tPxdGtrFnT6tNGfOHBk3bpzxPqKmTZvKokWLbG6Z5AgggAACCCCAAAIIIIAAAggggAACCCAQrgABpHDlyIcAAgggEJaAdg337bffyty5c41Akb4fSbuKq1+/vvTp08d48ujcc8+Va665JqztkwkBBBBAAAEEEEAAAQQQQAABBBBAAAEEnAsQQHJuyBYQQACBhBLQYExhYYFRpuzsHElP//sF3qEUNBr5O3XqJNu3bze6otMu6fr37y9Dhw6VkSNHViqSuf91636ReJW/oCDfePIpK6tzpfKxAAEEEEAAAQQQQAABBBCoKKBtsC5dukpGRkbFVUHnzfaPJopX+yee7cegOKxEAAEEEIi7QJr3m+BlcS8FBUAAAQQQqCTg5GWi2gjRwW7wyCyEm/PrbbGkpMQIIKmHThcXF0vracNNHj4RQAABBBBAAAEEEEAAAT+BlbkTjHe1agBJ22FpaWnW6JcwwIyb219O2r0BKFmEAAIIIBBhAZ5AijAom0MAAQQSQSDcwJFZdvKnGwEksyFnuvCJAAIIIIAAAggggAACCAQScNKGcpJXy5Ls+QN5sgwBBBBAIDEE7PVrlBhlphQIIIAAAggggAACCCCAAAIIIIAAAggggAACCCCAAAJRFCCAFEVcNo0AAghES8Dj8YiO4Q7kd+YXrjv5EEAAAQQQQAABBBBAwH0CtL9of7nvrKfGCCCQKgJ0YZcqR5J6IICAqwQyMzMd1Zf8zvwc4ZMZAQQQQAABBBBAAAEEXCVA+4v2l6tOeCqLAAIpJcATSCl1OKkMAggggAACCCCAAAIIIIAAAggggAACCCCAAAIIIOBcgACSc0O2gAACCCCAAAIIIIAAAggggAACCCCAAAIIIIAAAgiklAABpJQ6nFQGAQQQECktLZX8/Dxj1Gm7A/md+dn1Jj0CCCCAAAIIIIAAAggkv0BhYYHRFrNbE7e3v+x6kR4BBBBAILYCaWXeIba7ZG8IIIAAAqEIzFj3tZEst1nPUJL7pTEDR+np4X1PwM359bZYUlIi5u1Rp4uLi6X1tOF+xswggAACCCCAAAIIIIAAAqbAytwJou86ysjIEG2HpaWlWaOZpqpPN7e/nLR7q/JkOQIIIIBA5ARqRG5TbAkBBBBAIFEEwg0cmeUnf7oRQDIbctr4Y0AAAQQQQAABBBBAAAEEqhLQwFG4g9vbX+G6kQ8BBBBAIPoC4X01PfrlYg8IIIAAAgjETcAMGPl+a7B9vQPiVh52jAACCCCAAAIIIIAAAokroG0F37aDltRsUyRuqSkZAggggAAC1QsQQKreiBQIIIBAwgl4PB7RMdyB/NX7mQ1A/Tagjs/0+Jd4O6EIl5x8CCCAAAIIIIAAAgggkIIC2kbQtoLZbjDbEb5Vpf1VffvL14tpBBBAAIHEESCAlDjHgpIggAACIQto39o6hjuQv3o/s+GnDUHtjqJzg9ayYtCL0rthVrjs5EMAAQQQQAABBBBAAIEUEtC2gbYRtK1Q8d1HvtWk/VV9+8vXi2kEEEAAgcQR4B1IiXMsKAkCCCCAQAIIaOCorKzMKIlO66BBJJ2uk1Zb3jrqNtF3I32/tUheXz1X5m0okHW7N8nOkt1GWv5DAAEEEEAAAQQQQACB1BOol1FbmtVuKH0a58jZLY+VTvu0stoJZnvB/BKaWXuzPWHO84kAAggggECyCRBASrYjRnkRQAABBKIuoA093yCSOW82AHVdzn5t5Z6Gbax0ZvqoF44dIIAAAggYAkfOvFrW/bHJmN6/dgNZMOCJhJK58uvHZMa6r4wy9d+/hzx32MiEKh+FQQABBBCwJ2C2BfTTd9StmPO+WzTT+y5jGgEEEEAAgWQTIICUbEeM8iKAAALVCOjTMYWFBUaq7Owc41tx1WTxW01+fz+z4efbKPQNFvlOKyR+/n76bUw7A374cf3i+q3XjFDuX2bwSNOv373Z6DooEc6fkrJSuW79RFmxfa0WzRhmrv9Gjp/7fzKz/8OSkRb4usj1j+tfIpy/esKG8vNXfmb//T/nL+evm85fs32gPwE6red/QUG+8QOhPz/alZ2dwe0/P3asSIsAAgggEHuBNO8fvsr76Yn9vtkjAggggEAQgRnrvjbW5jbrGSRV4FXaCNHB7h/vza2Rv2q/UG6b+FXtZ55jwT7xw0/PD65fgYMMwX52dJ2bfn6av326H8fa096Ke/237tkhR824WjZ5tvuVzZxpmLmXfD7oSdmrZl1zkd+nm46fX8X/mqH+XP/1VOD6z/U/0PWhumXxvH6YQSTO3/B+fp20e6s7L1iPAAIIIOBcgCeQnBuyBQQQQCDhBMJteJsVIX/VDXffbxyaXhU/7X7rkPz+AvjZ+9aqv57Y/tYr+f0FOP+S9/zT63M8j1/Rzt+kz/RrxFP6p/9J5TOngaWuH1wi8wY+Jq3qNfFZUz4Zz/JrCdh/8p7/HD/OX35+4/vzS/up6vZT+R2O/xFAAAEEklWAK3yyHjnKjQACCCCAAAIIIIAAAgkh8NXvy6TX1BFBg0dmQTXApGk1DwMCCCCAAAIIIIAAAgggkMgCBJAS+ehQNgQQQKAKAY/HIzqGO5AfP84ffn64foQnwPWT62fF6+e7RZ/K0Nmj/U6oycfd4zevMxWXaR7Na2fg/OP8q3j+cf6ELsDPDz8//Pwk7++/of+kkxIBBBBAINICvAMp0qJsDwEEEIiQAH1BRwiSzSCAAAIIpKTAAW+d5levX05/228+FjOPf/eujC14zdpVZnpNq3u6QOUL1M3dqJxz5OqsU6xtMIEAAggggICbBGj3uuloU1cEEEhGAZ5ASsajRpkRQAABBBBAAAEEEEAgrgI3LnrWL3i0X629JX/ICwHfbWQWVN97pGk0rTloAEq3xYAAAggggAACCCCAAAIIJJoAAaREOyKUBwEEEEAAAQQQQAABBBJa4Kx5d8mrK2daZTxo7+ay+B/jZa+ada1lVU1oGk2recxBt6XbZEAAAQQQQAABBBBAAAEEEkmgRiIVhrIggAACCDgXKC0tlcLCAmND2dk5kp5u77sC5MeP84efH72AcP3g+sn9o/L9s6SsVPp+dJ0s37bWumH32b+r/LfP7aL3z/yCPOv+ayUIMJGRli6f5D5mBI3mrS/Po5+Hv3+5jGtzpXTN6cr9m99fApw5VS/i9zd+f+P3N35/0ytEMv7+VvWVjTUIIIAAAokgwDuQEuEoUAYEEEAggICTvqD1jwg62P3jn1kM8uPH+cPPD9ePysED8xoZ7JPrZ+yun4HeMRRN/+1/7pLe0/4lv+/ZZp0C57btLw8dcoU177v/QOWzEvpMaPd1vk8zNczcSxac8FRITzP5bMaY9N1/xXWhzJM/dudvoOOBP/56XnD/5f4b6PpQ3bJkvn44afdW58J6BBBAAAHnAjyB5NyQLSCAAAIJJxBuw9OsCPnDa7jiVy7A+cP5Y/4shPPJ+cP5E855Y+aJ1vlTtPM36TP9GvGU/mnuSkblnCNXZ51izetEOPvXAFTLuk2s9ylt8myXLlMulnkDHwv6PiW/Hf81E87+fbdDfn7+fM8Hu9OcP5w/ds8Z3/ScP+4+f3zPBaYRQAABBBJLwNkdKrHqQmkQQAABBBBAAAEEEEAAgYgKfLtpufSaOsIvePTk4ddUCh452akGonSb5qCBKt1n3uYfzUV8IoAAAggggAACCCCAAAIxFyCAFHNydogAAgg4F/B4PKJjuAP58eP84eeH60d4Alw/3Xf9rJFeQ2p6Rx1qpGXI5D53ySmtjg7rBAp2/ug2P+h7n2Sm1zS2rZ/p3ncl+Q7B8vumq2qa/O47f33PBY4/x1/PgXAHzh/On3ieP+Get+RDAAEEEHAuwDuQnBuyBQQQQCAqAvQFHRVWNooAAgggkCICob5jKF7VTfTyxcuF/SKAAAIIIOArQLvXV4NpBBBAIPEE/L/Slnjlo0QIIIAAAggggAACCCCQ4gKFW36SZ5ZNkYItq6Je03zvPp79YYroJwMCCCCAAAIIIIAAAggggEDVAuV9MVS9njUIIIAAAggggAACCCCAQNQENJhz15KJ1va7N2wvU/uNteYjOXHCrFGyeNMKa5O3dxsmV3QYYs0zgQACCCCAAAIIIIAAAggg8LcAAaS/LZhCAAEEUkKgtLRUCgsLjLpkZ+dIerq9h03Jjx/nDz8/egHh+sH1M1b3Dw3gfPP7cvlwzQLj3qUBnp4fXi6fDXpCamdkGstC+S/Y/Wt3iUeOnn61rN210drUiS2O8AseBctvZQoyUTF/kKQBV1XMHyt/szDsn/s/93/u/3o94P7P/T/W9x/zPsQnAggggEBiCvAOpMQ8LpQKAQQQECd9QesfgXSw+8u/yU5+/Dh/+Pnh+mEv+M71s1zAyf3j7rxJ3m7s3ulSyf0AAEAASURBVDcppV6NOvK5N4jUuPa+1jLfiUDvGAq0/w27t0jvaVfJzuI/rOxXdhwqt3U935o3JwLlN9eF8umbP1D5qtuGb/7q0gZaT37u33pecP3m+h3o+lDdMq4fXD/idf1w0u6t7rxmPQIIIICAcwGeQHJuyBYQQACBhBMI9w8HZkXIH94fHvArF+D84fwxfxbC+eT8ce/5owGdlvUayy3fjDdOHQ34HPzhZfLxgIcka58DQzqdKp4/3239WQZ8fKOUlpX/YVA3cl+PS+SCdgMDbq9i/oCJgiwkv3vPXz0tOP4c/yCXh2pXcf5w/lR7kgRJkOznT5CqsQoBBBBAIM4Czu7QcS48u0cAAQQQQAABBBBAAIHUEdDAzqSjbrEqpIGffh9dL7PWfWMtC3VC82he3+CRbruq4FGo2yUdAggggAACCCCAAAIIIOAWAQJIbjnS1BMBBFJKwOPxiI7hDuTHj/OHnx+uH+EJcP2M/vWzX7MeMuv4RyQ97e+myvmf3Scv/TjduPeFcv3StJrHHHRbus2j98vh/snvD+ZpYfuTn//o//wHOyj44x/K9b+qc4jzJ7nPn6qOK8sRQAABBKIvwDuQom/MHhBAAIGwBOgLOiw2MiGAAAIIpIhAde8uquodQ3bfpRQtrqrKF639sV0EEEAAAQSSUYB2bzIeNcqMAAJuEvj7a31uqjV1RQABBBBAAAEEEEAAgYQWaFx7X8kf8oI0r9vIKuczy96XyxY8Ys1XnNB1msYcNK9uQ7fFgAACCCCAAAIIIIAAAgggYE+AAJI9L1IjgAACCCCAAAIIIIBAjARqZ2TKV4Ofle4N21t7/HDNAjlh1ihr3pzQZbrOHDSP5tVtMCCAAAIIIIAAAggggAACCNgXqGE/CzkQQAABBBJZoLS0VAoLC4wiZmfnSHq6ve8KkB8/zh9+fvQCwvWD62ci3T+m9htrPHlkBogWb1pR6Vbsu2xw817yfO8bKqUJtiDS979g+wq0LtL7T6TjF6i+FZdRf37/4PcPfv/Q6wK/f7jv94+K9wPmEUAAAQQSS4B3ICXW8aA0CCCAgCXgpC9o/SOMDnb/eGTunPz4cf7w88P1w17wnetnuUC07x8V329kuvt+XtFhiNzebZjvopCnI1n+cN6BFMn9h1xpn4Tsn/u/ng5c/7n++1wWQp7k+sH1I9zrh5N2b8gnKAkRQAABBMIW4AmksOnIiAACCCSuQLgNf7NG5Pf/w0FZWZlJU+kz2DqzIV0pU4gLyF/eEA+Rq1Iy/PCrdFLYWMD5k5jnz+icc6V5nf3k1sUvBjya93S/SC5oN1AS8fjZKZOdtIEgyJ+Y52+gYxVoGceP4xfovAh1GedP9M+ftLS0Socj0LJKiYIscHv7KwgNqxBAAAEE4ixAACnOB4DdI4AAAggkrkDF4JA5X9Vn4taEkiGAAAKpI3B+6wHSvHYjufCLB/0qNaHXTdK36cFSUlLitzxRZhK1XIniQzkQQACBZBAwA0VVfZrtBHN9MtSJMiKAAAIIIBBMgABSMB3WIYAAAgkq4PF4jJJlZob3YnDyB/czG37m4dd533H37t3GfM2aNa3lvmnN6ao+8Q/uX5WbuRw//PRc4Prn7uv/kQ06y9KBL8gHvyzwXodFTjygl2Sm15A9e/aYl4qAn7G8fjzfc6TcVjDBKMc9ORcaZYvl/gMBsH+un3pecP109/WT42//+GswyLx+1qpVS3TeHPXJIXPa/NSfM7M9oct0MPPjb9/fAOQ/BBBAAIG4CfAOpLjRs2MEEEAguAB9QQf3ieZas8HnGzTS7kB03FPskTsLX5FJRbPFG1aKZjHYNgIIIIAAAggggAACCCSggDeEJOe36itjss+TWjUyjXeHVQwmabHNAFICViFhikS7N2EOBQVBAAEEAgrwBFJAFhYigAACCLhVIFDwSLsd0uDR6LwJMrFoljSt00DePeYOObpJjluZqDcCCCCAAAIIIIAAAq4V+PS3Arly4aMycdosGdaqn9zb9ULjqaOMjAzLRINH2rYgiGSRMIEAAgggkIQC/m8JT8IKUGQEEEAAAQSiJaANPvPJozEFE43g0bC2A6TgxPEEj6KFznYRQAABBBBAAAEEEEhwAf0imbYJtG2gXzDTtoLZbjC/kJbgVaB4CCCAAAIIhCRAACkkJhIhgAACySOgDZf8/Dxj1Gm7A/lLJS9viTHqk0dmEOmN1fMMyru7XWCXlPQIIIAAAggggAACCCCQggJm2+D1n+f6tR+0DRFqIMnt7a8UPC2oEgIIIJBSArwDKaUOJ5VBAIFUEnDSF7QZONJ+uMMZ3JxfG3pm4EjtdFrHA6cOMyg3nv5OOKTkQQABBBBAAAEEEEAAgRQUaPTWqUatVg18SWrWrCnajV2g9yEFq7qb219O2r3BTFmHAAIIIBAZAd6BFBlHtoIAAggklEC4gSOzEuRPt548UpNQvz1o+vGJAAIIIIAAAggggAAC7hJw8q4jt7e/3HWmUFsEEEAguQTC+2p6ctWR0iKAAAIIIIAAAggggAACCCCAAAIIIIAAAggggAACCNgQIIBkA4ukCCCAQKIIeDwe0THcgfzO/MJ1Jx8CCCCAAAIIIIAAAgi4T4D2F+0v95311BgBBFJFgC7sUuVIUg8EEHCVQGZmpqP6kt+ZnyN8MiOAAAIIIIAAAggggICrBGh/0f5y1QlPZRFAIKUEeAIppQ4nlUEAAQQQQAABBBBAAAEEEEAAAQQQQAABBBBAAAEEnAsQQHJuyBYQQAABBBBAAAEEEEAAAQQQQAABBBBAAAEEEEAAgZQSIICUUoeTyiCAAAIipaWlkp+fZ4w6bXcgvzM/u96kRwABBBBAAAEEEEAAgeQXKCwsMNpidmvi9vaXXS/SI4AAAgjEVoB3IMXWm70hgAACURdIT0+X7OwcYz86bXcgf7lfWVmZQVdSUmKXkPQIIIAAAggggAACCCDgMoGsrM5C+8t++9NlpwnVRQABBJJOgABS0h0yCowAAghULxBOw8V3q+RPFw0ghfMEl68j0wgggAACCCCAAAIIIOAOASdtKCd5VTfZ87vjDKGWCCCAQHIK8NWA5DxulBoBBBBAAAEEEEAAAQQQQAABBBBAAAEEEEAAAQQQiJoAAaSo0bJhBBBAIHoCHo9HdAx3IL8zv3DdyYcAAggggAACCCCAAALuE6D9RfvLfWc9NUYAgVQRoAu7VDmS1AMBBFwlkJmZ6ai+5Hfm5wifzAgggAACCCCAAAIIIOAqAdpftL9cdcJTWQQQSCkBnkBKqcNJZRBAAAEEEEAAAQQQQAABBBBAAAEEEEAAAQQQQAAB5wIEkJwbsgUEEEAAAQQQQAABBBBAAAEEEEAAAQQQQAABBBBAIKUECCCl1OGkMggggIBIaWmp5OfnGaNO2x3I78zPrjfpEUAAAQQQQAABBBBAIPkFCgsLjLaY3Zq4vf1l14v0CCCAAAKxFeAdSLH1Zm8IIIBA1AXS09MlOzvH2I9O2x3IX+5XVlZm0JWUlNglJD0ClsCfpcVy25KX5MUfZ0hpmf2ArrUhJhBAAAEEEEDATyA9LV0uapcrd3e7QGqm86cNPxxm4iKQldVZaH/Zb3/G5WCxUwQQQACBkAX4LStkKhIigAACySMQTsPFt3bkTxcNIIXzBJevI9PuFhj17XgZv2Ka7F97X3n18JvlyEad3Q1C7RFAAAEEEIigwPyNS+XaxU8Z99pL2g+SsQdfEsGtsykE7As4aUM5yaslTfb89rXJgQACCCAQKwG+GhArafaDAAIIIIAAAq4RuHXJBOMPWue0Ok6+6v8UwSPXHHkqigACCCAQKwH9YobeY/Veq1/Y0HsvAwIIIIAAAggggEBkBQggRdaTrSGAAAIxEfB4PKJjuAP5nfmF604+9wi8snKWUdnbOp/nnkpTUwQQQAABBOIgYN5rzXtvHIrALhGoVoD2F+2vak8SEiCAAAIJKkAXdgl6YCgWAgggEEwgMzMz2Opq15HfmV+1wCRwvcCO4j8Mg3o1arveAgAEEEAAAQSiKWDea817bzT3xbYRCFeA9hftr3DPHfIhgAAC8RbgCaR4HwH2jwACCCCAAAIIIIAAAggggAACCCCAAAIIIIAAAggkmAABpAQ7IBQHAQQQQAABBBBAAAEEEEAAAQQQQAABBBBAAAEEEIi3AAGkeB8B9o8AAghEWKC0tFTy8/OMUaftDuR35mfXm/QIIIAAAggggAACCCCQ/AKFhQVC+8t++zP5jzw1QAABBFJbgHcgpfbxpXYIIOBCgfT0dMnOzjFqrtN2B/KX+5WVlRl0JSUldglJjwACCCCAAAIIIIAAAi4TyMrqLLS/7Lc/XXaaUF0EEEAg6QQIICXdIaPACCCAQPUC4TRcfLdK/nTRAFI43yD0dWQaAQQQQAABBBBAAAEE3CHgpA3lJK/qJnt+d5wh1BIBBBBITgG+GpCcx41SI4AAAggggAACCCCAAAIIIIAAAggggAACCCCAAAJREyCAFDVaNowAAghET8Dj8YiO4Q7kd+YXrjv5EEAAAQQQQAABBBBAwH0CtL9of7nvrKfGCCCQKgJ0YZcqR5J6IICAqwQyMzMd1Zf8zvwc4ZMZAQQQQAABBBBAAAEEXCVA+4v2l6tOeCqLAAIpJcATSCl1OKkMAggggAACCCCAAAIIIBA7gd27d8duZ+wJAQQQQAABBBBAAAEEYirAE0gx5WZnCCCAAAIIIIAAAgg4FygsLJSThg5xvKFmzQ6QeZ9+6ng7bCC5BC4YPkzmz59vFbpu3bqyJC/fmq84sWLFCvn3vx+Rjz/6qOKqgPONGjWSq666Ws486yzJyMgImIaFCCCAAAIIIIAAAgggkPgCPIGU+MeIEiKAAAK2BEpLSyU/P88YddruQH5nfna9SY8AAggggECiCuQtWSKdszrJoIG5IQePtC4bN26UMWNul04dO8hhh/YUDXgyIIAAAqkuUFhYILS/7Lc/U/28oH4IIIBAsgvwBFKyH0HKjwACCFQQSE9Pl+zsHGOpTtsdyF/uV1ZWZtCVlJTYJSQ9AgggEBeBa6+7Tv75z3/FZd/sNPUEZs+aJZdffplfxRo3bixPPf20HHxwD7/l5kxRUZHcd9+9MmvmTHORbN68WW4dfYs88eRT0qJFC2s5EwgggECqCWRldRbaX/bbn6l2HlAfBBBAINUECCCl2hGlPggggIBXIJyGiy8c+dNFA0jhfIPQ15FpBBBAAIHKAgX5+d6nZPNl/fr1UrdeXeNLDz179pRatWpVThziEn0Pz+LFi+WXX9bKccf1lQYNGlSZUwMaK1Ysl+U/LDeelNHu1pp7Axu9evWyXQYNmKxcuVJWez/1qZt69etJ+/YHSffu3aVhw4ZVliHQikhuK9D27S6bNGlipSxjH3iwyuCRJm7VqpU8++w44/555RWXy+mnnyH9BwyotB0WIIAAAqko4KQN5SSvWiZ7/lQ8H6gTAgggkCoCBJBS5UhSDwQQQAABBBBAAAEEHAhs3brV6Kpsw4YN1lZq164tU6dNl5YtWxrLNEgyMPd40bTmUKdOHSON79Ml+uSKPsFiDh07dpR169bJtm3bzEUBP0866WS5f+xYqVGjcjOl4jb1iSsNRPk+7aIbfe+9yX4BpOLiYnn4oYfkpZcmSChPlR555JHep2yekXr16gUsoz5hM+HFFwOuC7TwsssulxtvuinQKuNpnUhtK+AOHCzs0+cY+eyzz/y2cPFFF8qxxx4rwy+4UI444ogq32+kf8gc99zzfnmZQQABBBBAAAEEEEAAgeQTqNwyS746UGIEEEDAdQIej8eoc2ZmZlh1J78zv7DQyYQAAghEWeDR//xHdAx1OOSQnvLfN96wku+zzz7y+YIv5Jqrr5apU/9nLNcne/oed6zcc+99csABB8hFF15gpdcJ7crsjTfflLS0NL/lFWeWLVtmLdp3333lEO8TR549eyQvL88vGDV58nui48sTJ0nv3r2tPIEmQqnrEu9TSWeccbrfE6XNmh0go24eJT299W/cpIlo2aa8/748//xzxm7mz58v3bt1lQsvukhuuWW0tWt9KrXHwd1l586d1rKcnBy58867pGu3brLHWx99/8WiRYtkkrf869b9YqR78cUXpHN2Zxk8+EQrXyS3ZW00whNafz0+H374gd+W586dKzoGGjp37ixHHXW09OvfT3r0OCRQEpYhgAACrhSg/UX7y5UnPpVGAIGUECCAlBKHkUoggIDbBMINHJlO5A8v8Gb68YkAAgikssBjjz/u7Xasv4z0PuFjDvoOm4qD3Xcu6fuZNE+g4YLhw0QDN+YwfNj58sm8ed6gVXNzUcBPDQa9+tpr1hNSvom+/PJLOe/cc3wXyX8efVROPPEffss6deokOmrZjulztNEVnSbQJ4NaH9hazjn3XCP9++9P9gse6cJTTz3NCB7ptHbBp0ETHS+99DJZtWqV9/0/mwIGUiK5Ld13tAb1euDBB+W1V1+VZ555WjZt2hR0V0uXLhUdn3tunJXu6muukauuutqaZwIBBBBwowDtL9pfbjzvqTMCCKSGQJr3HQ/lbwlPjfpQCwQQQCBlBGas+9qoS26znilTp2SoiN4WzVG/Ia7dHWn3R62nDTeKv/H0d5KhGpQxzgKN3jrVKEHRia/GuSTsPlUFCgsL5aShQ/yqZzeg45c5wMxv3ncUDRyYK9u3b/dbq92TvevtJi47O9tvue9Mxe7mtFu4l16u/E4d3zyH9DjYr4u74RdcILfeepuVpOI29emf9ya/b62vOHHdtddWenqmYprq5tu0aSMffTzTSKb3hhMGDfS+P2lF0Gwa1NInjvoc3Uf69+8vTfbfv1L6SG6r0sZDWFAxYFe3bl1ZkpcfQs6/k/z888/y7bffeMdv5euvvpIffvjh75UVpjIyMmT+5wtkv/32q7CGWQQiI9Dqw/JAL7+nRcaTrdgTMH/v+2nQy0YXrHrN03ulPp1rjva26K7UtHvddbypLQIIJJ8ATyAl3zGjxAgggAACCCCAAAIIRF1gzdo1lYJHulMNrq9YsTxoAKli4Zo0qRxEqZjmwNatJd/bZZo5/OR9gifY0Ldvv2Crpbik2G99zZo1pWnTpn7LqpvRLxDs2LFD6tevb/wRcNr0Gd6nijbL3XfdJdOnT5M///yz0ia06zod9d1MY8bcbqwfMeKfct3IkVZa/YNipLZlbTTGEwceeKDoqO+t8h30/VhnnXmGX6BNv4zxwvjxctP//Z9vUqYRQAABBBBAAAEEEEAgwQUIICX4AaJ4CCCAgF0B/cOevoNBh+zsHOPbb3a2Eav8+g4J/YPS3nvv7Ve8WO3fb6c+M7r/goJ84ymkrKzOPmuYRAABBNwj8Phjj8kTTzxeZYVvuP56+XTep/LwI49UmcZ3xbRpU73vHbpZGjZs6LvYml6zZo1f8EhXHNyjh7U+0ESNmsGbMoNPGCzTp02zsmqw5+abb5EBxx9vLQs0oe+pCNbVUIMGDeTf3ndN6eg76DuQlixZLHNmz5FXXpkk+v4oc3j66aekTds2lYItkdyWua/qPjUopu82qm7Ytm2b3HnHHTJlyvtyfG6uPP74E6Lfqq9u0HdpHXPMsX4BJM2zZcvm6rKyHgEEEEhqAW2DdenSNaRrpW9FE6H9E8/2o68F0wgggAACiScQvNWVeOWlRAgggAAC1QhodwkaONJBp+0Osco/adIk77e3p3tflj7Zr4ix2r/fTn1mzP1r90I6aJCLAQEEEEgGgZ9W/STzvO8Nsjvsvdde0v3gg41seu0744zTZbG3WzLf4emnnxF9Qki7zTOfutH3+Cxa9LXxJE3t2rV9k1ea1mDK4YcdKiO9gacrrxxhrddtjRv3rDzmfdeO76BPtug7k5wMAwcNkj59+viZjBhxpbRo0UIeevhhOfjgHn5/5NMnhsaOvV9++uknY7farduIf/5TLrzwIiugpO81uuLyy4yuTZ97fry0a9fOKqK+A+mwww43xjp16lQKwFV8CitS2xr1fzfJTG/ZfYePZ86SevXqyYwZ0+WggzqI1mW5t4u5Lxd+abzbyTetTnfv3t1apAG0wScMshx0xUczZkinjuXbOenkk+XMM8+Sjh07+vnpH0DnzJ4tDz/8UKXgUY0aNeTaawO//8raMRMIIIBAkgvol8+0LWF3MNsfms+N+e16kR4BBBBAILYCBJBi683eEEAAgZgIhNPw8C1YLPJfccUVxh/ejjvuONHpfv36SaNGjYxixGL/vvWtOK371z+i6h/DGBBAAIFkEZg8+T1vUP4928XV4NFbb71tdLs20Pukya5du6xtlAchPpL9/+r6Lb+gUE45+SRZunSpkUafHOrWtYu8++57ku19J1F1w7+9TyzpGGw48cR/yH8qBJSCpQ+27oUXJ8gLL4yXsfffbyXTMp991lnWfFUTGsQ644wzjeCRBsA0ePbjjz9ayQfmBn+SyUronXjU+0RX7969jUWR3JZucKf3eGm3cb6D3sN0PyOvqz5o09obGPR9P5U+faUBqPnz58uVV1wuf/zxh7VpPTdee/VVY7QWVjNxxRVXyvU33FBNKlYjgAACyS/gpA3jJK/KJXv+5D/61AABBBBIXQECSKl7bKkZAgggkNAC+fn5snLlSjnL+0e8LVu2yDvvvBO0vJdffnnQ9axEAAEEEAhf4IMPplQKNmhg6c033zLe/WNuWbswe3/KB/Kot/u2p5560liswfaTThpqvN/m0ksvM5P6fZ566qly3nnny2233ertJrS8m1XfBNq13TXXXCtnnX224z+C+W5Xpy+++BJjXP/rr3LHnXfI3DlzjCeIKqbT+WOPPVYu8dbh8MMP91utT1hNn/GRsUyfznrzzTe8T/fMEO3mraohd+BAue66kX5PKWnaSG6rqn1Xt1yfkBoyZIj3ibAbquxW8Mgjj5S8/PJjNXfuXHnv3Xe9T3N9YrwTKtj2mzU7QE4//XQ5xXvMmzdvHiwp6xBAAAEEEEAAAQQQQCDBBdK8304r76MnwQtK8RBAAAG3CcxY97VR5dxmPStVXbuX0SHYOxoqZfJZQP6q/fS2aI76R1Htwk7fF9F62nBDcOPpwQNdPsxMulig0VunGrUvOvFVFytQdTcLXO7t5m32rFkWgQaQxj7woDXPBAIIIBBJgVYfnmtsjt/TIqnKtkIVMH/v+2nQy6JdduqXLfSJoLS0NGuk/VV1+ytYuzfUY0A6BBBAAIHoCdjvnDV6ZWHLCCCAAAIhCmjgKNzgke4iUfJr9zrXebvXadmypTXO8X4zXIcvv/xSWrVqZXyL2bf7HF0X7/JrGRgQQAABBBBAAAEEEEAAgVAE4t1+Sfb9h2JMGgQQQACB6AgQQIqOK1tFAAEEEKhGQANFHTp0EO2abvXq1cbY9K93bGhW7T6oqKhIBg8eLNnZ2caTQNVsktUIIIAAAgki0Nj7TrsWLVpYY8OG+yVIySgGAggggAACCCCAAAIIIIBAqAK8AylUKdIhgAACCERU4JVXXpHzzz9fOnXqFHS7J598sowePVr0nUndu3cPmpaVCCCAAAKJIXDPvfclRkEoBQIIIIAAAggggAACCCCAQNgCPIEUNh0ZEUAAgcQU0Pf25OfnGaNO2x1ilf+yyy6TSZMmyeeff+5XRN/9a1/hI0aMkKOOOirk4JFv/njU368yzCCAAAIIIIAAAggggIArBAoLCyQe7Y94t3+c7t8VJweVRAABBJJYgCeQkvjgUXQEEEAgkIC+sDU7O8dYpdN2h1jl1y7qli9fLg8//LCcddZZRjHLyspk5MiRsmPHDtH3IzVv3lyefvpp6dmzZ8jViFT5tSw6lJSUhLxvEiKAAAIIIIAAAggggIA7BbKyOksit7+qOiqRaj/p9sOpf1XlYjkCCCCAQGIIEEBKjONAKRBAAIGICjj9xT1W+WvVqmV0T6dd1EVyiET5NYAUzjcII1kPtoUAAggggAACCCCAAALJIeCkDeIkr+oke/7kOMKUEgEEEHCngP2vprvTiVojgAACCERY4JtvvhF9v5E+ZXT00UfLU089JevXr4/wXtgcAggggAACCCCAAAIIIIAAAggggAACCIQjwBNI4aiRBwEEEIizgL4bSIfMzMywSpII+XNycuS9996zyq9P/MybN0/uvPNOmT59utSvX19OO+00o3u7Dh06WOl0It7l9ysMMwgggAACCCCAAAIIIIBAEIF4t1+Sff9BaFmFAAIIIBBlAZ5AijIwm0cAAQSiIaCBo3CDR1qeRMyflpYmxxxzjDz55JMyceJEGThwoLz11lvSv39/Ofvss/0Y411+v8Iwg0AAgY57tzSWLt68IsBaFiGAAAIIIIBApATMe615743UdtkOApEUiHf7Jdn3H8ljwbYQQAABBOwJEECy50VqBBBAAIEICmg3dnfccYf07NnT6MpOg0bjxo2Ttm3byoMPPij5+flSVFQkr7/+egT3yqYQiL7Ai0dcL+lp6TJk/hiZv3Fp9HfIHhBAAAEEEHChgN5j9V6r91y99zIggAACCCCAAAIIRFaALuwi68nWEEAAAQRCFFi0aJFot3UaQNKRAYFUEtBvQa895XU589N75Owv7jWqdk6r4+SslsfKQXu1kHo1aqdSdakLAggggAACMRHYWbxblm9fI/9dPVdeK5pj7LNPky7yxtG3Ss10/rwRk4PAThBAAAEEEEDAVQL8huWqw01lEUDADQKlpaVSWFhgVDU7O0fS0+09bBqr/AsXLpQZM2bI5MmT/Q5LrPbvt1OfGd1/QUG+EdzKyurss4ZJBOwJ6B+y3j3mDiPTsm2rZdKqmXJj/nhZu2uj7Cj+w97GSI0AAggggAACUr9GHWlet5Ec17SbzM99VOi2jpMikQS0DdalS1fJyMiwVaxEaP/Es/1oC4vECCCAAAIxF0jzfvu7LOZ7ZYcIIIAAAtUKzFj3tZEmt1nPatNWTKCNEB3sBo/M7cQq/9SpU+Xhhx+Wq666Svr27Sv77LOPUYRY7d+sr++n3hZLSkqMAJIu1+ni4mJpPW24kWzj6e/4JmcaAQQQQAABBBBAAAEEXCzQ6K1TjdqvzJ1gvGtWA0jaDtN3vJpjdTzxbP9o2eK5fyft3upcWY8AAggg4FyAJ5CcG7IFBBBAIOEEwg0cmRWJRf7FixfLypUr5ZRTTpG1a9fKpEmTzN0H/PzXv/4VcHmghZEovwaSzIZUoH2wDAEEEEAAAQQQQAABBBAwBZy0QZzk1f0ne37TkE8EEEAAgcQTIICUeMeEEiGAAAKuEOjevbvoyIAAAggggAACCCCAAAIIIIAAAggggAACiSdg78UYiVd+SoQAAgi4UsDj8YiO4Q6Jkn/Pnj1y0003SatWraRFixbSsmVLmTOn/IXIX3zxhTF/9tlny+7du/2qGu/y+xWGGQQQQAABBBBAAAEEEEAgiEC82y/Jvv8gtKxCAAEEEIiyAAGkKAOzeQQQQCAaApmZmUb/2uFuOxHyL1iwQNq3by/Dhg2ToqIiWbNmjTRt2tSqUq9evWT16tUyYMAAyc7ONt5FZK6Md/nNcvCJAAIIIIAAAggggAACCFQnEO/2S7Lvvzpf1iOAAAIIRE+AAFL0bNkyAggggEAQgYkTJ8rw4cMlJycnSCqR0047zXgCKS8vL2g6ViKAAAIIIIAAAggggAACCCCAAAIIIIBA5AQIIEXOki0hgAACCNgQuPjii2XSpEny5ZdfVpmrpKRErrrqKundu7ccfPDBVaZjBQIIIIAAAggggAACCCCAAAIIIIAAAghEVqBGZDfH1hBAAAEE4i1QWloqhYUFRjGys3MkPd3edwVilV+DQsuWLZOxY8caTxllZGSI7vv666+X7du3y65du6RJkyby7LPPyuGHHx4yayTKX1CQL2VlZZKV1Tnk/ZIQAQQQQAABBBBAAAEE3CugbbAuXbqKtmvsDJFovyRD+8+OCWkRQAABBBJHIM37B7KyxCkOJUEAAQQQMAVmrPvamMxt1tNcFPKnNkJ0sBs8Mnfg5vx6W9Qnn8zbo04XFxdL62nDDZ6Np79jMvGJAAIIIIAAAggggAACLhdo9NaphsDK3AnGe2o1gKTtsLS0NGusjsjN7S8n7d7qXFmPAAIIIOBcwN7X0p3vjy0ggAACCMRAQBss4QaPtHjRyL9q1SoZNmyYnH/++QEFpkyZIh06dJDmzZtLy5YtjbFHjx6yYMGCgOmDLYxG+YPtj3UIIIAAAggggAACCCDgboFEa3/ZORq0n+xokRYBBBBwlwBd2LnreFNbBBBAIC4C+r6jOXPmyGuvvSa9evWqVIazzz5bfvjhB/n222+lXr161votW7ZI3759JTs723hfkrWCCQQQQAABBBBAAAEEEEAAAQQQQAABBBCIqgBPIEWVl40jgAAC0RHweDyiY7hDLPN/9tlnMn36dHnjjTes4JHv/sePHy/z5s2T//3vf37BI63bvvvua+SbPXu2LFy40Kqub35roY0Jp/lt7IqkCCCAAAIIIIAAAggg4HIBp+0Pt+d3+elD9RFAAIG4CvAEUlz52TkCCCAQnkBmZmZ4Gf/KFcv8ZlcOHTt2tMps7n/btm1y//33yyWXXCJNmza11vtONGnSxJhdt26dtdjMby2wOeE0v83dkRwBBBBAAAEEEEAAAQRcLOC0/eH2/C4+dag6AgggEHcBnkCK+yGgAAgggEBqC/Tu3dvogk7ff1RcXGxVdufOnTJ06FBp1qyZ3H777dbyihO6rmHDhpKbm1txFfMIIIAAAggggAACCCCAAAIIIIAAAgggECUBnkCKEiybRQABBBD4W+Cjjz6SmTNnymGHHSbr1683Vmjg6M4775TBgwf/ndA7VVpaKnfffbcsWLBA8vPzZciQIca7kWrU4JblB8UMAggggAACCCCAAAIIIIAAAggggAACURTgr3FRxGXTCCCAQDwENABTWFhg7Do7O0fMLuRCLUu08vfv31+++eabkIpx0klD5ZRTTvY+uRSf8hcU5EtZWZlkZXUOqbwkQgABBBBAAAEEEEAAAXcLaBusS5eukpGRYQsiWu2vUAsR7/2HWk7SIYAAAgjERyDN+weysvjsmr0igAACCAQTmLHua2N1brOewZIFXKeNAB3sBo/Mjbk5v94WS0pKjACSeui0dr3Xetpwg2fj6e+YTHwigAACCCCAAAIIIICAywUavXWqIbAyd4Lou4o0gKTtsLS0NGusjsjN7S8n7d7qXFmPAAIIIOBcgCeQnBuyBQQQQCDhBMINHJkVIX+6EUAyG3KmC58IIIAAAggggAACCCCAQCABJ20oJ3m1LMmeP5AnyxBAAAEEEkMgPTGKQSkQQAABBBBAAAEEEEAAAQQQQAABBBBAAAEEEEAAAQQSRYAAUqIcCcqBAAII2BDweDyiY7gD+Z35hetOPgQQQAABBBBAAAEEEHCfAO0v2l/uO+upMQIIpIoAXdilypGkHggg4CoB7VvbyUB+Z35O7MmLAAIIIIAAAggggAAC7hKg/UX7y11nPLVFAIFUEuAJpFQ6mtQFAQQQQAABBBBAAAEEEEAAAQQQQAABBBBAAAEEEIiAAAGkCCCyCQQQQAABBBBAAAEEEEAAAQQQQAABBBBAAAEEEEAglQQIIKXS0aQuCCCAgFegtLRU8vPzjFGn7Q7kd+Zn15v0CCCAAAIIxEJg9+7dsdgN+0AAAQRcK1BYWGC0xewCuL39ZdeL9AgggAACsRXgHUix9WZvCCCAQNQF0tPTJTs7x9iPTtsdyF/uV1ZWZtCVlJTYJSQ9AgggkLQCu3btkoMOOsiv/F27dpX//e9/Ut09RQMU7dq188t7zjnnyEMPPeS3LBFmhg0bJrNmzbKKcuGFF8o999xjzSfKxNlnny3z5s2zilOvXj354YcfrPmKE8uXL5cHHnhApk2bVnFVwPnGjRvLyJEj5dxzz5WMjIyAaViIAAIIIBCaQFZW52rvlYG25Pb2VyATliGAAAIIJI6A/b8sJk7ZKQkCCCCAQBUC2gip7g99VWQ1FpPfmV8wW9YhgAACySaQl5cnnTp1kl9++SVo0WvXri21atUKmoaV0RFYvHixtGnTRo499tiQg0dakg0bNsjNN98srVq1ki5dukhBQUF0CshWEUAAARcI0P7iT4wuOM2pIgIIuFCAq7sLDzpVRgABBBBAAAEEEEDAjsDOnTvl0EMPlalTpwbNtvfeewddz8rIC3z88ccyePBg8Xg81sabNGkiU6ZMkbVr1wYcP//8c8nNzbXS68SmTZvkxhtvlNWrV/stZwYBBBBAAAEEEEAAAQTcK0AXdu499tQcAQSSWMD8I1FmZmZYtSB/+R/ZwvULC51MCCCAQAoIXHrppXLBBRfIvffeG7A2++yzj/FUS8CVQRZu3rxZNKixbt062bp1qxx44IHSsWNHozs9fbIpnEEDIfpkzo8//iitW7eWrKwsY5vhbMvMo+XULuSWLVtm1FO7gGvZsqX07t07bk9fTZgwwSye9fmf//xHDjnkEGu+4oT6vvjii8a7Oi666CLRrvIqBpQq5mEeAQQQQCB8AdpftL/CP3vIiQACCMRXgABSfP3ZOwIIIBCWgNPAB/nDC7yFdbDIhAACCCS5wJNPPimPPvqorFixwqjJSy+9JAsXLpTp06dXem+OBpBCHb788ku54oor5Lfffqs2S6NGjWTMmDFyyimnVJlW31n38MMPi5ZXX0he1bDXXnuJjqEMxcXFcv/998v48eNFp6sb+vTpY6TVdxXFajjuuOPkk08+8dudvtOoX79+cskll8iRRx5Z6TiZibW7JT2eDAgggAAC0RWg/UX7K7pnGFtHAAEEoidAACl6tmwZAQQQQAABBBBAAIGkFygrKzMCFNdff73897//NeqzdOlS42me2bNnG+/PMSsZShd22lXaEUccITt27DCzGZ9du3Y13uHTvHlz0fcuffbZZ/Lzzz8b6zZu3ChXXXWV3HHHHTJjxgxp1qyZX941a9bIMcccI7t37/Zb3q5dO2NfderUMZ5w0nJv377dGP0SBpj59ttvZejQoaKBKXPQst12221y2GGHiXYT9/3338u7774rTz/9tJFk3rx50qFDB7nsssuMgJeZL5qf+lSYPmk1efJkv93MmjVLdKw4pKWlSXZ2tuF1/PHHS8+ePSsmYR4BBBBAAAEEEEAAAQQQMAQIIHEiIIAAAggggAACCCCAQJUCZlDmkUceMYIx11xzjZH2jz/+MOafeuopOemkk4xl1T2B9Msvvxjdvf3555/W/k444QR5/vnnrfmKE7rtr776ylj8+++/GwEPfeKmffv21rLDDz/cL5s+lfPKK6/4LTNn7rrrLhk3bpw5G/BzwYIFctppp/mt0yCRBpR8B+0Wb/To0ca7gzSotGHDBmP1c889J23atJFhw4b5Jo/atB4D7bZu4sSJ8vjjj4s6VTVoQLCgoMAYNZ853HDDDXLdddeZs3wigAACCCCAAAIIIIAAApKOAQIIIIBAaglotz35+XnGGKwLn6pqTX5nflW5shwBBBBIVoE9e/ZYRdegyqeffur3vp9//vOfosEHHap7Aun1118X3+CRPhkULHik29QnazSd7/Dss89as1OnTrWmdaJmzZpGIMVvoc/M7bffLvruomBDoODTiBEjRJ9ACjRqsMgMHpnb1W7vYjlo90jaZZ0+vbV27VprnD9/vhFUGj58uHTq1En0CaRAg3b/p+9GChZ8CpSPZQgggAAC5QKFhQVBu1Ctysnt7a+qXFiOAAIIIJAYAjyBlBjHgVIggAACERPQ9xlkZ+cY29NpuwP5y/30G9o6+HZdZNeS9AgggEAqCJhPIJl1adu2rdF124ABA6z3ImlgSJ8S0vfuBBtWrVrlt7pp06Z+81XNdOzY0eimzVyv3dCZgz4t5DsccMABUt39r2XLlpUCPr7bqPi+Iw3OVOw2zzd9oGndhnbTV79+/UCrY7asdevWouOpp57qt8+tW7caT4798MMP1nItswbn9KkqBgQQQAABewJZWZ2rvf8E2qLb21+BTFiGAAIIIJA4AgSQEudYUBIEEEAgYgLV/eGsuh2RP100gBTOE1zV2bIeAQQQSDaBigEkLb8GVLQbOe3y7M033zSqtGLFCiugVFUdtbu69957z1qtASV9p1Fubq61rOKEdrem7/jxHXQ75jBo0CB5//33zVnjvUkaVNL3LAUa9Emhb775JtAqa9mQIUPkww8/tOY9Ho/ok0sDBw60lgWa0HROX5RubleDORXrba7z/dy2bZsR8NF3MamLBoAyMjJ8kwSc1u4G+/btK74BJE24efPmgOlZiAACCCAQXMBJG8pJXi1VsucPLstaBBBAAIF4Ctj/ano8S8u+EUAAAQQQQAABBBBAIKYCvl3YVdyxvndHx1AHDXBoV3C+w0UXXSTnnnuuaCDEd9Ag/q233lopuHTmmWf6vYtIA0j77ruvb1bj/UWPPfaY3zKd0UCTvquoumHw4MGi71HyHS6++GIjKLVw4cJKT6d+9NFHcvTRRxvvPdIu7jp06CD6fiENKOkwcuRI79PB2X6jGajRNNpN33fffWcEv3Rbd955p/HUUEWTHj16WEXSfLpPfQ+TBo900O78WrVqZez/lltukcLCwkplVVfdh9bPtytAza/d/9144406yYAAAggggAACCCCAAAIICE8gcRIggAACSShg/kEq3G85k7/8D3rh+iXhKUOREUAAgbAFAj2B5LuxM844Qw455BDp37+/FTDxXV9xWrtH69Kli1x77bViBqfmzp1rBEIqpvWd13f3aGBFAzm+Q40aNYxAyXnnnSdz5syxVj344IOiY7iDvgdp3Lhxctddd1mbKCoqkpNPPtmar2pCu4w755xzrKeRdu7cKVu2bPFLbnaVqr76HqnqBu06ULsKNAe9h+n7qHTUINyuXbvMVaL7e/nll43RWljNxFVXXSWjRo2qJhWrEUAAAQTCEaD9RfsrnPOGPAgggEAiCPAEUiIcBcqAAAII2BTQPxo5CX6Q35mfzcNFcgQQQCCpBcw/egWrRLt27WTZsmWin6EM2kXcypUrRbunGzp0qNSqVStgNu2Sp0+fPqJP/axZs6ZS8Mg3kwZ8NM3dd98t9erV811lTeu2vvjii2rf1WRmuPzyy2Xt2rWyaNEio/s6fUIn0KDBLX3/09tvv22k1yd8GjRoECiprWV169Y1ns7Kz883AkW6n4qDPoW0fPlyY7+TJk0Stf3/9u4DPooyb+D4P5USQHpTUETAkICIKKIgogjqi1gAGyoWULGcnoWzy6nYy1m5k7PiqSeoqK8HKPACioIiIknEwomNKkVKCCwkefOfOMvsZpPdmW2zmd/DZ9lpzzzP853ZmTz735lp2LBh8GJVxvVKqeuvv14WLVpk5CV4VIWICQgggEDMBOh/0f+K2c7EihBAAIEEC6RV/PKt8inhCS6Y4hBAAAEEahaYuWaxscDgNr1qXpC5MRXQ06L50tv8lJaWij6H4oDpo4xyNox4M6blsTIEEEAAAQQQQAABBBBIXYHmU4YZlf/xpJdEr4rV59DpDyA06G++Urd18a85/d74G1MCAgggEI0AVyBFo0deBBBAAAEEEEAAAQQQQAABBBBAAAEEEEAAAQQQQKAWChBAqoUblSYhgIC3BfSqmYKCZcZLh+0m8kfnZ9eb5RFAAAEEEEAAAQQQQCD1BYqKCoX+l/3+Z+pveVqAAAII1G6BzNrdPFqHAAIIeE9Ab5eQl5dvNFyH7SbyV/qZd3jVW9iREEAAAQQQQAABBBBAAIGaBHJzuxq3rqtpmVDzvN7/CmXCNAQQQAAB9wgQQHLPtqAmCCCAQMwEnASOrIWTP914DpKTXxBaHRlGAAEEEEAAAQQQQAABbwhE04eKJq/qpnp+b+whtBIBBBBITQH7P01PzXZSawQQQAABBBBAAAEEEEAAAQQQQAABBBBAAAEEEEAAgQgFCCBFCMViCCCAgJsEfD6f6MtpIn90fk7dyYcAAggggAACCCCAAALeE6D/Rf/Le3s9LUYAgdoiwC3sasuWpB0IIOApgezs7KjaS/7o/KLCJzMCCCCAAAIIIIAAAgh4SoD+F/0vT+3wNBYBBGqVAFcg1arNSWMQQAABBBBAAAEEEEAAAQQQQAABBBBAAAEEEEAAgegFCCBFb8gaEEAAAQQQQAABBBBAAAEEEEAAAQQQQAABBBBAAIFaJUAAqVZtThqDAAIIiJSVlUlBwTLjpcN2E/mj87PrzfIIIIAAAggggAACCCCQ+gJFRYVGX8xuS7ze/7LrxfIIIIAAAokV4BlIifWmNAQQQCDuAunp6ZKXl2+Uo8N2E/kr/crLyw260tJSu4QsjwACCCCAAAIIIIAAAh4TyM3tKvS/7Pc/Pbab0FwEEEAg5QQIIKXcJqPCCCCAQHgBJx0X61rJny4aQHJyBZfVkWEEEEAAAQQQQAABBBDwhkA0faho8qpuquf3xh5CKxFAAIHUFOCnAam53ag1AggggAACCCCAAAIIIIAAAggggAACCCCAAAIIIBA3AQJIcaNlxQgggED8BHw+n+jLaSJ/dH5O3cmHAAIIIIAAAggggAAC3hOg/0X/y3t7PS1GAIHaIsAt7GrLlqQdCCDgKYHs7Oyo2kv+6PyiwiczAggggAACCCCAAAIIeEqA/hf9L0/t8DQWAQRqlQBXINWqzUljEEAAAQQQQAABBBBAAAEEEEAAAQQQQAABBBBAAIHoBQggRW/IGhBAAAEEEEAAAQQQQAABBBBAAAEEEEAAAQQQQACBWiVAAKlWbU4agwACCIiUlZVJQcEy46XDdhP5q/qlpaXZZWR5BBBAAAEEEEAAAQQQ8JBAUVGh0Rez22Sv97/serE8AggggEBiBXgGUmK9KQ0BBBCIu0B6errk5eUb5eiw3UT+dMnP72Z0/jRwVFpaKvp+UE5bWVG8WpZs+l56Nu1kl5XlEUAAAQQQQAABBBBAoJYJaN9Ak/YVtA+WkZFh9B10WqQ/QvN6/0utSAgggAAC7hWw/82ie9tCzRBAAAEE/hDQToiT4JEJSP50f+fPtJjY8ypJq/g3eM7N8tH6QpOKdwQQQAABBBBAAAEEEPCggPYJtG+gfQTtK2RmZhp9MA0cRRo8MtnMPoc5bvc91fPbbS/LI4AAAggkToArkBJnTUkIIIAAAikkYHb6tDOmqWuTA2TFSc/L+YselNPn3Wl0Cs/vMFDO63C8dGnUTnIy66ZQ66gqAggggAACCCCAAAII2BEo3rNTvt36i7yycrZMXjlLysvL5aimuTK59zipm1XHCB5p38FJAMlOPVgWAQQQQACBRAoQQEqkNmUhgAACMRLw+XzGmrKzsx2tkfzV+2mHTzuDmqxBJB2ul1ZXpvS9XXburOw8Tl27QK5Y+ISs2blJikt3OtoWZEIAAQQQQAABBBBAAAH3C+Rk1JU2dZvKMS3y5YO+E+Tgfdr7rziyBo7MPoS2yBym/1V9/8v9W54aIoAAAt4WIIDk7e1P6xFAIEUFnAaOzOaSv+bAm3b0rEEkc9zsAObk5Mih9btIj1ad/cuZy5vGvCOAAAIIxFfg6Fl/kjUlm4xCWtVtIp+e8GR8C7S59rGLH5eZaz43cg1s1VOePeI6m2tgcQQQQAABNwmYfQF9t760jua4tb7m8jqN/lfN/S+rG8MIIIAAAu4SIIDkru1BbRBAAAEEXCJgdvjMwJC1U2hO06pah11SdaqBAAIIeELADB5pY9ft3CxZWVmuaHdpeZkMnHWDrNi2yl+fWeuWyKC5f5FZAx+WjDQeQ+uHYQABBBBIQQGzn6BVtw6bTQk1zZzHOwIIIIAAAqkmQAAp1bYY9UUAAQQQSKhAcAdQA0bWadbhhFaMwhBAAAEEAgTMZ9YFTEzwyLbdO+So6VfJJt+2KiVrQKnn+5fKJyc9JQ2z6leZzwQEEEAAgdQUoD+QmtuNWiOAAAIIRCZAACkyJ5ZCAAEEUkagrKxMiooKjfrm5eUb9+W2U3ny1+wXroOIX81+4fZF/PDj+MXxW48TTs5fGuBP5v7z47a1csyMa2SPlFZ7qNPAUvf3Rsv8Ex+X9jktA5bj+MfxL5n7L/sf+x/7H+dfp+ffaI8fASdDRhBAAAEEXCeQVtHRqnxSuOuqRoUQQAABbwvMXLPYABjcppdtCP0jXpPTX2OTHz/2Hz4/HD+c3WaM42fijp9tpww3znXmf6tHTJVk+X++8Vs5dc6tZlUien/nuAlyeLMuAcsmq/5mJSg/cfuvaW59xx9/3R84/3L+tR4XIh1O5eNHNP3eSH1YDgEEEEDAuYCzM7Pz8siJAAIIIJAAAe14Ou18avXIjx/7j/M/kfj88Pnh8+Otz89bP39UJXg0bcA9Vc72wdM04KR5rYnjB8cPjh/eOn7w+d8rwPHP28e/vXsCQwgggAACbhNw/teZ21pCfRBAAAEEEEAAAQQQQACBBAo8sfwtuWrR4/4Ss9OzZOHJz8gRzQ/2TzMHdJrO02XMpHl1HSQEEEAAAQQQQAABBBBAwI0CBJDcuFWoEwIIIBBGwOfzib6cJvLjx/7D54fjhzMBjp8cP83j541f/F3uL3zVvyM1q9NICoY+V+XZRv4FKgZaZzWWL06cKLqsmXQduq5IEvsf+5+5/0WyvwQvw/7D/sP+w99/wceFSMeTffyItJ4shwACCCAQewGegRR7U9aIAAIIxESAe0HHhJGVIIAAAgjUUoFQz0BKVFPPnn+XzF+3zF9cp0b7ypxBj0lG2t7f59VUv9LyMjnugz/L91tX+ddxTKvu8voxd/jHGUAAAQQQQMALAvR7vbCVaSMCCKSywN4eTiq3grojgAACCCCAAAIIIIAAAnEW0MBP/5nXBASPNPAzb/DjAcGjcNXQQJPm0bxm0oCUrlvLICGAAAIIIIAAAggggAACbhAggOSGrUAdEEAAAQQQQAABBBBAwNUC23bvkB7vjQ64amjkgQOjumpIrzjSdZhJr0jSMrQsEgIIIIAAAggggAACCCCQbIHMZFeA8hFAAAEEYitQVlYmRUWFxkrz8vIlPd3ebwXIjx/7D58fPYBw/OD4yflj7/nz5+L1csyMa8RXttt/0r4p/1z5U+4Z/vHg86d/RpiBhw67XNrVb+l/ntLGXVsl/52L5aOTnqjxeUrBqw0un+23d/sFW4Uax4+/f/j7h79/9NjA3z+J//sn1DGZaQgggAAC7hHgGUju2RbUBAEEEAgQiOZe0PoliCa7Xx6ZFSA/fuw/fH44ftj78pnjZ6VAIs8foZ4xFI/yv9z0vfzP7JvNTWy8P9X7Gjmjfb+AaTpiLT9U/apksEx46+eP5KpFj1umiMwY+IB0b9IxYFpNI9bya1quunnk5/yv+wbHf47/1R0japrO8YPjh9PjRzT93pr2SeYhgAACCMRGgCuQYuPIWhBAAAFXCTjt+JuNIL+zLw7wqxRg/2H/MT8LTt7Zf9h/nOw3Zp547D+Z6ZmSVfHaXbbHeJ824G45tGkns8iA92jK14DU/jmtZNjcO40rnbLTsyS94llJdlI05Ws55LfnHbxt8MMveJ+wM87+w/5jZ38JXjbV95/g9jCOAAIIIOAeAQJI7tkW1AQBBBBAAAEEEEAAAQRcJtCtcQf5adjrCanVYc06y4/DXktIWRSCAAIIIIAAAggggAACCIQTiO4nHuHWznwEEEAAgbgI+Hw+0ZfTRH782H/4/HD8cCbA8TM+x8+i33+Uid++K4W/r6xxw8TCf8lv38nfv3tXCsKUFaoisSif4y/H31D7ViTT2P/ic/yJxF6XwR9/jt/JO35H+jllOQQQQACB2AtwBVLsTVkjAgggEHeB7OzsqMogP37R7EDsP+w/7D/OBfj8VP3VTglwAAAzM0lEQVT8aDDnrq9e9qP2aHqQ/Of4+/3j1oFo/U776A5ZummFf5V3HHKBXN55qH883EC05ZO/6vYPZ26djx9+1v3B7jD7D/uP3X3Gujz7T3L3H+u2YBgBBBBAILECXIGUWG9KQwABBBBAAAEEEEAAAYuABnCG7NfHP0UDPIe/f7nsLHX+S2f/yv4Y0HXpOq3BIy3TTvAoeJ2MI4AAAggggAACCCCAAAK1XYAAUm3fwrQPAQQQQAABBBBAAAGXCzzb53oZ2+VUfy1X7dgg3d69RH7b+bt/mtMBXYeuS9dpJi1LyyQhgAACCCCAAAIIIIAAAghUL8At7Kq3YQ4CCCCQkgJlZWVSVFRo1D0vL1/S0+39VoD8+LH/8PnRAwjHD46fiT5/3Jo/UtJ/98nT66Yb57DiPSVy6P9eKh+e8JDk7rO/Ma2m/0Kdv5Zv+UlO+PBGKSsv82e9t+doubDjif5xcyBUfnNeJO/B+SPJY10mOH+i/Smf8z/nf87/ekzi/M/5P9HnH+u5kGEEEEAAAfcJpJVXJPdVixohgAACCMxcs9hAGNyml20M/RJIk90//s2CyI8f+w+fH44f9oLvHD8rBWJx/pi9ZomM+iTwGUiT+94ix7fpaTIb722nDA8YXz1iqljL1/Wc//G9AcuEWo91AWt+6/RIh635Q9Uv3Hqs+cMtG2o++Tl/637B8Zvjd6jjQ7hpHD84fiTr+BFNvzfcfs18BBBAAIHoBZz9ZRV9uawBAQQQQCCOAvrFgdMvD7Ra5MeP/cf5n0h8fvj88PmJ7vNzwr69ZPagRyQ9be96NBD04n9nhD1zmp8/XdYaPNJ16TqDg1DBKzTzB0+PdJz8fP75/O/93Eb6uTGX4/PD54fPj3c/P+ZxgHcEEEAAAfcJOD87ua8t1AgBBBBAAAEEEEAAAQRqgYDesu7LIc9KTmY9f2tuWfJPuXvZZP94dQO6jC5rJl2HriuS2+CZeXhHAAEEEEAAAQQQQAABBBCo+JE5CAgggAACqSfg8/lEX04T+fFj/+Hzw/HDmQDHz8QdP1vUbSwFQ5+Tfes392+sid++I6MXPOQfDx649NNHRJcxk+bVdei6NLH9Erf9zG1gfccff/7+4O8P6zHBzjDHD28fP+zsKyyLAAIIIBBbAZ6BFFtP1oYAAgjETIB7QceMkhUhgAACCKS4wMmzb5Klm1b4W9Gj6UEB4zojeJqO/+f4wGcp+VeQgAEnz0BKQLUoAgEEEEAAAVcJ0O911eagMggggEAVAa5AqkLCBAQQQAABBBBAAAEEEHCTgAaChuzXx18lazDJnGidpssmM3hk1ol3BBBAAAEEEEAAAQQQQCCVBQggpfLWo+4IIIAAAggggAACCHhE4Nk+18vYLqeGba0uo8uSEEAAAQQQQAABBBBAAAEEohPIjC47uRFAAAEE3CZQVlYmRUWFRrXy8vIlPd3ebwXIX9WvvLy82s0cPA+/qn7V4oWYgR9+HL84fuuhobrz1635I2Xfes3ktqXPhziCiFzR8kQ5pbyb7NmzJ+nnv+AK6vGtpsTxj+Mfxz+Of3qMqO74x/GjeoFEHz/T0tICKmMtPz+/W9LPP6nW/wvAZAQBBBBAwHUCPAPJdZuECiGAAAKVAtHcC9r8kspu58G0J3/ll3zBnUMzWFTdO36VAuw/lfsPnz97wWs+P3x+VCDS48ectV/KRQsfNHcb4/2FI8fJsS0PMYbd8Pnbf9o5AfX76bTXAsZDjUTa/lB5dRr5Of7qfuCG/V/rYTex/7L/6j7j9v3X7B8Ev5v9A7P+5vxIPwde3v+j6fdG6styCCCAAALOBbgCybkdORFAAAHXCpgdF6cV9Hr+4A6fdgitL+3gWcfNDqN6W4ed+pMPAQQQQKBmgaObdJWvT3xO3lv9acVxV2RI2yMlOz1Tdu/eXXPGBM6d1Os6ub3wBaPEe/Ivkl27diWwdIpCAAEEEIiVgLVvoMPWl/abrONmmWafwJrXnBfq3ev9r1AmTEMAAQQQcIcAASR3bAdqgQACCCDgQgFrkEiDRvratccnfy16RSb/PEcqwkourDVVQgABBLwncF3BJFc3+oLFj7i6flQOAQQQQMCeQEUYSc5vf5zcmXee1MnMNq6cqi6YZG/NLI0AAggggIC7BAgguWt7UBsEEEAgIgGfz2csl52dHdHywQu5Lf/y5ctl5syZ8v3338uYMWOkR48esn79epk6dapceumlkpkZeLqKZ/3NXwtag0elpaVG8OjWZS/Iyz/Pltb1mshb/cdLv5b5wbSMI4AAAggggAACCCCAQC0X+Gh9oYz97G/y8vTZckH742VC94uMOxFkZGT4W65XH2mfQt/j2X/xF1jDQKqXX0PTmIUAAgggEGcBZzenj3OlWD0CCCCAQM0CGjhyGjzSNbsl/5VXXlnxoOA8KSgokFGjRslnn30mmzdvNhrfsmVL6d27tzF/woQJASCJqr92+Mwrj+4sfNkIHl1w4AlSOOSfBI8CtggjCCCAAAIIIIAAAgh4R0B/SKZ9Au0b6A/MtK9g9hvMH6RZNRLVf7GWaR1O9fKtbWEYAQQQQCCxAgSQEutNaQgggAACfwjcd999smPHDikqKpIzzzxTmjRpUsXmsMMOkwULFsgzzzxjXJ1UZYE4TbBefWQGkf79y3yjtLsPuTBOpbJaBBBAAAEEEEAAAQQQSCUBs2+gfQUNIAX3I1KpLdQVAQQQQACBUAIEkEKpMA0BBBBAICECW7ZsCVuOXp1Ur1496dChQ9hl47GA+QvC4tKdxupzMuvGoxjWiQACCCCAAAIIIIAAAikmYPYNzL6C2XdIsWZQXQQQQAABBKoVIIBULQ0zEEAAgdQU0F++FRQsM146bDclKv/NN98sBx54oOTm5sqLL74oxcXFRlXN8t94498ycuRIGTt2rEyZMqXKc5Cqa5eZXw1i1X46gtVpMx0BBBBAAAEEEEAAAQRUoLCwIGb9Dzui8ej/JLJ8O2WxLAIIIIBA4gXSKr4UK098sZSIAAIIIBBOYOaaxcYig9v0Crdolflm4CQ93dnvBBKd/7///a98+umn8s033xjPQGrdurUcffTRMmDAAOOhs1UaGGZCNPXX02Jpaalx+wktRof37NkjB0wfZZS6YcSbYUpnNgIIIIAAAggggAACCHhFoPmUYUZTfxj8gvGs2YyMDNF+WFpamv8VziKa/ouuO5XzR9PvDefKfAQQQACB6AUyo18Fa0AAAQQQcJuA08CR2Y5E5+/YsaPoK1YpFvXXQJLZEYtVvVgPAggggAACCCCAAAII1E6BaPog0eRVzVTPXzv3CFqFAAII1A4BZz9Nrx1tpxUIIIAAAkkU2LBhg3Tu3FmGDRtmXHVkVuWaa66Rbt26yYQJE+TGG2+Udu3aycsvv2zO5h0BBBBAAAEEEEAAAQQQQAABBBBAAAEEEiDAFUgJQKYIBBBAINYCPp/PWGV2drajVbsh/3XXXScnnHCCPP300/423HfffbJ8+fKK5zcV+KddffXV0qdPH+nXr5906NDBmJ7s+vsrxwACCCCAAAIIIIAAAgggEEYg2f2XVC8/DC+zEUAAAQTiKEAAKY64rBoBBBCIl4DTwJFZHzfk16uPvvrqK7NKxlVIEydOrHK10fr1641l9B7iZkp2/c168I4AAskT+LF4nbSt10yy0/f+OTtuySR565eP5Xff9uRV7I+SM9MzpH39lvJYr7FydIs8Y+rminrtLtsjLes2Tnr9qAACCCCAAAIIJE4g2f2XVC8/cVuKkhBAAAEEggX29riD5zCOAAIIIIBAHAVuu+02eeONN6Rr166yZcsWycnJkRdffFGOPfZYo9S1a9fK0KFDZdOmTfLhhx/KAQccEMfasGoEEEgFgaItP8nQubfLFl+xUd1T9usjL/S5wV/1Aa17SFZFQKl5nUbSoiJIo4EafbWq26RifB/JTMvwLxvLgZJSn6zbuVnWV7zWlfxuvK+tGNZ0YIM2xvsm3zY5fPqV/rprUOnt/uMlPY07ShtA/IcAAggggAACCCCAAAIIIOA6AQJIrtskVAgBBBDwjsCZZ54p+gqVWrduLZ999pmUl5fLtm3bQi3CNAQQ8JDAd1t/lf4fXGe0eGznU+TuQy6s0vr3Vy2Seeu++iNwVBk0apbdSJrWaSg5mfUqXnWkXsYfr8xsqe8frmMM1/9jfkaIoM6e8lLZU1ZqXEG0dfcOCXwVG1c9rakIGq3ZsVHWlGyU1RWvsorjV5/mXaVNvabSNLuh/PfUl438x354gyz4rUhOmP0XmT3woSrtYAICCCCAAAIIIIAAAggggAACbhAggOSGrUAdEEAAgRgKlJWVSVFRobHGvLx8SU+39+v2ROfXW9QtXbpUtm+vvOWUlr9q1a9G4Cg7u47MnTtXMjIy5LXXXotIKRb1LywsMMrPze0aUZkshAAC8Rf4bOO3/kKu7DzUP2wdGN6+n3FLu7UlmyquAvpdvq64Ymnjrq2ys+IKoUQkvfpJr3ZqW7+Z5DU+wLj66JAmBwYUrcuc2+E4ufOrl+SrzT/IjtJdRvAqYCFGEEAAAQQQQCDlBLQP1q1bd6PvYqfysei/pFL/z44NyyKAAAIIJF+AAFLytwE1QAABBGIqoAEjDRxpshs8MvMkIv/8+fPlnHPOkeuuu07OOussKSkpkQEDBsiXX34p9erVk+XLl8uECROkXbt28uijjxrtieS/WLVfr3zSVFpaGkmxLIMAAi4QOLbVIaIvEgIIIIAAAgggkGgB/fGZm/tf1XnEqv+k63fS/urqxXQEEEAAAXcI2PtZujvqTC0QQAABBMII6B/u0fzxnoj8zz//vFx22WVy/fXXy3777SedOnWSQYMGyQMPPCANGjSQww8/XKZNmya9evWS3Nxc2b17d5hW752diPrvLY0hBBBAAAEEEEAAAQQQ8LqA2/tfNW0f+k816TAPAQQQ8LYAASRvb39ajwACCCRNoHfv3jJz5syAK3zGjx8vr7/+unzxxRf+ep188snG1UkrV670T2MAAQQQQAABBBBAAAEEEEAAAQQQQAABBOIrwC3s4uvL2hFAAIG4CPh8lc/zyM7OdrR+N+S/5JJLpH///nLcccfJihUr5OOPP5YOHTrI7NmzZdiwYcZt7DIzM+Xnn3+Wu+66Szp37uxva7Lr768IAwgggAACCCCAAAIIIIBAGIFk919SvfwwvMxGAAEEEIijAAGkOOKyagQQQCBeAk4DR2Z93JK/a9euMm/ePLNaxnuXLl2ksLAwYFrwSLLrH1wfxhFAoHYJLF/1k+Tuu3/talSI1mjgXp9BFyq1bdtWPv/881CzAqade+65VY7j5gKPPPKInH322eYo73EQmDRpkujVu3ZSq1at5OCDDza2/dChQyUtLa3G7KtXrzZuK1vjQtXMbNasmVx55ZVy8cUXS1ZWVjVLMRkBBBCo/QLJ7r+kevm1fw+hhQgggIB7BbiFnXu3DTVDAAEEPCHw7bffyrhx44wrjPbdd18xX927dzeuPFq7dq0nHGgkAggkX+D2f/9Tml58shx9+1jj/crnHk1+pZJUAw0avPTSSzWWvmjRomqDRzVmZGZSBdatW2dstyuuuMJ4BmHHjh3l7bffjkudNm7caJzLDzjgADnxxBNtPc8wLhVipQgggAACCCCAAAIIIGBLgACSLS4WRgABBBCIlcBPP/0kBx54oDz++OMyYcIE+e6772TVqlX+17Jly4xfLZ955pkyfPjwWBXLehBAAIEqAuu3bpbO154jT898SxrVqy8f3PaYtNqnqby2YJa0v2KY/LB+dZU8tXFCgwYNjNuHmm178MEHpby83Byt8n7//fcHTGvRokXAOCPJEXjhhRf851LzvKo/1pgxY4bce++9olcFWdPOnTvlqquukm7dusnmzZuts6odPv/886uUYZal7wsWLJCDDjooIH9BQYGMHj06YBojCCCAAAIIIIAAAggg4G4BbmHn7u1D7RBAAAHbAmVlZVJUVHkLuLy8fElPt/dbgUTlf+yxx2TQoEHyzDPPBLQxuPz33ntP9FZ3S5culR49egQsG2okOL+T9hcWFhhfmubmdg1VBNMQQCAJAtv3lPhLzcms6x+OdmDqwrly6bMPGqsZ2W+QPHnRtcbw8sdekbumviB/+88U6XXTaBk/4mL500mxCWbXSd97K68tvmKpX69OtM2ISf49e/bIDTfcIPfcc4+xvt9//904RustyILT3Llz5bPPPvNPvvDCC41n2f3222/+aZEOaNDik08+kTVr1siWLVtk//33F72daadOnaRu3ei29bZt22ThwoXy9ddfG+dDXW9+fr7oLfrspJKSEtEgzDfffCPr1683gi2HHnqoNG7c2M5qqiwbz7ZbC9PgoAaI9DVq1Chjlr7PmjXLv9imTZvkiCOOkMWLF8s+++zjn+5kQK840nXr1U2lpaX+VXz//ff+YQYQQACB2iagfbBu3bpLRkaGrabFov+SCv0/WygsjAACCCDgGgECSK7ZFFQEAQQQiI2ABkw0cKTJbvDEzJOI/PqF5Mknn2w870i/zDOTtf76XIZbb71VBgwYEFHwKJb1N391b/3iy6wj7wggkFiB77etkgkFrxqFDt2vjzTMqh+TCjw54025843njHX9Y8yNMqLPgID13jH8Iul5YBe54Kl7ZPyU5+Xnjevk4fOqBlMCMkUwMmL/Y+SvyyZLSekuufjTh+U/x02QtIp/yU56JcqYMWOMoJEGEzRpsF+nBT87wXr1kR639VakH3zwQcRN0NvfXX755UYwJlym5s2by5133ilnnHFGyEXPOeccmT9/vn/eaaedJhr80iBXTem4446TyZMnV7uIXimrV8xo8KmmpIEuDZToFT5mOvbYY+Vf//qXORrwHsu2B6zY5ojeovC2224TvWLJTDt27DACiA899JA5ydG7uS8Fn0MffvhhR+sjEwIIIJAKAvrjMzf3v6oztPa/klH/6urFdAQQQAABdwgQQHLHdqAWCCCAQEwFnPzhb61ArPMfeeSRsn37dmsRxnCdOnXk1FNPFf2iSZOWW69ePSkuLjbG9b8mTZr4hyMdiEX9NYCkvwYkIYBA4gU27toq0379RBZv/Fbe+3Wh7Cz1GZW4rNMQmdDjophU6K3P5vuDR89eNk6G9z425HqH9DxKpt/ysJx07w3y/Jz3pWWjJjJu6Lkhl4104j5ZObJ86PNy/Kwb5fOKNraYMlz2z2klg9oeJn1b5Mvgtr0kM83er5cjLTvccnqlzV/+8hfjpcvquAaRdJqZpk+fLno7MjPps3T0ihXrsducF/yugak+ffpUOSfoc+806KLPwdNbmH788ceiARxNGzZskKuvvlrGjx8vM2fOlDZt2gSvNmB82rRp/vH99tvPuJJJrx7S5zpZ05w5c+Siiy4KCKCY85966im57777zFHjXc8tp59+uhx22GGSmZkpX331lehVsnpVTSRX1iSi7QEVjmBEz8HWAJJm0UBYuACSBt5qCr5Ziz7kkENk5MiRxss6nWEEEECgtglE0weJJq86pnr+2rYv0B4EEECgNgkQQKpNW5O2IIAAAi4V0NsHkRBAAIFIBU6Ze7t8t/XXgMUv7DhI7jqk8tZbATMcjJRWBIevfv4xI+eo/icFBI/+/NKT8tK86dL34O7y7rjKZ/z0Pqir3H/u5XLTq3+X+6e9Iqcd3k86t2nnoOS9WRpU3IbvzWPukBHz7xa9wuqn4nUy6fv/GK/buo2Uaw8OfbXN3jXEZ0iDQOedd548+eST8uuvldvg6aefFg0SNWzY0CjUevWR3mLuuuuuM6br1Ss1JQ3gHHXUUbJ7927/Ynol6qRJk/zjwQN6NdHnn39uTN64caP06tVL5s2bV+X5OsH5qlvvpZdeKu+//75/cQ0iBafXX3+9SvDo0UcflbPOOitgUQ2K6HOivvzySxkyZEjAvOCRRLY9uOyaxg8//HDJysoK2CYa6Nq6das0atSopqwRz9NAm770NoUPPPCA6O30SAgggAACCCCAAAIIIJAaAvYejJEabaKWCCCAQK0X8Pl8oi+nKZXyv/POO8av0q1tTXb9rXVhGAEEYi/wyeDHZcOIN43XkpMnyiFNDpQX//uBtJo6QuavXxZ1ge9+8bGU+HYZ6xlz/CkB69tcvM0Y37R9a8D0SwcOlQZ16xnTXp6/91ZlAQvZGLl28UTp8f7lRvBIr6xaM+zf/jYnK3ik1TeDQLfccou/NXobMv3iX9Pbb78tK1as8M/785//LHo1qQaFrIEh/wKWgddeey1gGb3itKbgkWbVq4l0OWv6+9//bh2tMpybm1vtejXoY0363KfgpFc5WVPPnj2rBI+s8/VZSPoMqJpSotpeUx1CzdNgUfB200BhuODR+eefL6tWrarxpVdn6e0HzaTbUp9BpdNJCCCAgNcEkt1/SfXyvba/0F4EEEDATQIEkNy0NagLAgggEKGAPosi+HkUEWY1FnNDfv11s37ppl/06ReQ+uB2vdWQfkl59913y7nnnmuM60Pa9XZJ1pTs+lvrwjACCMRXoH1OS5k98CE5a/9jjYIuWPBg1AXutgQNgm/5klFxmzJNeyqCJsEpOzPLmLRlx97bbAYvE8n4zDWL5ZWVs4xFX+17i3Fbvqx0d9wYwAwg6a3N9PhsJr3N2bp168R69ZHetk6fZ6cpktvXrVy50lyd8d66deuA8epGNOhgTdu2VQb5rNOsw8HLW+dpsCtcatu2bcAi4crThU23gIyWkUS13VJkRIOhbkMX7mqqiFZcsZAG3pYuXSqNGzcOyKLPXSIhgAACXhNIdv8l1cv32v5CexFAAAE3CRBActPWoC4IIICAhwTuuOMO0QeYL1++3Hi+hj5YW7+srF+/vtx+++3y6quvGrdPSktLk2HDhnlIhqYigEAogT4tuhqTt+8pkbUlm0ItEvG0UytuQVe/Tl1j+ZsrbktnTRnplc8e0tvcWdOk2e+JeVXSqb36WmfZHl6xbe+zePq2zLedP54ZrIGgm2++OaCoY445xn9bO50xbtw40WO0pnABFF1GbytnTRpUCb7axzpfhwsLC40ghHV68Hqs83Q4kiBRcB7ruN42z5r0+UajRo0SvRIrVHriiSfkjTfeCDXLPy24zvFqu7/ACAbuvfde4xZ81kXbtWsn99xzj3VSVMP6LMGMjMDneemtCM1nH0a1cjIjgAACCCCAAAIIIIBA3AXc8VPHuDeTAhBAAAEE3Cagt7Uxn69h1k2/rNQHmuvzN5o0aWJM1i8oNbCkD2zv1q2buSjvCCCAgGOBOhVXEn181zPS57bLZN7XS6X9FcPkf296ULq37yjmFUil5ZUBJF/F1UrDHr1VFnxTYJQ34exLZWC3Xo7LdntGayDo+OOPF31GjvkMou3bt/urr1fpWG/bZs3nXyhoQIMo+iylZ555xj/n4osvNm5TOnHixIDbpmngQX9ooFc+WZM+h0ivjopn0ja/+OKLAe2bNWuWtG/f3l+sBs7Ky8v94+EGEtl2PV/qL8016e3pNm/e7H8tWLBAlixZErK6AwYMkFdeeSXkvOCJur31irTgpCYbNmyQH3/8UfS2fXPnzg1eREaMGCH67CwSAggggAACCCCAAAIIuF+AAJL7txE1RAABBGwJ6JduRUWFRp68vHwJvj1TuJUlKv9dd93lv21dp06d5J///KdxRZIGjPQh6ZdddpnxZd1TTz0lvXv3jjh4FIv6FxYWGF8M5uZWXvEQzoz5CCCQegIHtGgta/7xjjw+farcNfUFOXb81UYjWjduZrxv2rZF2o09Q4p37TTGj+ycJ6/96U7Zp36D1GusjRoHB4L0WUinn356lTXcdNNNAdOC8wXMtIzceuutxvH82muvlV27Kp9DpUEG6+3yLIv7BzVg89e//lUuueQS/7R4Dpxwwgny008/ybPPPmtcJRvcPmvwSINDGrDRZ/zUlBLV9kcffbSmalSZp4EjvTWh3kY20vTmm2+Kvuwk/XvkvvvuM34kYicfyyKAAAKpIqB9sG7dule58jJc/WPRf0mF/l84B+YjgAACCLhTgACSO7cLtUIAAQQcC+gXNBo40mQ3eGTmSVR+vW2dvqxJn6cxduxY4/Y2JSUlcvbZZ1tnhx2OVfvNLweru2VR2IqwAAIIxE/gj9umxaKAa04aLvraXLxNHnz3VXluzv8aq91askP6Htxdbjn9Ajmyk3eCycGBkiOOOMII7s+ZM8fPrUH/4FuLBufzLxxiYOjQoaIvvTJGgyozZszwB5Osi+vxvG/fvsZ5Yt9997XOSshwZmamccWUXjUVLukt7qypadOm1lH/cLLargEuvbK3WbNmkp+fL0cffbQMHDiwyvOJ/BWNYkCDffp8LDXQsvr37y/Dhw8X9SQhgAACtVlAf3zm9v5XKP9Y9Z903U7aH6pOTEMAAQQQcI8Af8W7Z1tQEwQQQCBmAtH+4Z6I/Pqr7g8++ECmTp1apd1avj4LSV8LFy40bnejz8HQL6QiSbGovwaQ9NeAJAQQ8IZAk5yGct85l4mv4pZfL8z9j7Ru3FTeHXd/rW68BmdWrVoVto2TJ08Ou8yRRx4Z0bqsK9KAhvV2dtZ5dob1VmmRpkjrqcv98ssv/tVq8GPKlCmiATVr0nPF+PHjRW9xZ03nnHOOdbTKcKzaPmbMGNFXPJPerjCS/SSedWDdCCCAQCoIRNMHiSav2qR6/lTYvtQRAQQQ8KoAASSvbnnajQACCCRQYN68ecbD1q1F6rM09AojvT1ddUmv/tFnLOiXV1lZWdUtxnQEEEAgZgKPXHCVcdVRs4aNYrZOVpR6AvqsoCFDhsiyZcuMyu+peBZWqFv5BbdMf/igt7LLy8sLnsU4AggggAACCCCAAAIIIJByAgSQUm6TUWEEEEBAxOfzGQzmQ7LtmiQ6v96+ZtGiRf5qavn6zCO9JVKoK5D8C1YzkOj6V1MNJiOAQC0VIHhUSzesjWZlZGTI9OnTjRyffPKJvP/++/LFF1/I6tWrZevWrcbzLVq2bCmtWrUyntc3YsQI6devn40SWBQBBBBAwEsCye6/pHr5XtpXaCsCCCDgNgECSG7bItQHAQQQiEDAaeDIXLUb8uszJSJ5roQ+I+Opp56S22+/3ay+8bBy/4iDgWjb76BIsiCAAAIIpKjAUUcdJfoiIYAAAggg4FQg2v6H1/M7dScfAggggED0AgSQojdkDQgggAACDgV+/vlnmThxoixdulT0lnbWpM+V+O2334zp4Z4lYc3HMAII1E6BOhl7b2O5bfcOaV23Sco2dIuv2Kh7ZnqGZKfz53jKbkgqjgACCCCAAAIIIIAAAgjUcgF6rLV8A9M8BBBAwK0CGjh69tln5f/+7/+kcePGsm3bNunatau899570qNHD6PaM2bMkGuuuUYIILl1K1IvBBInMKL9MfKvlbPl4/WF0mfGn+SsA46Vh3peKvUz6iSuElGWVPD7Srnysyfl6y0/GWt64NAxkpmWEeVayY4AAggggAACCCCAAAIIIIBAfAQIIMXHlbUigAACSRMoKyuToqJCo/y8vHxJT0+3VZdE5ddnIukDyTV4pKlhw4YyevRomTBhgtxxR+Xt6gYNGmQEmYYOHSoFBQXStGnTsG2JRf0LCwtEr4DKze0atjwWQACBxAlM6/9XWbFttdyw5B/y7x/nSlrFv6cOv8pfgbd++dgIMLWo21haVVyh1KLOPtKsTqOKV0PJyawr9Ste9SoCTvUysv15oh0ol3LZvrtENvu2y9qdm2T1jo2ypqTivWSjlFUcRy7r9D/SPqel/F4x/6yP7pEtu4tlbOdT5I5u50kWVx9Fy09+BBBAAAEEXCOgfbBu3bobz8mzU6lY9F9Sof9nx4RlEUAAAQTcI0AAyT3bgpoggAACMRHQgJEGjjTZDR6ZeRKR/5JLLpGRI0fK4MGDpXfv3kZ9b7nlFjniiCNk4cJFovO1/jk5OcY8DehEkmLVfrO80tLSSIplGQQQSJDAQQ3bigaSQqVlm3+QD9d8Iet3bpHS8uR+dutn1pEDG7SR09odZQSQGmc3kK9PeS5UtZmGAAIIIIAAArVAQH985ub+V3XEseo/6fqdtL+6ejEdAQQQQMAdAgSQ3LEdqAUCCCAQU4Fo/3BPRP5+/fqJPgNp2rRpcvHFF8vf/vY3adSokSxZskRuvvlm6dixo/h8PuN2dp9++qk0a9YsYqNY1F8DSPprQBICCKSOwPjuF4i+SAgggAACCCCAQKIFoumDRJNX25nq+RO9rSgPAQQQQCByAQJIkVuxJAIIIIBAHAROO+000ZeZ0tLS5P777zde5jTeEUAAAQQQQAABBBBAAAEEEEAAAQQQQCCxAgSQEutNaQgggEBMBPTKHE3Z2c6e45HM/O+884488cQT8s0331Rr0bNnT7nqqquM29uFWiiZ9Q9VH6YhgAACCCCAAAIIIIAAAtUJJLv/kurlV+fKdAQQQACB+AsQQIq/MSUggAACMRdwGjgyK5KM/KNHj5bp06fL2LFjjdvWNWzY0KxOlXft4EyaNEnGjBkj/fv3l8mTJwcsk4z6B1SAEQQQQAABBBBAAAEEEEAgQoFk919SvfwImVkMAQQQQCAOAulxWCerRAABBBBAIEDgiiuukK+++kp++OEHue2226Sm4JFm1A7OlVdeaTwj6dtvvzUCSQErZAQBBBBAAAEEEEAAAQQQQAABBBBAAAEE4ipAACmuvKwcAQQQQEAFCgoK5JRTTpE6derYBhk+fLjMnj3bdj4yIIAAAggggAACCCCAAAIIIIAAAggggIBzAQJIzu3IiQACCLhSoKysrCJgs8x46bDdFI/8v/32W8TBo+DyGzduLLt27Yq4GcH5I874x4Kh8qelpdldDcsjgAACCCCAAAIIIICAhwSKigpF+xJ2U6j+h511pHp+O21lWQQQQACBxAvwDKTEm1MiAgggEFeB9PR0ycvLN8rQYbvJbfnttiEW9c/P72Z0/jRwVFpaKvp+UE5bWVG8WpZs+l56Nu1kl5XlEUAAAQQQQAABBBBAoJYJaN9Ak/YVtA+WkZFh9B10WqQ/QotF/yWV+39qRUIAAQQQcK8AAST3bhtqhgACCDgWsBt0CS4o1vm7dOkiH374ofEKLiuS8dzc3EgW8y8Ti/prh6+8vFx0Xfo+sedVMuijW2XwnJvlrWPGS7+WlUE6f6EMIIAAAggggAACCCCAgGcEPlpfKGfMHy9pFf+0r5CZmWn0HbQfEWnwyMSKRf/FXJeT92SX76TO5EEAAQQQSIxAWsWXYuWJKYpSEEAAAQTsCMxcs9hYfHCbXnaysWyUAtbTog7rS28Loa+du3fJ+YselE82LTc6hed3GCjndTheujRqJzmZdaMsmewIIIAAAggggAACCCDgVoHiPTvl262/yCsrZ8vklbOMfsJRTXNlcu9xUjerjhE80kBMcADJbjDJre2PV73o98ZLlvUigAACsRHgCqTYOLIWBBBAIKECPp/PKC87O9tRueSv3k87eGYQyezsmR3Beml1ZUrf22XnzsrO49S1C+SKhU/Imp2bpLh0p6NtQSYEEEAAAQQQQAABBBBwv0BORl1pU7epHNMiXz7oO0EO3qe9/4ojs79QXfCI/lf1/S/3b3lqiAACCHhbgACSt7c/rUcAgRQVcBo4MptL/poDb8FBJHPcDCjl5OTIofW7SI9Wnf3BJjPoZBrzjgACCCCAAAIIIIAAArVHwOwL6Lv1pS00x62tNZfXafS/au5/Wd0YRgABBBBwlwABJHdtD2qDAAIIIOASAbPDZwaGrJ1Cc5pW1TrskqpTDQQQQAABBBBAAAEEEIiTgNlP0NVbh83iQk0z5/GOAAIIIIBAqgkQQEq1LUZ9EUAAAQQSKhDcAdSAkXWadTihFaMwBBBAAAEEEEAAAQQQSLoA/YGkbwIqgAACCCAQRwECSHHEZdUIIIBAMgTKysqkqKjQKDovL9+4L7edepC/Zr9wHUT8avYLty/ihx/HL47fepzg/MX5W58nYidx/uD8wfmD8wfnj9Q8f9o51rMsAggggEDiBdIqfkldnvhiKREBBBBAIJzAzDWLjUUGt+kVbtEq8/VLFE12v3wxV0R+/Nh/+Pxw/LD35TXHz0oBzh+cPzh/cP7g/MH5wzwn2nnn/OHd80c0/V47+xjLIoAAAgg4E+AKJGdu5EIAAQRcLeC04242ivzOOv74VQqw/7D/mJ8FJ+/sP+w/TvYbMw/7D/uPuS84eWf/Yf9xst+Yedh/2H/MfcHJu9f3Hydm5EEAAQQQSIxAdGf4xNSRUhBAAAEEEEAAAQQQQAABBBBAAAEEEEAAAQQQQAABBBIoQAApgdgUhQACCMRKwOfzib6cJvLjx/7D54fjhzMBjp8cPzl+cvx0dvQQ42839h/2H/YfZwKcf719/nW215ALAQQQQCAWAjwDKRaKrAMBBBCIgwD3go4DKqtEAAEEEEAAAQQQQAABBBBwjQD9XtdsCiqCAAIIhBTgCqSQLExEAAEEEEAAAQQQQAABBBBAAAEEEEAAAQQQQAABBLwrQADJu9ueliOAAAIIIIAAAggggAACCCCAAAIIIIAAAggggAACIQUyQ05lIgIIIIBAygqUlZVJUVGhUf+8vHxJT7f3WwHy48f+w+dHDyAcPzh+cv7g/GnnjyH+fuDvB/5+4O8H/n7g7ycnfz/aOdewLAIIIIBA4gV4BlLizSkRAQQQiEggmntB65c4mux++WdWjPz4sf/w+eH4YS94wPGzUoDzB+cPzh+cPzh/cP4wz4l23jl/ePf8EU2/184+xrIIIIAAAs4EuALJmRu5EEAAAVcLOO24m40iv7OOP36VAuw/7D/mZ8HJO/sP+4+T/cbMw/7D/mPuC07e2X/Yf5zsN2Ye9h/2H3NfcPLu9f3HiRl5EEAAAQQSIxDdGT4xdaQUBBBAAAEEEEAAAQQQQAABBBBAAAEEEEAAAQQQQACBBAoQQEogNkUhgAACsRLw+XyiL6eJ/Pix//D54fjhTIDjJ8dPjp8cP50dPcT42439h/2H/ceZAOdfb59/ne015EIAAQQQiIUAz0CKhSLrQAABBOIgsGBDkWzfXSJHNs+VfbJy4lACq0QAAQQQQAABBBBAAAEEEEAgOQJbdhfLwg3LpUFWPTm6eV5yKkGpCCCAAAI1CnAFUo08zEQAAQSSJ9CjcUdJS0uTRRu/kU2+bcmrCCUjgAACCCCAAAIIIIAAAgggEEMB7eNqX1f7vNr3JSGAAAIIuFOAK5DcuV2oFQIIIGAIlEu5fLHpe9m4a6vxh/V+9ZrLvvWbS4PMepKRxm8A2E0QQAABBBBAAAEEEEAAAQTcL1BaXibb95TIqh0b5NeSDVJeXi7N6jSSw5p2krSKfyQEEEAAAXcKEEBy53ahVggggEAVgeI9O+XXHb/JBt9W2Vnqkz1lpVWWYQICCCCAAAIIIIAAAggggAACbhPITM+QuhnZ0jy7kexXv4XkZNZ1WxWpDwIIIIBACAECSCFQmIQAAggggAACCCCAAAIIIIAAAggggAACCCCAAAIIeFmA+x95eevTdgQQQAABBBBAAAEEEEAAAQQQQAABBBBAAAEEEEAghAABpBAoTEIAAQQQQAABBBBAAAEEEEAAAQQQQAABBBBAAAEEvCxAAMnLW5+2I4AAAggggAACCCCAAAIIIIAAAggggAACCCCAAAIhBAgghUBhEgIIIIAAAggggAACCCCAAAIIIIAAAggggAACCCDgZQECSF7e+rQdAQQQQAABBBBAAAEEEEAAAQQQQAABBBBAAAEEEAghQAApBAqTEEAAAQQQQAABBBBAAAEEEEAAAQQQQAABBBBAAAEvCxBA8vLWp+0IIIAAAggggAACCCCAAAIIIIAAAggggAACCCCAQAgBAkghUJiEAAIIIIAAAggggAACCCCAAAIIIIAAAggggAACCHhZgACSl7c+bUcAAQQQQAABBBBAAAEEEEAAAQQQQAABBBBAAAEEQggQQAqBwiQEEEAAAQQQQAABBBBAAAEEEEAAAQQQQAABBBBAwMsCBJC8vPVpOwIIIIAAAggggAACCCCAAAIIIIAAAggggAACCCAQQoAAUggUJiGAAAIIIIAAAggggAACCCCAAAIIIIAAAggggAACXhYggOTlrU/bEUAAAQQQQAABBBBAAAEEEEAAAQQQQAABBBBAAIEQAgSQQqAwCQEEEEAAAQQQQAABBBBAAAEEEEAAAQQQQAABBBDwsgABJC9vfdqOAAIIIIAAAggggAACCCCAAAIIIIAAAggggAACCIQQIIAUAoVJCCCAAAIIIIAAAggggAACCCCAAAIIIIAAAggggICXBQggeXnr03YEEEAAAQQQQAABBBBAAAEEEEAAAQQQQAABBBBAIIQAAaQQKExCAAEEEEAAAQQQQAABBBBAAAEEEEAAAQQQQAABBLwsQADJy1uftiOAAAIIIIAAAggggAACCCCAAAIIIIAAAggggAACIQQIIIVAYRICCCCAAAIIIIAAAggggAACCCCAAAIIIIAAAggg4GUBAkhe3vq0HQEEEEAAAQQQQAABBBBAAAEEEEAAAQQQQAABBBAIIUAAKQQKkxBAAAEEEEAAAQQQQAABBBBAAAEEEEAAAQQQQAABLwsQQPLy1qftCCCAAAIIIIAAAggggAACCCCAAAIIIIAAAggggEAIAQJIIVCYhAACCCCAAAIIIIAAAggggAACCCCAAAIIIIAAAgh4WYAAkpe3Pm1HAAEEEEAAAQQQQAABBBBAAAEEEEAAAQQQQAABBEIIEEAKgcIkBBBAAAEEEEAAAQQQQAABBBBAAAEEEEAAAQQQQMDLAgSQvLz1aTsCCCCAAAIIIIAAAggggAACCCCAAAIIIIAAAgggEEKAAFIIFCYhgAACCCCAAAIIIIAAAggggAACCCCAAAIIIIAAAl4WIIDk5a1P2xFAAAEEEEAAAQQQQAABBBBAAAEEEEAAAQQQQACBEAIEkEKgMAkBBBBAAAEEEEAAAQQQQAABBBBAAAEEEEAAAQQQ8LIAASQvb33ajgACCCCAAAIIIIAAAggggAACCCCAAAIIIIAAAgiEECCAFAKFSQgggAACCCCAAAIIIIAAAggggAACCCCAAAIIIICAlwUIIHl569N2BBBAAAEEEEAAAQQQQAABBBBAAAEEEEAAAQQQQCCEAAGkEChMQgABBBBAAAEEEEAAAQQQQAABBBBAAAEEEEAAAQS8LEAAyctbn7YjgAACCCCAAAIIIIAAAggggAACCCCAAAIIIIAAAiEECCCFQGESAggggAACCCCAAAIIIIAAAggggAACCCCAAAIIIOBlAQJIXt76tB0BBBBAAAEEEEAAAQQQQAABBBBAAAEEEEAAAQQQCCFAACkECpMQQAABBBBAAAEEEEAAAQQQQAABBBBAAAEEEEAAAS8LEEDy8tan7QgggAACCCCAAAIIIIAAAggggAACCCCAAAIIIIBACIH/B/C4FlismAj/AAAAAElFTkSuQmCC" vertex="1" parent="1">
          <mxGeometry x="-220" y="120" width="588" height="280" as="geometry" />
        </mxCell>
        <mxCell id="amsNiet3mCZ-czu-G3W7-3" value="" style="shape=image;verticalLabelPosition=bottom;verticalAlign=top;imageAspect=0;aspect=fixed;image=data:image/png,iVBORw0KGgoAAAANSUhEUgAAARYAAAC1CAMAAACtbCCJAAAAz1BMVEX////m5ubl5eXeSBPk5OTz8/Pj4+Py8vL29vbv7+/7+/vr6+v8/Pzs7OzdPQDdQwDcNQCpqankd1z00MreShfeRQrb29rcOgDPzs3bLwD17uztrqP439jtysSsrKzV1NPxvK/kpZm8vLyioqL87ejroJLdeWbBwcC1tbXbWzzIx8foj3uXl5faJQDvtqzzxLniaEneUijz2NHomIeOjo53d3fjhW/kgGbgblLsvbPfY0PgWTDhXjjqlYHejX7uqpiFhYV2dnZUVFTcc19iYmLoZkLjAAAdB0lEQVR4nO1dCXubSrIFDM2OkG0a5AVskAPBipf4juPEyeTOm/f/f9PrFZpVaLOT+9LfzE1ZElJxqK4+3V1VLUmoaYosq1gwsOBwwUKChQSFCCoSDCQ4XJCwoHFBx4KMBLMh2EhwmSDbWHAVJphIkLGg49/o6tFQaJ0eTYWUjkJT9DC5Hjr57x9Y/sCyCSyqogCihShQdbBgES2QQNQBTJCwoHGBaKEggcLCBRu95HKBqoO+iGrBBR1/9bAeoKFHrVBDj6ZCKldIFhXq6mE39MAChUWVNNx01PYu6GuEw/zq5nr0KUQe8PCTZgirfU9a4U8aTH7SYILFqSN67G5xoNJj3OLkCX6hvxtWfoGq0++fpviFpn/azi9M8U9dhznsn/7A0guLqqqAGi8SKCxIYH1HVe2G4CKBwgJUlXYiJNBOxAWjIRBYsEBtlgkSFgwuaFzo6sEF1d2nHk2FjH6FRIRVDqzKgW0I/EmrQ09a4RbHBVvhTxoJ/Ekr3OIU/qSVHotrKLROj9YArXCLG9fDbuiBham8RVRnJ94iqLMlbxnTYzpvGdbjD52bBssEOmftjc4pGw6uPXo0+OVUOtejxzCdM1DTTF03K0GbKBhdAdEhUyeCOUnQK8Hs6jFVoR49zEqPTRVivzpK59Sazqm70Dkg0qjN6VxN3Hv1+EPn/tC5X5HOqb8InVPX0jkuHITOyQxzAwsOF8g3NATypLmAH6fMx0OZP2CZP+BaoBbHn7QpCvSWuDCih9HRo6mQ1lBIHlbI7VWoqYcuS13DG6Zz6ha8pY9d9nTEtbxljR5recsoy/1F6RwAwLEMx0T/AsuhZvOL0Tm1EgbonDo8uIqDvLKWzqF/ZclyDACTJEFXyDBCzXZNU4YQKCN6NOlcVyGRzilr6ZwySOdQ6xeMhqBNEPR+QedfJAo2sBUIozwtYtzmqMVFmpdJgnCxNW1IoR30GFfIfC86Bxidk4FmmDZMi2wVp1Hk2rbskmaXZRbHRZlECBzy83KfHuoWdK6hx69I5xSAzAFEeTYv6bjYaoZazldxXiLsnP8/dM6CMMnTuEisHkh4s5J5VkDZxGPz+9E5ZZg99dOo7emcZUb5fFWOYUKbmcZpgv3vm9M5BzVNRj0bCwYWrI5gIMHqCA4WNPSvhAWdCDITbCSYlYB+BLEn5DywYKKBp0zjaC0mtEVZnMi6VSk0ooegUL8eTkMPJNj49itBR4JMBalreNWi5RQa1Z3PrFu0VJMyzuBEUAgwyP+4Gtho0XJDOqe8N52z9CRd5c37dj7f/fjwfUbb9w9PVxdO430jjRMAwbvQuZrFVcI6Oqf20TlllM5ZLojnpnjPFz9fZn7ozYIj2oKZF/qz4/Ol+CEwR1wGKJvQOWULOqe06Bwilm5DMNYIWkfgXKlHIBQJ/YN4FEA9Qrjds+tH35sdddvM87/dCS7ZSecllKfoMaIQ10NQiLA4UWAw9NE5VaBzdkNo0Ki1dA60aZQepRmo73X5vPCCHkyY2YSLH4LJwDhxAejRQ11L5zp6NOgceGc652iwWNXcbflh0WcnYvP827Pq81ocJcjB/OPonAbSuH76T2tBIcCEN9UVVpZGcJe9pg3pnLoLnVOn0igDpEV1iyen3gRQcAsfLypcEC2GQ3QO38ckPaRJdM6yLEezUcOC0S8YSKKCg6SGoCHBwYLeEUwsuFRwLDUpalu5XQz7lHYLFrXBFKWqr9Gjq5CohyCYSHC5YGNBrwWpaXjqNDq3+R60lRQZv7mzj+FkUHDzH/iVRhbJcCM6t+Ee9BvTOcvOK297EU7xKkdBbVBewIckK04S8LvQuYo9DdE5x4Qrnd3ZfTihAwX+7OOpX/mfIOQORs5KqPbo0VRI6dC5/lXCITqnYN9iaXj1pxKIJxEFl/oWUdDwpxuCjgVXFEwsmERwYcz5yv1igqV4p/foo8tbv4sLnCegqZDVVcjtKGQ2FRIFHX+oITTonLoZnVOH6Bzo0CiYxHwQ+jwFldkLmxRd9+BSlPI0OtfVY5zOgTemcwaaHbJ7uhihtXXzK3Z7XLmh4Ii96Myha/4T6JwZrVR6S9bRFFRmXzgq0olfv/qRvZakQD04LIfvRBYoUnZHL4NjEJ44h6Hv4am0d17BYgh9zntmLxYRBD2dSN1nJyIuhpG3WmixuI5APZwo6A2BkCbi2GwbJBkbm2tX0cIk9B+/3Jzf39+fPx2fegOwHPlf6YtmlpiCQtaIQm6fQrXgNgS9hkGiCIt0rhIm0Dl1LZ2TQVKwtYRlPyoz/+FOXF05928r+aJxScgmjnFpWy093jqkcFc6p8KS09vvvV1odlxNejh6YTXP/jJrfpS+qs+h8aYZIpuS//XWUhvL1z5jCYPgRWq1Dz67/Q7JWVzS19PItg5rLRv7Fqu/Tw/4FhdEzLM4PbYS+F+/Bf5lC5azIHzBFmQ8tYEMHukn7BhqA3p0FTI39i1oqti/sMA6wJYLC0o9obfciA1DP7vzw9njBeJ3wWnbXC5Off/1+JvXvYJ73XmaKFyP1sKCWumh7LCwcFjeohhqQTuq011gmb1iRW698LqNi3PjLRaL8LTDcjiEUZxsHiPzC9E5E7JVlqvOo5+9kjXsszDwiEJny+Wy8rXOxcnnM23WwYX1OCsrwUFh2XqJexqdsyPmcF+7d8gwuPO9J+nk+dHzfd97vT0RrGbZmUHxwahIIdfjIEvchmGQibNbC5bBJ86DgmbhbQcmsHmqKJhUsLQkphuIF50bXHzmN/8tCI58ZhjBzD+9qnG57F5GuUuZA7lXjxGFzH5BFwXXIjBIHOHDbJ8Z0Yru9jy1XUv4VN37VfO9wP9Ys7vn9nWMAusFhPLgesvu22cEloPROTOf09tr3x0faiXciTo9pR6zjXbfC77TNzIEyy9L59ZtzZtsltjh/f49v/GffSswi6/87fO2q15QU0qjRD3gWi4J5LC3DeSweQCFjeMm2Io7E0x8NXMtdy1rqY2l6z3ozXPPY7XNhQEa5YlcK1TrofXp4bAFfya4WDBFwcaCXgs7h/2M7RMpsIyp92qvKIR37K6XA5sAwRHfgb5pIepRpwTntnPAfaKD8hZYMtfy2HrmC37Tgysw3g8OXMucmHMxMnwbvyedg8zjntWuJZjNhPW3zwMrMEfCymUb0hmFdAW196NzI4Gf6wNQAUzT5t0H/umHLzN/xmfNX4a3jDw+grfHdoZXRmDZPQB1kM7tJVy5NyjYjuiKP2f+M7LRId3PQmouzrCxoA8zWC5bH/KpNy5KsG248kCUshiu3EF4j3TO0RksbCAKTtny2tmMrpyM9KFqJG6t0CF3fUVhSdk+2kGC2wksB6Jzjl3SMLlzCktNVr76L8Lr/S1knM5qfYiNYggW5c3rtzRY3BaRlhQWl07opB8eNRapah5Zl/33GCze7dfzu7u785+nrde3gmXDxBkcq0rSm7DA0pscntXEBAMJVltwWHoTCYPFWU2iQLOaHDtNyC08E88q7P9Ij6SLjHhcfP+4hV5nNsVgyWGfHlqfHoJA06xIXK5MwnFrgaZZEeGgUdwgmUMRFr5Ei9r3KbD4tPXDEif6AaO4D8lbQFJQWG7pE+djC1IsnNCJflxcfD45Obls8RaPw2L+pnROSdhMkY1EfjUBvJ7gcv1xl4usxXlTOre3fCJkLY0Butr/+hzSqeB2A/S9YC2HyidaQ+e0qclevTRKLiks94zOBeRJW9ehz2Y8I7BUk+z7Np2j222IzulbZsF1hX3SubW5io6WFK0HHvqPjwuvGpM6i2+CUfCd6B/95D9GI9F+Sk+8NZ2TNEg3WoWpIomJC3iQYHcNu757vgvQnioGdKqYle9A55Q+OrcxLAbI+m+N+w0+RvUYCw87bS+O84WFOIJvUNZG4bAo1dZX01oUDgsXyI93tJBNQbBARmMinlsEpYrVOAv6A4Hq5bs2cGwhBhaR0qfHSNZ8y1q40JM1rxy2xgKI0v5Fy5rCnPR3o2q1xWgv37Fxuyxch+rx29E5WUnYXLGzxF2tWkpfe3AJFtUmWnvNkm8UzXPT+U3pnKzChK1adraTgypbqM1icXhytbXWwZN761VpHBKWgxZvlCGMrf6HXkXCke0zEZlg8aVOlzluz5qYmdlZZEmb0rkNqv0ctLKmYUI2K+qOxAu++OI8BqcPC5qWF8xC/5uwC33e4XusD0UpMPdU4bOv5qc0jPA+CsM6kOcQfetuzTOvehOiwfji58tp6Punx9diGF03uHn2X/pOkZibFobdqJIYgeVQdA6NoyXbhG5TeGwZBIFlGLC1fOuszk5c3n+9v/jcE/dDTcmIgaYM+YXfoLqynMzpSlTX6SK+i3E5ntUTa97OjsPFYuF3qV7wjX6gTG1rS1g2oHMTZp1jxYxHyvHJCc8564koDNCzv/SD1zYqn33f//B0e9S9ghkLmj5rG1ZXnlDVw+RuG3WizSqggk1LZqH/xixlpj0BwG3x83vgi4E+uC19/5l0p/t2J+LGAjLE/DfS45eic0hwXMbo+lNmvGBWj9SsHfv/rsym+elPLIQ3ThPwm6dCaJAxOumhd+U2eGhZC5obVvKPxiWc65jYWN4qFWKEzvXWwJ5Y7QeZC/MuZ/3RCYE/e/pcj0HWTWUsrZW5gDPjNE/Agau/a4duulylQlwNLcZ5vv/ty835+fnTl+++Fw6kQvCJkjJPbP2wSktTEd5yJEKGBiCPtpS+DC/GBTOyLYS5rvezguVMgCXkoR1Zikv1HabOPx+JCCyH4y2YPSlqlan4OiWpVdhPErblPR7lUM4jvaPHb0bniBZmMmfJh0OrTs1WJ+XVU4bZd+ZYjFUJu3ocBJapdZ16h/j1Vdcdu+T5Zxf+lHTfVzaF/lE56cDjs+oMDc6TFVKG19YaS2qVQDsReJO6cyqMMl4LahIuM+9Ok5yTFwEVbkB5Lhvb1p3bYGHhMLylEqg6AJZzm+PSW8em3UI/CP3qg94jRwXOcRDUrhU51Penc9g/KSCJqtpHy8ep1TgqjL7xzREzK3XnLQqVjNO5XQ/R4Ws2AKgRJ7uS8zK2x9ptfhUAYq9S6EhbVH8fonPqUCfacUVr8qKdDXM+HOFFt0nVJ0ibsaAwfINZCU1jTwqNCtIEhHdZWKgnEDCKK3uRlt+nGoz/UC3syvNItia4y3E6Jw4f70nnmH9Cw1FR+V28czTFw4SzKtxOklcIlX/e2WcAIr9b42LchGtKlgThrC70I4FVin/2LWE5BJ3rch8A3ESsZWn8PB3xMbPF43k9r5byVZ4YGys09TCfDp3rbtd2923XVF2vBsbWPrYMANAMyyGVXSmNSsp5IQnt5MPC7ynSEXj+4llchjHiFLpOpcfI/rGmDCtUWT5fBnY6At/HHuMtSs1bemI119A5x01ggpNbTBeqvEciXpfPZREY6/LpMcTVG2cBbjNcuzH8/tRcmkpWOdCsXQ/z6UbVvjGdUxwLj8hFjEtr48ragD8lFYIk5hMk3s4+312/vHx/PX39+HJ8fXVx1nzbjLOczA7fsIxwL51bX3V9DY0yTET3iyRSLcuERVxCwGmUYuK3+ALMlBatiohmPb/hYT47hpkJ8Wa1oLsgihPhxuJEqfMqNBckRTa9jHCaQHk7PYbiANcHBErDCG+/T+SY+coU7w3mtlzRKAXNHHEPKxof6W16mhVlYlqVHpalQwh59fdd6dzIPhGBZc+8xVAzrXl/OD1X8Auyo8kwz+LIkIabkcRFXiK/xKeb0MTkpyzLRDac34/OOWbSdqogh6ChjmMZMMrj1UBBey0qMuSRVBkCVaFWC5OyxMckrLJ5Fsm69dvROcfO66q4dHqopkld65axJxci2gujNEYDTQERxzEcHf+Tl0W8QoYCTM1B3ZvqYSQIqBK6NDSuSIE+lc5NP8ynS+dYVoXZyapweVaF3cmqkBtZFUKWSVUM6uT8+SPbCstIWVH8GTHLBJkMxKc/IDuYZ1kWF0WRIkDyBMgmrsxU6YF6UCE66WiegP7sDq1HIVnIdrGGs12MOsukj7d0Uqr7M6kHeQuIVuSZOWE4m7HYwRU0enOSAJ4SaLrrJkkUJehB2vj8ENuymrQSJmmz2HuaQqutxy9G51rqyAgW8gsOzo9isPyF1xpr0i1qgccMR8Jn8OCaO7gDdCYhapK3vJXOgsTegs6NV12XmofoMBoFZLVdqAT2wZLohoWeEhtKFbFsBHUHqJFfVagXsJCTRcOXhe1aBeLUm7Z5rlt4TsQLlSgVnePucU2gfpPOtSP2pySBDmeDkhOXgC27Jn1Fd20ZwvKvDix/44L06BbIVZoJIICybbu6TdiTaZv4qBX8NZqLUCAtwQ29KOP43rrY7gWNWkgLiHoc+aCN511UIdMkF+OfWZela2xD5zqlYPpShrG7xP9P0zwCuKwxGkSRvyyLvzuw/Osv5FFzpK9hIy+b4HvO07yMdOTn5CQqU+Rb0MXIvxBugmZTWYEPLUJXpfhsGrqwt/zy6H2i+dFoAC/yFM9GE3yiEUScz0HfgUgN+iJ8wpHLLH+7sJ9uf5zMW2CSz7M8T1HLslI1XRv9HZM/rTYsBpobJQWOS0E45vO4xJcV2TxR0RwJXV7gy3I8GOEJZlqiDoSfnYVAxH+z2eXlIjjy6NJUhCahBeIw5PfjrIC26aIxPEtzhFK6mqdQc96FzulIC5fbtpmnqPM0zwYRYWENohEYEfrKUdgFeuBFXC01mOlfpWxJrWam/6LxmpfhEYel1SAif0mWVtTQnuc8qOlt6ZwlNxcIoqy5wtQLC97T+FfjYxHqLX332WwGXAMLLuueNebleYmIyGZ0Tq3pnD1Ue0WoedItdYJmJ7Bs3U78d0vTXlgQrM0/V3+tBaVqI7BIxn/i5gvIfgZq0fQXpRFrwGxN50DSGTOd9t/9sLRb+7KRNgZLG25JxkxYksaORB+u/r4lnZNBOe/4gPb91rBgnrZxwyX3m6+MwtJuFppD4X+3pXPjVdelfjoHS2qzy7urqyuhhukZ/puuxDJYltcvj4tF+HAr1q7El4nlYBtf41xcPR0/vMw8b/by5VyYYWNYZl/ur2gj159gQcD881X1xXFOYeF0zphC5xi/HKwZt6ZWG6cSJ5/C8NN1rdbFp9CnSc4UltMvPs9y8F9rYC7Rxz5dSeLf4ScaM2d88+iSN9kWmYV+bR4YlqOZH/oh/h+5/sX3w08CvtcL9Dd9LPMSWNOK6XVq15HrpxRqbtdn5nGluFq2J8LiV1FeBJYjYScoWFQxlPgG681lGg3GMvXO2vuw3qMlXCVsOeIdR5xZ44uweFWs9xwaVYmecTqn7o3OVbCEa2DBuz7IgOhuUBVbOgYL2YXFGyPIEGhxho8iLIHH2mICLG9N5ybDMlu8Xt+f3J9/I0awuJoGy+nzj6/oqrtjEjzln9dXBQ8/bml7vjgwLJvROQULxkRYZg/ckZ4Qg/HPpsAy+8DfWOIaocGpU13VGonWdaKt6JwqjVVGHitEzGunrYWlfmuJzYBVwpoMC3U17EY3gwXxuapS9JSS0UKFZoG3DB6i00vneO20DWCRvoZVnb3psJBKYiyCeUNr4QP0NDqn7oPOwTzbGBaSakULgW0ACx7rWEW27WDZhs5tZC3ubtZCH/zNhrDgAHeWivV21jL1AAWz5VtAuZG1UKr6NeQVojaAxZpVXyPAAlN3HSwxonMTTrjo9S24bUPnJo9E9OWiejP4uCEs0segB5b5/8B1sGxB59Rd6Zy+GSzUtHA29J5gKf41CZa3pnPvDsvfh4fl8J2oF5a7+rLNYfnPQTtR95iw1rllbYEdEwbKaVNFBgus3qxh8XaBJRN9i7Cw0eNyu+e4rT3QredQue56i9u33iIO0HUV9vEBGldCpZms5Abr5LvNYTHZ6vpTDUMblvkO6y3bbrZy8n9Rk631sOCqhNS0CEcTijlOgwUnALd4C4ZBdFKitbwVnWuQf7o6R7IJvXpxcQwWktpKLZ54mbqo/URY2s9AYgZ42wvLznRuzTmnjeNNXXqqqcoP2AmOGlY8Bgsup8ZLByyOGj5hGiy4yE2r9gDJIBd+pDNV3OL8WY0+5W32iSy1oIFguCwcP5NgHJZzAgXzs9hVCg9+GixS2AQTNzwtF1KE97KwQDcRtuEtlp3TOBxSAM2r3MQgLM4P/MHqWZOjAascXjqgrYflgwjmkozLpFofX92iZTLfkc5JJisoTWsEeMGPq4vP93c3uEK9CEtwe3e/XC6vbklGSFBTjO+493mnN1dLclkwCRZSBcZ7PL+8uD9/oZv0NFXa/3Z+vzy5v3vCH947nZsYsYAFA65oFzyjhzt74cIPQ7IC11y09Hx8BNOMrnHXa/+0zF4gXDYBFloFBl8UejPKgKSr+ot8+kV7WOI2TdPl0Sw9Ao1vcXlYiyDYvBgu6jetPA8OS/vMzTAQ3cJl+7JwAiyNxFhW6/Cpfeg2hyUCJL4FKe2SaJZ+QesRdoiGggnfhF4e+zxdNUDG4TN65zyEbI+IPE30cnOTcPnAs0MCfFl49JVZn+f5/xU+9+p7oV8Z2SM7yghdccpQvjytvmiGf/+R1mdrb59Niobakc7JMlDSKoD94uaFlkh4+HBzv6zu3jj5+fxCiye83l51A3AvfjyQd48entFl/KKb6+trsS7SHX6h/vP++RFf83IjmN7l7UfyK6f/ff55UiWS77DZun2kJUCzxbEo7OFWbLAbv30zs2j7rXl8Bg+O30C2YctmQ3CRwOJyqeCYSLArwZKTtdvzPc3KVtlEXOD6jwy3NIUDpwt1DxUiAg/kkHegcxKJnSvmWq9KIw2s4jSOJ+EC/7cdK7JBk1Ok95vTOQl7JxCV86kZMLQZeYajB6NsgiEY2TwT/7bSdggLVmIAuWQOdeedUiFUAGA6Tzo9yQDp33+Veud1uZyXOKgU2Ek6796jkYgpwdE8guWqhk9ezbNYaVxggSxb1ZF3vDlGFM8j3eobPg5J56rIXmAacpKv4jLBKztobim7ZRQXcxw5iQNIy1xFToi85ZZFVkTQRaAgt62rScwvw5oCdBmONo2zIo6iskyzLIe2CfJ5lpVRFOVZlqUQ99oUfSX5RphnK/SFMMqyIof4FXSfMsRftIrziKi/dQDqmnDl9cleMkCa4ahR1GKSzFBGuKKVDFFfoeBkc/ScizRChiLbLEzYxpGoZUGuKvBleYluUYE4tDdN6R8uOWQ7wiGmeYSvVdFPlXnBrkK/AyH+eXQJfSnmX4RTKYbT0NZXod82V7EKbkdDNsCRNRA90gioiq0iXXGagmOhfxPZVQAgb+EQbWwptCMqsqpbumsj6NBNAIVkQKDxT0JXJRCYmmbJgOZs4SySBGqGgzUDQEPWha9KXFOzkN9EHQA9JRih19BYIOPPQhyStltw+55SIRx8ywCNdJKOboc7KlWxHMsxAEkWEtOOmX9y0EAHAInvVBEjojlbyGWZUitDRBX8goXwwQHsklhG2KQ/7yA9lDr9+TDl+HbKgxbrtwhuu+cwn0qoDvNZW6ZTbj+nAyTO9BQ53yhrnmarc4Ed5iPxrCZBYFlNSJ2GwPPoaj0Gqq67XJiihzZBj65CUqXQQWssrKFRBynTuY+kvK7hHaoix04Z7+v0+A0yW/8xsByujLBY/b2nSNtGdZ2mFkebXu1nmM7pOjvOBguMvE0S9EpgXKlX0MYFo1/QN1DoIHocqPQEF3Y8zGewotnBS0/sgc6trzu3iX/azi+8U3XlXenc9MN8lBG3vWNZm4Yeh9mDlpW1sPDFwg1PIB/WY+Tkbzw3G4Jlm0VL8lUHroBKbmnbw3x2onNbV0DtIvyHt/yhc6OwTCiPuQc6t2W50D3TuWm1uLc7xWavR/eMCPsvOTqx1OceCsOur67coXNbWtzWBWo3rvP/h87tQuf+wPIHFk36P//q31iYW4cfAAAAAElFTkSuQmCC" vertex="1" parent="1">
          <mxGeometry x="440" y="120" width="430.06" height="280" as="geometry" />
        </mxCell>
      </root>
    </mxGraphModel>
  </diagram>
</mxfile>
